<svg
    xmlns="http://www.w3.org/2000/svg" width="600" height="642">
<script type="text/javascript"><![CDATA[
function mo(elem) {    
    var  line =document.getElementsByTagName("line")
 
  elem.setAttribute("class","circle-active");
    for(i = 0; i < line.length; i++) {                                          
                                                                                
        if(line[i].getAttributeNode("targetId").value === elem.id) {            
            line[i].setAttribute("class","link-activeIncoming");
            document.getElementById(line[i].getAttributeNode("sourceId").value).setAttribute("class","circle-active");

        } 
        if(line[i].getAttributeNode("sourceId").value === elem.id) {            
            line[i].setAttribute("class","link-activeOutgoung");
            document.getElementById(line[i].getAttributeNode("targetId").value).setAttribute("class","circle-active");

        }
        if((line[i].getAttributeNode("targetId").value === elem.id)&&(line[i].getAttributeNode("sourceId").value === elem.id)) {            
            line[i].setAttribute("class","link-activeBoth");
             document.getElementById(line[i].getAttributeNode("targetId").value).setAttribute("class","circle-active");
             document.getElementById(line[i].getAttributeNode("sourceId").value).setAttribute("class","circle-active");
        }                                                                              
    }                                                                           
}

function mleave(elem) {                   
    elem.setAttribute("class","circle-pasive");                                      
    var line = document.getElementsByTagName("line");                           
    for(i = 0; i < line.length; i++) {                                          
                                                                                
        if(line[i].getAttributeNode("targetId").value === elem.id) {     
        document.getElementById(line[i].getAttributeNode("sourceId").value).setAttribute("class","circle-pasive");       
            line[i].setAttribute("class","link");       
        }
        if(line[i].getAttributeNode("sourceId").value === elem.id) {            
            document.getElementById(line[i].getAttributeNode("targetId").value).setAttribute("class","circle-pasive");
            line[i].setAttribute("class","link");       
        }                                                                          
    }                                                                           
}
]]></script>
  <style>
    circle { 
        stroke: #333;
        stroke-width: 1.5px;
        fill-opacity: 0.8; 
    } 
    .bubble text {
        text-anchor: middle;
        font-size: .5em;
    }
    .circle-active circle { 
        stroke: #e80000;  
        stroke-width: 3px; 
    } 
    .link { 
        stroke: #e0270b;  
        stroke: #555;  
        stroke-opacity: 0.7;  
        stroke-width: 1px;  
        stroke-dasharray:none;
    } 
    .link-activeIncoming {  
        stroke-opacity: 1; 
        stroke-width: 10;  
        stroke: #be1b38; 
    } 
    .link-activeOutgoung {  
        stroke-opacity: 1;  
        stroke-width: 10; 
        stroke: #1AC21D;  
    } 
    .link-activeBoth {  
        stroke-opacity: 1;  
        stroke: #1AC21D;  
        stroke-width: 10;  
        stroke-dasharray:5,10,5;}
  </style>
  <g transform="scale(0.5)">
    <g id="legend">
      <text transform="translate(30,30)" style="font-family:Verdana, Arial, DejaVu Sans;font-size:200%;text-decoration:underline;">Legend</text>
      <rect width="310" height="35" style="fill:#3182BD" transform="translate(30,45)"/>
      <text transform="translate(35,72)" style="font-family:Verdana, Arial;font-size:200%">Geography</text>
    </g>
  </g>
  <g class="links">
    <line class="link" targetId="0" sourceId="1" x1="239.18952718095048" y1="205.37731243415183" x2="330.49737704500865" y2="243.30499760861582"/>
    <line class="link" targetId="2" sourceId="3" x1="353.1690735720948" y1="191.11361914738907" x2="285.17953198795107" y2="349.41427366998147"/>
    <line class="link" targetId="3" sourceId="1" x1="285.17953198795107" y1="349.41427366998147" x2="330.49737704500865" y2="243.30499760861582"/>
    <line class="link" targetId="3" sourceId="4" x1="285.17953198795107" y1="349.41427366998147" x2="229.14281483707114" y2="357.8012657140046"/>
    <line class="link" targetId="5" sourceId="3" x1="307.64387339597937" y1="296.6193974079042" x2="285.17953198795107" y2="349.41427366998147"/>
    <line class="link" targetId="5" sourceId="6" x1="307.64387339597937" y1="296.6193974079042" x2="217.452831941203" y2="259.0843622599357"/>
    <line class="link" targetId="7" sourceId="3" x1="423.97848831299547" y1="285.1655758553048" x2="285.17953198795107" y2="349.41427366998147"/>
    <line class="link" targetId="8" sourceId="1" x1="260.65138777476074" y1="152.12544321743735" x2="330.49737704500865" y2="243.30499760861582"/>
    <line class="link" targetId="9" sourceId="1" x1="296.0521765849549" y1="197.97120424205238" x2="330.49737704500865" y2="243.30499760861582"/>
    <line class="link" targetId="10" sourceId="11" x1="503.2982978838543" y1="223.6710547245447" x2="445.7501985241952" y2="231.17961925953696"/>
    <line class="link" targetId="12" sourceId="3" x1="398.83870589417364" y1="336.7959034681788" x2="285.17953198795107" y2="349.41427366998147"/>
    <line class="link" targetId="13" sourceId="3" x1="433.27375019906185" y1="383.9615140344014" x2="285.17953198795107" y2="349.41427366998147"/>
    <line class="link" targetId="14" sourceId="15" x1="235.19328685406984" y1="64.18937147114113" x2="281.5569010391372" y2="98.36863271402444"/>
    <line class="link" targetId="16" sourceId="17" x1="163.19820725928247" y1="117.42420595001525" x2="202.7559378928058" y2="159.29295566011646"/>
    <line class="link" targetId="18" sourceId="1" x1="318.0820399261208" y1="144.9821211250285" x2="330.49737704500865" y2="243.30499760861582"/>
    <line class="link" targetId="19" sourceId="3" x1="410.2611766113001" y1="437.35556406376975" x2="285.17953198795107" y2="349.41427366998147"/>
    <line class="link" targetId="20" sourceId="3" x1="341.4742903729817" y1="342.73297325260063" x2="285.17953198795107" y2="349.41427366998147"/>
    <line class="link" targetId="20" sourceId="4" x1="341.4742903729817" y1="342.73297325260063" x2="229.14281483707114" y2="357.8012657140046"/>
    <line class="link" targetId="21" sourceId="3" x1="375.54925222898044" y1="389.11998041765355" x2="285.17953198795107" y2="349.41427366998147"/>
    <line class="link" targetId="21" sourceId="1" x1="375.54925222898044" y1="389.11998041765355" x2="330.49737704500865" y2="243.30499760861582"/>
    <line class="link" targetId="22" sourceId="1" x1="340.55953888654153" y1="91.37794640666141" x2="330.49737704500865" y2="243.30499760861582"/>
    <line class="link" targetId="23" sourceId="3" x1="352.8724762020006" y1="442.7616146358505" x2="285.17953198795107" y2="349.41427366998147"/>
    <line class="link" targetId="24" sourceId="3" x1="318.86680898009064" y1="395.47516577679386" x2="285.17953198795107" y2="349.41427366998147"/>
    <line class="link" targetId="24" sourceId="1" x1="318.86680898009064" y1="395.47516577679386" x2="330.49737704500865" y2="243.30499760861582"/>
    <line class="link" targetId="25" sourceId="1" x1="375.44005290735123" y1="137.98550381545581" x2="330.49737704500865" y2="243.30499760861582"/>
    <line class="link" targetId="26" sourceId="7" x1="481.46094357153765" y1="278.0854949409681" x2="423.97848831299547" y2="285.1655758553048"/>
    <line class="link" targetId="27" sourceId="3" x1="296.6769724451187" y1="450.32473810292987" x2="285.17953198795107" y2="349.41427366998147"/>
    <line class="link" targetId="27" sourceId="23" x1="296.6769724451187" y1="450.32473810292987" x2="352.8724762020006" y2="442.7616146358505"/>
    <line class="link" targetId="28" sourceId="1" x1="432.72481942882916" y1="130.26456923542662" x2="330.49737704500865" y2="243.30499760861582"/>
    <line class="link" targetId="29" sourceId="1" x1="410.29195506114996" y1="184.5805040557637" x2="330.49737704500865" y2="243.30499760861582"/>
    <line class="link" targetId="30" sourceId="3" x1="239.60627040501853" y1="457.40341260398884" x2="285.17953198795107" y2="349.41427366998147"/>
    <line class="link" targetId="30" sourceId="31" x1="239.60627040501853" y1="457.40341260398884" x2="196.98289963064806" y2="495.1078832122387"/>
    <line class="link" targetId="30" sourceId="4" x1="239.60627040501853" y1="457.40341260398884" x2="229.14281483707114" y2="357.8012657140046"/>
    <line class="link" targetId="32" sourceId="4" x1="102.19389508715466" y1="273.78101307635154" x2="229.14281483707114" y2="357.8012657140046"/>
    <line class="link" targetId="33" sourceId="3" x1="262.56779747118446" y1="403.8050302507106" x2="285.17953198795107" y2="349.41427366998147"/>
    <line class="link" targetId="34" sourceId="1" x1="467.75442354219354" y1="177.04755075560288" x2="330.49737704500865" y2="243.30499760861582"/>
    <line class="link" targetId="31" sourceId="30" x1="196.98289963064806" y1="495.1078832122387" x2="239.60627040501853" y2="457.40341260398884"/>
    <line class="link" targetId="35" sourceId="3" x1="205.31814042558165" y1="411.75408913361866" x2="285.17953198795107" y2="349.41427366998147"/>
    <line class="link" targetId="35" sourceId="36" x1="205.31814042558165" y1="411.75408913361866" x2="152.8450020763787" y2="435.5106924861883"/>
    <line class="link" targetId="37" sourceId="1" x1="172.6067607641114" y1="365.1611015145271" x2="330.49737704500865" y2="243.30499760861582"/>
    <line class="link" targetId="37" sourceId="3" x1="172.6067607641114" y1="365.1611015145271" x2="285.17953198795107" y2="349.41427366998147"/>
    <line class="link" targetId="37" sourceId="4" x1="172.6067607641114" y1="365.1611015145271" x2="229.14281483707114" y2="357.8012657140046"/>
    <line class="link" targetId="39" sourceId="1" x1="364.81711582477675" y1="289.80754983471485" x2="330.49737704500865" y2="243.30499760861582"/>
    <line class="link" targetId="40" sourceId="3" x1="194.40129845728094" y1="312.2679578707843" x2="285.17953198795107" y2="349.41427366998147"/>
    <line class="link" targetId="40" sourceId="38" x1="194.40129845728094" y1="312.2679578707843" x2="136.83344688063963" y2="320.16200932081387"/>
    <line class="link" targetId="4" sourceId="3" x1="229.14281483707114" y1="357.8012657140046" x2="285.17953198795107" y2="349.41427366998147"/>
    <line class="link" targetId="41" sourceId="3" x1="160.2776236496693" y1="266.4345458344901" x2="285.17953198795107" y2="349.41427366998147"/>
    <line class="link" targetId="41" sourceId="1" x1="160.2776236496693" y1="266.4345458344901" x2="330.49737704500865" y2="243.30499760861582"/>
    <line class="link" targetId="42" sourceId="3" x1="182.32166084903088" y1="213.41681627795344" x2="285.17953198795107" y2="349.41427366998147"/>
    <line class="link" targetId="42" sourceId="1" x1="182.32166084903088" y1="213.41681627795344" x2="330.49737704500865" y2="243.30499760861582"/>
    <line class="link" targetId="43" sourceId="1" x1="387.86953888989973" y1="237.5642393855294" x2="330.49737704500865" y2="243.30499760861582"/>
    <line class="link" targetId="6" sourceId="3" x1="217.452831941203" y1="259.0843622599357" x2="285.17953198795107" y2="349.41427366998147"/>
    <line class="link" targetId="6" sourceId="5" x1="217.452831941203" y1="259.0843622599357" x2="307.64387339597937" y2="296.6193974079042"/>
    <line class="link" targetId="17" sourceId="3" x1="202.7559378928058" y1="159.29295566011646" x2="285.17953198795107" y2="349.41427366998147"/>
    <line class="link" targetId="44" sourceId="7" x1="458.50837704264177" y1="331.4360249486285" x2="423.97848831299547" y2="285.1655758553048"/>
    <line class="link" targetId="45" sourceId="3" x1="251.49011144131603" y1="304.1046689820535" x2="285.17953198795107" y2="349.41427366998147"/>
    <line class="link" targetId="45" sourceId="1" x1="251.49011144131603" y1="304.1046689820535" x2="330.49737704500865" y2="243.30499760861582"/>
    <line class="link" targetId="46" sourceId="3" x1="273.74328020790205" y1="251.06988791542707" x2="285.17953198795107" y2="349.41427366998147"/>
    <line class="link" targetId="46" sourceId="15" x1="273.74328020790205" y1="251.06988791542707" x2="281.5569010391372" y2="98.36863271402444"/>
    <line class="link" targetId="46" sourceId="45" x1="273.74328020790205" y1="251.06988791542707" x2="251.49011144131603" y2="304.1046689820535"/>
    <line class="link" targetId="11" sourceId="1" x1="445.7501985241952" y1="231.17961925953696" x2="330.49737704500865" y2="243.30499760861582"/>
  </g>
  <g class="nodes">
    <g id="0"
        onmouseover="mo(this)" onmouseout="mleave(this)">
      <circle class="node" r="15.0" cx="239.18952718095048" cy="205.37731243415183" fill="#3182BD"><title>statusnet-hii-co-il</title></circle>
      <a class="bubble" href="https://lod-cloud.net/dataset/statusnet-hii-co-il" target="_blank">
          <text x="239.18952718095048" y="205.37731243415183">status...</text>
      </a>
    </g>
    <g id="1"
        onmouseover="mo(this)" onmouseout="mleave(this)">
      <circle class="node" r="23.0" cx="330.49737704500865" cy="243.30499760861582" fill="#3182BD"><title>geonames-semantic-web</title></circle>
      <a class="bubble" href="https://lod-cloud.net/dataset/geonames-semantic-web" target="_blank">
          <text x="330.49737704500865" y="243.30499760861582">GeoNam...</text>
      </a>
    </g>
    <g id="2"
        onmouseover="mo(this)" onmouseout="mleave(this)">
      <circle class="node" r="21.4" cx="353.1690735720948" cy="191.11361914738907" fill="#3182BD"><title>pleiades</title></circle>
      <a class="bubble" href="https://lod-cloud.net/dataset/pleiades" target="_blank">
          <text x="353.1690735720948" y="191.11361914738907">Pleiades</text>
      </a>
    </g>
    <g id="3"
        onmouseover="mo(this)" onmouseout="mleave(this)">
      <circle class="node" r="25.0" cx="285.17953198795107" cy="349.41427366998147" fill="#3182BD"><title>dbpedia</title></circle>
      <a class="bubble" href="https://lod-cloud.net/dataset/dbpedia" target="_blank">
          <text x="285.17953198795107" y="349.41427366998147">DBpedia</text>
      </a>
    </g>
    <g id="4"
        onmouseover="mo(this)" onmouseout="mleave(this)">
      <circle class="node" r="24.5" cx="229.14281483707114" cy="357.8012657140046" fill="#3182BD"><title>linkedgeodata</title></circle>
      <a class="bubble" href="https://lod-cloud.net/dataset/linkedgeodata" target="_blank">
          <text x="229.14281483707114" y="357.8012657140046">Linked...</text>
      </a>
    </g>
    <g id="5"
        onmouseover="mo(this)" onmouseout="mleave(this)">
      <circle class="node" r="20.6" cx="307.64387339597937" cy="296.6193974079042" fill="#3182BD"><title>thist</title></circle>
      <a class="bubble" href="https://lod-cloud.net/dataset/thist" target="_blank">
          <text x="307.64387339597937" y="296.6193974079042">ThIST</text>
      </a>
    </g>
    <g id="6"
        onmouseover="mo(this)" onmouseout="mleave(this)">
      <circle class="node" r="20.1" cx="217.452831941203" cy="259.0843622599357" fill="#3182BD"><title>environmental-applications-reference-thesaurus</title></circle>
      <a class="bubble" href="https://lod-cloud.net/dataset/environmental-applications-reference-thesaurus" target="_blank">
          <text x="217.452831941203" y="259.0843622599357">EARTh</text>
      </a>
    </g>
    <g id="7"
        onmouseover="mo(this)" onmouseout="mleave(this)">
      <circle class="node" r="22.4" cx="423.97848831299547" cy="285.1655758553048" fill="#3182BD"><title>oceandrilling-codices</title></circle>
      <a class="bubble" href="https://lod-cloud.net/dataset/oceandrilling-codices" target="_blank">
          <text x="423.97848831299547" y="285.1655758553048">Ocean ...</text>
      </a>
    </g>
    <g id="8"
        onmouseover="mo(this)" onmouseout="mleave(this)">
      <circle class="node" r="15.0" cx="260.65138777476074" cy="152.12544321743735" fill="#3182BD"><title>greek-administrative-geography</title></circle>
      <a class="bubble" href="https://lod-cloud.net/dataset/greek-administrative-geography" target="_blank">
          <text x="260.65138777476074" y="152.12544321743735">greek-...</text>
      </a>
    </g>
    <g id="9"
        onmouseover="mo(this)" onmouseout="mleave(this)">
      <circle class="node" r="15.0" cx="296.0521765849549" cy="197.97120424205238" fill="#3182BD"><title>statusnet-coreyavis-com</title></circle>
      <a class="bubble" href="https://lod-cloud.net/dataset/statusnet-coreyavis-com" target="_blank">
          <text x="296.0521765849549" y="197.97120424205238">status...</text>
      </a>
    </g>
    <g id="10"
        onmouseover="mo(this)" onmouseout="mleave(this)">
      <circle class="node" r="15.0" cx="503.2982978838543" cy="223.6710547245447" fill="#3182BD"><title>crowdsourcing-fb</title></circle>
      <a class="bubble" href="https://lod-cloud.net/dataset/crowdsourcing-fb" target="_blank">
          <text x="503.2982978838543" y="223.6710547245447">crowds...</text>
      </a>
    </g>
    <g id="11"
        onmouseover="mo(this)" onmouseout="mleave(this)">
      <circle class="node" r="15.0" cx="445.7501985241952" cy="231.17961925953696" fill="#3182BD"><title>taiwan-geographic-names</title></circle>
      <a class="bubble" href="https://lod-cloud.net/dataset/taiwan-geographic-names" target="_blank">
          <text x="445.7501985241952" y="231.17961925953696">Taiwan...</text>
      </a>
    </g>
    <g id="12"
        onmouseover="mo(this)" onmouseout="mleave(this)">
      <circle class="node" r="20.6" cx="398.83870589417364" cy="336.7959034681788" fill="#3182BD"><title>grrt</title></circle>
      <a class="bubble" href="https://lod-cloud.net/dataset/grrt" target="_blank">
          <text x="398.83870589417364" y="336.7959034681788">Accomm...</text>
      </a>
    </g>
    <g id="13"
        onmouseover="mo(this)" onmouseout="mleave(this)">
      <circle class="node" r="20.7" cx="433.27375019906185" cy="383.9615140344014" fill="#3182BD"><title>fishes-of-texas</title></circle>
      <a class="bubble" href="https://lod-cloud.net/dataset/fishes-of-texas" target="_blank">
          <text x="433.27375019906185" y="383.9615140344014">Fishes...</text>
      </a>
    </g>
    <g id="14"
        onmouseover="mo(this)" onmouseout="mleave(this)">
      <circle class="node" r="22.4" cx="235.19328685406984" cy="64.18937147114113" fill="#3182BD"><title>uk-postcodes</title></circle>
      <a class="bubble" href="https://lod-cloud.net/dataset/uk-postcodes" target="_blank">
          <text x="235.19328685406984" y="64.18937147114113">UK Pos...</text>
      </a>
    </g>
    <g id="15"
        onmouseover="mo(this)" onmouseout="mleave(this)">
      <circle class="node" r="21.4" cx="281.5569010391372" cy="98.36863271402444" fill="#3182BD"><title>ordnance-survey-linked-data</title></circle>
      <a class="bubble" href="https://lod-cloud.net/dataset/ordnance-survey-linked-data" target="_blank">
          <text x="281.5569010391372" y="98.36863271402444">Ordnan...</text>
      </a>
    </g>
    <g id="16"
        onmouseover="mo(this)" onmouseout="mleave(this)">
      <circle class="node" r="20.1" cx="163.19820725928247" cy="117.42420595001525" fill="#3182BD"><title>eumida-linked-data</title></circle>
      <a class="bubble" href="https://lod-cloud.net/dataset/eumida-linked-data" target="_blank">
          <text x="163.19820725928247" y="117.42420595001525">EUMIDA...</text>
      </a>
    </g>
    <g id="17"
        onmouseover="mo(this)" onmouseout="mleave(this)">
      <circle class="node" r="20.5" cx="202.7559378928058" cy="159.29295566011646" fill="#3182BD"><title>nuts-geovocab</title></circle>
      <a class="bubble" href="https://lod-cloud.net/dataset/nuts-geovocab" target="_blank">
          <text x="202.7559378928058" y="159.29295566011646">NUTS (...</text>
      </a>
    </g>
    <g id="18"
        onmouseover="mo(this)" onmouseout="mleave(this)">
      <circle class="node" r="22.7" cx="318.0820399261208" cy="144.9821211250285" fill="#3182BD"><title>geowordnet</title></circle>
      <a class="bubble" href="https://lod-cloud.net/dataset/geowordnet" target="_blank">
          <text x="318.0820399261208" y="144.9821211250285">GeoWor...</text>
      </a>
    </g>
    <g id="19"
        onmouseover="mo(this)" onmouseout="mleave(this)">
      <circle class="node" r="17.6" cx="410.2611766113001" cy="437.35556406376975" fill="#3182BD"><title>the-view-from</title></circle>
      <a class="bubble" href="https://lod-cloud.net/dataset/the-view-from" target="_blank">
          <text x="410.2611766113001" y="437.35556406376975">The Vi...</text>
      </a>
    </g>
    <g id="20"
        onmouseover="mo(this)" onmouseout="mleave(this)">
      <circle class="node" r="15.0" cx="341.4742903729817" cy="342.73297325260063" fill="#3182BD"><title>linked-logainm</title></circle>
      <a class="bubble" href="https://lod-cloud.net/dataset/linked-logainm" target="_blank">
          <text x="341.4742903729817" y="342.73297325260063">Linked...</text>
      </a>
    </g>
    <g id="21"
        onmouseover="mo(this)" onmouseout="mleave(this)">
      <circle class="node" r="20.9" cx="375.54925222898044" cy="389.11998041765355" fill="#3182BD"><title>lobid-organisations</title></circle>
      <a class="bubble" href="https://lod-cloud.net/dataset/lobid-organisations" target="_blank">
          <text x="375.54925222898044" y="389.11998041765355">lobid-...</text>
      </a>
    </g>
    <g id="22"
        onmouseover="mo(this)" onmouseout="mleave(this)">
      <circle class="node" r="18.9" cx="340.55953888654153" cy="91.37794640666141" fill="#3182BD"><title>norwegian-geo-divisions</title></circle>
      <a class="bubble" href="https://lod-cloud.net/dataset/norwegian-geo-divisions" target="_blank">
          <text x="340.55953888654153" y="91.37794640666141">Norweg...</text>
      </a>
    </g>
    <g id="23"
        onmouseover="mo(this)" onmouseout="mleave(this)">
      <circle class="node" r="19.4" cx="352.8724762020006" cy="442.7616146358505" fill="#3182BD"><title>fao-geopolitical-ontology</title></circle>
      <a class="bubble" href="https://lod-cloud.net/dataset/fao-geopolitical-ontology" target="_blank">
          <text x="352.8724762020006" y="442.7616146358505">FAO ge...</text>
      </a>
    </g>
    <g id="24"
        onmouseover="mo(this)" onmouseout="mleave(this)">
      <circle class="node" r="22.3" cx="318.86680898009064" cy="395.47516577679386" fill="#3182BD"><title>geolinkeddata</title></circle>
      <a class="bubble" href="https://lod-cloud.net/dataset/geolinkeddata" target="_blank">
          <text x="318.86680898009064" y="395.47516577679386">GeoLin...</text>
      </a>
    </g>
    <g id="25"
        onmouseover="mo(this)" onmouseout="mleave(this)">
      <circle class="node" r="15.0" cx="375.44005290735123" cy="137.98550381545581" fill="#3182BD"><title>statusnet-ldn-fai-net</title></circle>
      <a class="bubble" href="https://lod-cloud.net/dataset/statusnet-ldn-fai-net" target="_blank">
          <text x="375.44005290735123" y="137.98550381545581">status...</text>
      </a>
    </g>
    <g id="26"
        onmouseover="mo(this)" onmouseout="mleave(this)">
      <circle class="node" r="22.4" cx="481.46094357153765" cy="278.0854949409681" fill="#3182BD"><title>oceandrilling-janusamp</title></circle>
      <a class="bubble" href="https://lod-cloud.net/dataset/oceandrilling-janusamp" target="_blank">
          <text x="481.46094357153765" y="278.0854949409681">Ocean ...</text>
      </a>
    </g>
    <g id="27"
        onmouseover="mo(this)" onmouseout="mleave(this)">
      <circle class="node" r="15.0" cx="296.6769724451187" cy="450.32473810292987" fill="#3182BD"><title>eea-vocabularies</title></circle>
      <a class="bubble" href="https://lod-cloud.net/dataset/eea-vocabularies" target="_blank">
          <text x="296.6769724451187" y="450.32473810292987">EEA Vo...</text>
      </a>
    </g>
    <g id="28"
        onmouseover="mo(this)" onmouseout="mleave(this)">
      <circle class="node" r="15.0" cx="432.72481942882916" cy="130.26456923542662" fill="#3182BD"><title>eventseer</title></circle>
      <a class="bubble" href="https://lod-cloud.net/dataset/eventseer" target="_blank">
          <text x="432.72481942882916" y="130.26456923542662">Eventseer</text>
      </a>
    </g>
    <g id="29"
        onmouseover="mo(this)" onmouseout="mleave(this)">
      <circle class="node" r="15.0" cx="410.29195506114996" cy="184.5805040557637" fill="#3182BD"><title>knoesis-linked-sensor-data</title></circle>
      <a class="bubble" href="https://lod-cloud.net/dataset/knoesis-linked-sensor-data" target="_blank">
          <text x="410.29195506114996" y="184.5805040557637">Linked...</text>
      </a>
    </g>
    <g id="30"
        onmouseover="mo(this)" onmouseout="mleave(this)">
      <circle class="node" r="22.3" cx="239.60627040501853" cy="457.40341260398884" fill="#3182BD"><title>openmobilenetwork</title></circle>
      <a class="bubble" href="https://lod-cloud.net/dataset/openmobilenetwork" target="_blank">
          <text x="239.60627040501853" y="457.40341260398884">OpenMo...</text>
      </a>
    </g>
    <g id="31"
        onmouseover="mo(this)" onmouseout="mleave(this)">
      <circle class="node" r="19.2" cx="196.98289963064806" cy="495.1078832122387" fill="#3182BD"><title>linkedcrowdsourceddata</title></circle>
      <a class="bubble" href="https://lod-cloud.net/dataset/linkedcrowdsourceddata" target="_blank">
          <text x="196.98289963064806" y="495.1078832122387">Linked...</text>
      </a>
    </g>
    <g id="32"
        onmouseover="mo(this)" onmouseout="mleave(this)">
      <circle class="node" r="20.1" cx="102.19389508715466" cy="273.78101307635154" fill="#3182BD"><title>osm-semantic-network</title></circle>
      <a class="bubble" href="https://lod-cloud.net/dataset/osm-semantic-network" target="_blank">
          <text x="102.19389508715466" y="273.78101307635154">OSM Se...</text>
      </a>
    </g>
    <g id="33"
        onmouseover="mo(this)" onmouseout="mleave(this)">
      <circle class="node" r="19.6" cx="262.56779747118446" cy="403.8050302507106" fill="#3182BD"><title>geological-survey-of-austria-thesaurus</title></circle>
      <a class="bubble" href="https://lod-cloud.net/dataset/geological-survey-of-austria-thesaurus" target="_blank">
          <text x="262.56779747118446" y="403.8050302507106">Geolog...</text>
      </a>
    </g>
    <g id="34"
        onmouseover="mo(this)" onmouseout="mleave(this)">
      <circle class="node" r="21.7" cx="467.75442354219354" cy="177.04755075560288" fill="#3182BD"><title>riese</title></circle>
      <a class="bubble" href="https://lod-cloud.net/dataset/riese" target="_blank">
          <text x="467.75442354219354" y="177.04755075560288">RDFizi...</text>
      </a>
    </g>
    <g id="35"
        onmouseover="mo(this)" onmouseout="mleave(this)">
      <circle class="node" r="16.3" cx="205.31814042558165" cy="411.75408913361866" fill="#3182BD"><title>Earthquake_case</title></circle>
      <a class="bubble" href="https://lod-cloud.net/dataset/Earthquake_case" target="_blank">
          <text x="205.31814042558165" y="411.75408913361866">ESO</text>
      </a>
    </g>
    <g id="36"
        onmouseover="mo(this)" onmouseout="mleave(this)">
      <circle class="node" r="18.5" cx="152.8450020763787" cy="435.5106924861883" fill="#3182BD"><title>Earthquake</title></circle>
      <a class="bubble" href="https://lod-cloud.net/dataset/Earthquake" target="_blank">
          <text x="152.8450020763787" y="435.5106924861883">Emerge...</text>
      </a>
    </g>
    <g id="37"
        onmouseover="mo(this)" onmouseout="mleave(this)">
      <circle class="node" r="23.6" cx="172.6067607641114" cy="365.1611015145271" fill="#3182BD"><title>Smart_POI_dataset</title></circle>
      <a class="bubble" href="https://lod-cloud.net/dataset/Smart_POI_dataset" target="_blank">
          <text x="172.6067607641114" y="365.1611015145271">Smart ...</text>
      </a>
    </g>
    <g id="38"
        onmouseover="mo(this)" onmouseout="mleave(this)">
      <circle class="node" r="17.9" cx="136.83344688063963" cy="320.16200932081387" fill="#3182BD"><title>GTS-ont</title></circle>
      <a class="bubble" href="https://lod-cloud.net/dataset/GTS-ont" target="_blank">
          <text x="136.83344688063963" y="320.16200932081387">Geolog...</text>
      </a>
    </g>
    <g id="39"
        onmouseover="mo(this)" onmouseout="mleave(this)">
      <circle class="node" r="20.2" cx="364.81711582477675" cy="289.80754983471485" fill="#3182BD"><title>grrp</title></circle>
      <a class="bubble" href="https://lod-cloud.net/dataset/grrp" target="_blank">
          <text x="364.81711582477675" y="289.80754983471485">Accomm...</text>
      </a>
    </g>
    <g id="40"
        onmouseover="mo(this)" onmouseout="mleave(this)">
      <circle class="node" r="19.2" cx="194.40129845728094" cy="312.2679578707843" fill="#3182BD"><title>GTS</title></circle>
      <a class="bubble" href="https://lod-cloud.net/dataset/GTS" target="_blank">
          <text x="194.40129845728094" y="312.2679578707843">Geolog...</text>
      </a>
    </g>
    <g id="41"
        onmouseover="mo(this)" onmouseout="mleave(this)">
      <circle class="node" r="23.5" cx="160.2776236496693" cy="266.4345458344901" fill="#3182BD"><title>near</title></circle>
      <a class="bubble" href="https://lod-cloud.net/dataset/near" target="_blank">
          <text x="160.2776236496693" y="266.4345458344901">Near</text>
      </a>
    </g>
    <g id="42"
        onmouseover="mo(this)" onmouseout="mleave(this)">
      <circle class="node" r="19.9" cx="182.32166084903088" cy="213.41681627795344" fill="#3182BD"><title>los_metar</title></circle>
      <a class="bubble" href="https://lod-cloud.net/dataset/los_metar" target="_blank">
          <text x="182.32166084903088" y="213.41681627795344">Weathe...</text>
      </a>
    </g>
    <g id="43"
        onmouseover="mo(this)" onmouseout="mleave(this)">
      <circle class="node" r="20.2" cx="387.86953888989973" cy="237.5642393855294" fill="#3182BD"><title>Uganda-Disasters-rdf-data_</title></circle>
      <a class="bubble" href="https://lod-cloud.net/dataset/Uganda-Disasters-rdf-data_" target="_blank">
          <text x="387.86953888989973" y="237.5642393855294">Uganda...</text>
      </a>
    </g>
    <g id="44"
        onmouseover="mo(this)" onmouseout="mleave(this)">
      <circle class="node" r="22.4" cx="458.50837704264177" cy="331.4360249486285" fill="#3182BD"><title>oceandrilling-forams</title></circle>
      <a class="bubble" href="https://lod-cloud.net/dataset/oceandrilling-forams" target="_blank">
          <text x="458.50837704264177" y="331.4360249486285">Ocean ...</text>
      </a>
    </g>
    <g id="45"
        onmouseover="mo(this)" onmouseout="mleave(this)">
      <circle class="node" r="19.2" cx="251.49011144131603" cy="304.1046689820535" fill="#3182BD"><title>telegraphis</title></circle>
      <a class="bubble" href="https://lod-cloud.net/dataset/telegraphis" target="_blank">
          <text x="251.49011144131603" y="304.1046689820535">Telegr...</text>
      </a>
    </g>
    <g id="46"
        onmouseover="mo(this)" onmouseout="mleave(this)">
      <circle class="node" r="22.7" cx="273.74328020790205" cy="251.06988791542707" fill="#3182BD"><title>yahoo_geoplanet</title></circle>
      <a class="bubble" href="https://lod-cloud.net/dataset/yahoo_geoplanet" target="_blank">
          <text x="273.74328020790205" y="251.06988791542707">Yahoo ...</text>
      </a>
    </g>
    <g transform="translate(20,617) scale(0.9453781512605043)">
      <text style="font-family: Verdana, Arial;">The Geography Linked Open Data Cloud from lod-cloud.net</text>
    </g>
      <g transform="translate(480, 600)">
<svg
   xmlns:dc="http://purl.org/dc/elements/1.1/"
   xmlns:cc="http://web.resource.org/cc/"
   xmlns:rdf="http://www.w3.org/1999/02/22-rdf-syntax-ns#"
   xmlns:svg="http://www.w3.org/2000/svg"
   xmlns="http://www.w3.org/2000/svg"
   xmlns:sodipodi="http://sodipodi.sourceforge.net/DTD/sodipodi-0.dtd"
   xmlns:inkscape="http://www.inkscape.org/namespaces/inkscape"
   width="120"
   height="42"
   id="svg2759"
   sodipodi:version="0.32"
   inkscape:version="0.45+devel"
   version="1.0"
   sodipodi:docname="by.svg"
   inkscape:output_extension="org.inkscape.output.svg.inkscape">
  <defs
     id="defs2761" />
  <sodipodi:namedview
     id="base"
     pagecolor="#ffffff"
     bordercolor="#8b8b8b"
     borderopacity="1"
     gridtolerance="10000"
     guidetolerance="10"
     objecttolerance="10"
     inkscape:pageopacity="0.0"
     inkscape:pageshadow="2"
     inkscape:zoom="1"
     inkscape:cx="179"
     inkscape:cy="89.569904"
     inkscape:document-units="px"
     inkscape:current-layer="layer1"
     width="120px"
     height="42px"
     inkscape:showpageshadow="false"
     inkscape:window-width="1198"
     inkscape:window-height="624"
     inkscape:window-x="396"
     inkscape:window-y="242" />
  <metadata
     id="metadata2764">
    <rdf:RDF>
      <cc:Work
         rdf:about="">
        <dc:format>image/svg+xml</dc:format>
        <dc:type
           rdf:resource="http://purl.org/dc/dcmitype/StillImage" />
      </cc:Work>
    </rdf:RDF>
  </metadata>
  <g
     inkscape:label="Layer 1"
     inkscape:groupmode="layer"
     id="layer1">
    <g
       transform="matrix(0.9937728,0,0,0.9936696,-177.69267,6.25128e-7)"
       id="g260"
       inkscape:export-filename="/mnt/hgfs/Bov/Documents/Work/2007/cc/identity/srr buttons/big/by.png"
       inkscape:export-xdpi="300.23013"
       inkscape:export-ydpi="300.23013">
	<path
   id="path3817_1_"
   nodetypes="ccccccc"
   d="M 181.96579,0.51074 L 296.02975,0.71338 C 297.6235,0.71338 299.04733,0.47705 299.04733,3.89404 L 298.90768,41.46093 L 179.08737,41.46093 L 179.08737,3.75439 C 179.08737,2.06934 179.25046,0.51074 181.96579,0.51074 z"
   style="fill:#aab2ab" />

	<path
   d="M 297.29636,0 L 181.06736,0 C 179.82078,0 178.80613,1.01416 178.80613,2.26074 L 178.80613,41.75732 C 178.80613,42.03906 179.03513,42.26757 179.31687,42.26757 L 299.04734,42.26757 C 299.32908,42.26757 299.55808,42.03905 299.55808,41.75732 L 299.55808,2.26074 C 299.55807,1.01416 298.54343,0 297.29636,0 z M 181.06735,1.02148 L 297.29635,1.02148 C 297.98043,1.02148 298.53658,1.57714 298.53658,2.26074 C 298.53658,2.26074 298.53658,18.20898 298.53658,29.71045 L 215.19234,29.71045 C 212.14742,35.21631 206.28121,38.95459 199.54879,38.95459 C 192.81344,38.95459 186.94869,35.21973 183.90524,29.71045 L 179.8276,29.71045 C 179.8276,18.20899 179.8276,2.26074 179.8276,2.26074 C 179.82761,1.57715 180.38376,1.02148 181.06735,1.02148 z"
   id="path263" />

	<g
   enable-background="new    "
   id="g265">
		<path
   d="M 253.07761,32.95605 C 253.39499,32.95605 253.68503,32.98437 253.94773,33.04003 C 254.20945,33.09569 254.43308,33.18749 254.62058,33.31542 C 254.8071,33.44237 254.95261,33.6123 255.05515,33.82323 C 255.15769,34.03514 255.20945,34.29589 255.20945,34.60741 C 255.20945,34.94335 255.13328,35.22264 254.97996,35.44628 C 254.82762,35.67089 254.60105,35.85351 254.30223,35.99706 C 254.71434,36.11522 255.02196,36.32226 255.22508,36.61815 C 255.4282,36.91404 255.52977,37.27049 255.52977,37.68749 C 255.52977,38.02343 255.46434,38.31444 255.33348,38.56054 C 255.20262,38.80566 255.02586,39.00683 254.80516,39.1621 C 254.58348,39.31835 254.33055,39.43358 254.04735,39.5078 C 253.76317,39.583 253.47215,39.6201 253.17235,39.6201 L 249.936,39.6201 L 249.936,32.95604 L 253.07761,32.95604 L 253.07761,32.95605 z M 252.89011,35.65137 C 253.15183,35.65137 253.36667,35.58887 253.53562,35.46485 C 253.70359,35.34083 253.78757,35.13965 253.78757,34.86036 C 253.78757,34.70509 253.75925,34.57716 253.70359,34.47852 C 253.64695,34.37891 253.57273,34.30176 253.47898,34.24512 C 253.38523,34.18946 253.27781,34.15039 253.15671,34.12891 C 253.03561,34.10743 252.90866,34.09668 252.77878,34.09668 L 251.40476,34.09668 L 251.40476,35.65137 L 252.89011,35.65137 z M 252.97604,38.47949 C 253.11959,38.47949 253.25631,38.46582 253.38717,38.4375 C 253.51803,38.40918 253.63326,38.3623 253.73385,38.29785 C 253.83346,38.23242 253.91256,38.14355 253.97213,38.03125 C 254.0317,37.91992 254.061,37.77637 254.061,37.60254 C 254.061,37.26074 253.96432,37.0166 253.77096,36.87012 C 253.5776,36.72461 253.32174,36.65137 253.00436,36.65137 L 251.40475,36.65137 L 251.40475,38.47949 L 252.97604,38.47949 z"
   id="path267"
   style="fill:#ffffff" />

		<path
   d="M 255.78854,32.95605 L 257.43209,32.95605 L 258.99264,35.58789 L 260.54342,32.95605 L 262.17721,32.95605 L 259.70358,37.0625 L 259.70358,39.62012 L 258.23483,39.62012 L 258.23483,37.02539 L 255.78854,32.95605 z"
   id="path269"
   style="fill:#ffffff" />

	</g>

	<g
   id="g5908_1_"
   transform="matrix(0.872921,0,0,0.872921,50.12536,143.2144)">
		
			<path
   id="path5906_1_"
   cx="296.35416"
   ry="22.939548"
   cy="264.3577"
   type="arc"
   rx="22.939548"
   d="M 186.90065,-141.46002 C 186.90623,-132.77923 179.87279,-125.73852 171.19257,-125.73291 C 162.51235,-125.72736 155.47051,-132.76025 155.46547,-141.44098 C 155.46547,-141.44714 155.46547,-141.45331 155.46547,-141.46002 C 155.46043,-150.14081 162.49333,-157.18152 171.17355,-157.18658 C 179.8549,-157.19213 186.89561,-150.15924 186.90065,-141.47845 C 186.90065,-141.4729 186.90065,-141.46619 186.90065,-141.46002 z"
   style="fill:#ffffff" />

		<g
   id="g5706_1_"
   transform="translate(-289.6157,99.0653)">
			<path
   id="path5708_1_"
   d="M 473.57574,-253.32751 C 477.06115,-249.8421 478.80413,-245.5736 478.80413,-240.52532 C 478.80413,-235.47594 477.09136,-231.25329 473.66582,-227.85741 C 470.03051,-224.28081 465.734,-222.49309 460.77635,-222.49309 C 455.87858,-222.49309 451.65648,-224.26628 448.11122,-227.81261 C 444.56541,-231.35845 442.79277,-235.59563 442.79277,-240.52532 C 442.79277,-245.45391 444.56541,-249.7213 448.11122,-253.32751 C 451.56642,-256.81402 455.7885,-258.557 460.77635,-258.557 C 465.82465,-258.55701 470.09039,-256.81403 473.57574,-253.32751 z M 450.45776,-250.98267 C 447.51104,-248.00629 446.03823,-244.51978 446.03823,-240.52033 C 446.03823,-236.52198 447.49651,-233.06507 450.41247,-230.14966 C 453.32897,-227.23316 456.80096,-225.77545 460.82952,-225.77545 C 464.85808,-225.77545 468.35967,-227.24768 471.33605,-230.19385 C 474.16198,-232.9303 475.57549,-236.37091 475.57549,-240.52033 C 475.57549,-244.63837 474.13903,-248.13379 471.26781,-251.00501 C 468.39714,-253.87568 464.9179,-255.31159 460.82952,-255.31159 C 456.74112,-255.31158 453.28314,-253.86841 450.45776,-250.98267 z M 458.21225,-242.27948 C 457.76196,-243.26117 457.08795,-243.75232 456.18903,-243.75232 C 454.59986,-243.75232 453.80558,-242.68225 453.80558,-240.54321 C 453.80558,-238.40368 454.59986,-237.33471 456.18903,-237.33471 C 457.23841,-237.33471 457.98795,-237.85546 458.43769,-238.89922 L 460.64045,-237.72625 C 459.59052,-235.86077 458.01536,-234.92779 455.91496,-234.92779 C 454.29506,-234.92779 452.99733,-235.42449 452.0229,-236.4168 C 451.0468,-237.41021 450.56016,-238.77953 450.56016,-240.52532 C 450.56016,-242.24035 451.06245,-243.60186 452.06764,-244.61034 C 453.07283,-245.61888 454.32466,-246.12291 455.82545,-246.12291 C 458.04557,-246.12291 459.63526,-245.24803 460.59626,-243.50005 L 458.21225,-242.27948 z M 468.57562,-242.27948 C 468.12475,-243.26117 467.46417,-243.75232 466.5932,-243.75232 C 464.97217,-243.75232 464.16107,-242.68225 464.16107,-240.54321 C 464.16107,-238.40368 464.97217,-237.33471 466.5932,-237.33471 C 467.64429,-237.33471 468.38037,-237.85546 468.80048,-238.89922 L 471.05249,-237.72625 C 470.00421,-235.86077 468.43127,-234.92779 466.33478,-234.92779 C 464.7171,-234.92779 463.42218,-235.42449 462.44831,-236.4168 C 461.47614,-237.41021 460.98896,-238.77953 460.98896,-240.52532 C 460.98896,-242.24035 461.48341,-243.60186 462.47181,-244.61034 C 463.45966,-245.61888 464.71711,-246.12291 466.24531,-246.12291 C 468.4615,-246.12291 470.04896,-245.24803 471.0066,-243.50005 L 468.57562,-242.27948 z" />

		</g>

	</g>

	<g
   id="g275">
		<circle
   cx="255.55124"
   cy="15.31348"
   r="10.80664"
   id="circle277"
   sodipodi:cx="255.55124"
   sodipodi:cy="15.31348"
   sodipodi:rx="10.80664"
   sodipodi:ry="10.80664"
   style="fill:#ffffff" />

		<g
   id="g279">
			<path
   d="M 258.67819,12.18701 C 258.67819,11.77051 258.3403,11.4331 257.92526,11.4331 L 253.15182,11.4331 C 252.73678,11.4331 252.39889,11.7705 252.39889,12.18701 L 252.39889,16.95996 L 253.72994,16.95996 L 253.72994,22.61182 L 257.34713,22.61182 L 257.34713,16.95996 L 258.67818,16.95996 L 258.67818,12.18701 L 258.67819,12.18701 z"
   id="path281" />

			<circle
   cx="255.53854"
   cy="9.1723604"
   r="1.63281"
   id="circle283"
   sodipodi:cx="255.53854"
   sodipodi:cy="9.1723604"
   sodipodi:rx="1.63281"
   sodipodi:ry="1.63281" />

		</g>

		<path
   clip-rule="evenodd"
   d="M 255.5239,3.40723 C 252.29148,3.40723 249.55515,4.53516 247.31589,6.79102 C 245.01804,9.12452 243.8696,11.88672 243.8696,15.07569 C 243.8696,18.26466 245.01804,21.00733 247.31589,23.30225 C 249.61374,25.59668 252.35007,26.74414 255.5239,26.74414 C 258.73679,26.74414 261.52195,25.58789 263.87742,23.27295 C 266.09715,21.07568 267.2075,18.34326 267.2075,15.07568 C 267.2075,11.8081 266.07762,9.04687 263.8198,6.79101 C 261.56003,4.53516 258.79538,3.40723 255.5239,3.40723 z M 255.55319,5.50684 C 258.20163,5.50684 260.45065,6.44092 262.30026,8.30811 C 264.1694,10.15528 265.10397,12.41114 265.10397,15.07569 C 265.10397,17.75928 264.18893,19.98633 262.35885,21.75587 C 260.43014,23.66212 258.16256,24.61476 255.55319,24.61476 C 252.94284,24.61476 250.69381,23.67189 248.80612,21.78517 C 246.91647,19.89845 245.97311,17.66212 245.97311,15.0757 C 245.97311,12.48879 246.92721,10.23341 248.83541,8.30812 C 250.6655,6.44092 252.90475,5.50684 255.55319,5.50684 z"
   id="path285"
   style="fill-rule:evenodd" />

	</g>

</g>
  </g>
</svg>

      </g>
  </g>
</svg>
