<svg
    xmlns="http://www.w3.org/2000/svg" width="600" height="642">
<script type="text/javascript"><![CDATA[
function mo(elem) {    
    var  line =document.getElementsByTagName("line")
 
  elem.setAttribute("class","circle-active");
    for(i = 0; i < line.length; i++) {                                          
                                                                                
        if(line[i].getAttributeNode("targetId").value === elem.id) {            
            line[i].setAttribute("class","link-activeIncoming");
            document.getElementById(line[i].getAttributeNode("sourceId").value).setAttribute("class","circle-active");

        } 
        if(line[i].getAttributeNode("sourceId").value === elem.id) {            
            line[i].setAttribute("class","link-activeOutgoung");
            document.getElementById(line[i].getAttributeNode("targetId").value).setAttribute("class","circle-active");

        }
        if((line[i].getAttributeNode("targetId").value === elem.id)&&(line[i].getAttributeNode("sourceId").value === elem.id)) {            
            line[i].setAttribute("class","link-activeBoth");
             document.getElementById(line[i].getAttributeNode("targetId").value).setAttribute("class","circle-active");
             document.getElementById(line[i].getAttributeNode("sourceId").value).setAttribute("class","circle-active");
        }                                                                              
    }                                                                           
}

function mleave(elem) {                   
    elem.setAttribute("class","circle-pasive");                                      
    var line = document.getElementsByTagName("line");                           
    for(i = 0; i < line.length; i++) {                                          
                                                                                
        if(line[i].getAttributeNode("targetId").value === elem.id) {     
        document.getElementById(line[i].getAttributeNode("sourceId").value).setAttribute("class","circle-pasive");       
            line[i].setAttribute("class","link");       
        }
        if(line[i].getAttributeNode("sourceId").value === elem.id) {            
            document.getElementById(line[i].getAttributeNode("targetId").value).setAttribute("class","circle-pasive");
            line[i].setAttribute("class","link");       
        }                                                                          
    }                                                                           
}
]]></script>
  <style>
    circle { 
        stroke: #333;
        stroke-width: 1.5px;
        fill-opacity: 0.8; 
    } 
    .bubble text {
        text-anchor: middle;
        font-size: .5em;
    }
    .circle-active circle { 
        stroke: #e80000;  
        stroke-width: 3px; 
    } 
    .link { 
        stroke: #e0270b;  
        stroke: #555;  
        stroke-opacity: 0.7;  
        stroke-width: 1px;  
        stroke-dasharray:none;
    } 
    .link-activeIncoming {  
        stroke-opacity: 1; 
        stroke-width: 10;  
        stroke: #be1b38; 
    } 
    .link-activeOutgoung {  
        stroke-opacity: 1;  
        stroke-width: 10; 
        stroke: #1AC21D;  
    } 
    .link-activeBoth {  
        stroke-opacity: 1;  
        stroke: #1AC21D;  
        stroke-width: 10;  
        stroke-dasharray:5,10,5;}
  </style>
  <g transform="scale(0.5)">
    <g id="legend">
      <text transform="translate(30,30)" style="font-family:Verdana, Arial, DejaVu Sans;font-size:200%;text-decoration:underline;">Legend</text>
      <rect width="310" height="35" style="fill:#63b3de" transform="translate(30,45)"/>
      <text transform="translate(35,72)" style="font-family:Verdana, Arial;font-size:200%">Music</text>
      <rect width="310" height="35" style="fill:#31A354" transform="translate(30,85)"/>
      <text transform="translate(35,112)" style="font-family:Verdana, Arial;font-size:200%">Other Media</text>
    </g>
  </g>
  <g class="links">
    <line class="link" targetId="0" sourceId="1" x1="331.8058141094296" y1="168.2656315087187" x2="268.5106225127784" y2="262.284072055891"/>
    <line class="link" targetId="0" sourceId="2" x1="331.8058141094296" y1="168.2656315087187" x2="236.6659834395766" y2="308.68212446170463"/>
    <line class="link" targetId="0" sourceId="3" x1="331.8058141094296" y1="168.2656315087187" x2="293.69189220516864" y2="313.2777719794658"/>
    <line class="link" targetId="4" sourceId="3" x1="389.82532312141024" y1="170.389653052059" x2="293.69189220516864" y2="313.2777719794658"/>
    <line class="link" targetId="5" sourceId="6" x1="307.37051496679703" y1="115.8061308036483" x2="325.123069628421" y2="266.65107226112644"/>
    <line class="link" targetId="7" sourceId="3" x1="357.4941894476611" y1="219.32861240207853" x2="293.69189220516864" y2="313.2777719794658"/>
    <line class="link" targetId="8" sourceId="1" x1="414.693496589244" y1="222.87170108571033" x2="268.5106225127784" y2="262.284072055891"/>
    <line class="link" targetId="8" sourceId="3" x1="414.693496589244" y1="222.87170108571033" x2="293.69189220516864" y2="313.2777719794658"/>
    <line class="link" targetId="9" sourceId="1" x1="406.99360504717293" y1="322.35017050815964" x2="268.5106225127784" y2="262.284072055891"/>
    <line class="link" targetId="9" sourceId="3" x1="406.99360504717293" y1="322.35017050815964" x2="293.69189220516864" y2="313.2777719794658"/>
    <line class="link" targetId="3" sourceId="10" x1="293.69189220516864" y1="313.2777719794658" x2="261.7826797399698" y2="359.3500636910599"/>
    <line class="link" targetId="3" sourceId="6" x1="293.69189220516864" y1="313.2777719794658" x2="325.123069628421" y2="266.65107226112644"/>
    <line class="link" targetId="3" sourceId="11" x1="293.69189220516864" y1="313.2777719794658" x2="374.83954320175127" y2="369.38113196510295"/>
    <line class="link" targetId="12" sourceId="3" x1="440.47419841129437" y1="274.6185678402246" x2="293.69189220516864" y2="313.2777719794658"/>
    <line class="link" targetId="13" sourceId="9" x1="464.05559074673477" y1="327.608293592883" x2="406.99360504717293" y2="322.35017050815964"/>
    <line class="link" targetId="13" sourceId="3" x1="464.05559074673477" y1="327.608293592883" x2="293.69189220516864" y2="313.2777719794658"/>
    <line class="link" targetId="14" sourceId="15" x1="350.20243215368725" y1="317.8557869274736" x2="205.4235925293521" y2="356.4863482654241"/>
    <line class="link" targetId="16" sourceId="9" x1="318.3521460587576" y1="364.95073430115576" x2="406.99360504717293" y2="322.35017050815964"/>
    <line class="link" targetId="16" sourceId="3" x1="318.3521460587576" y1="364.95073430115576" x2="293.69189220516864" y2="313.2777719794658"/>
    <line class="link" targetId="17" sourceId="15" x1="382.4885189156678" y1="270.7019994904173" x2="205.4235925293521" y2="356.4863482654241"/>
    <line class="link" targetId="18" sourceId="3" x1="431.5142278133619" y1="375.60741484239287" x2="293.69189220516864" y2="313.2777719794658"/>
    <line class="link" targetId="18" sourceId="11" x1="431.5142278133619" y1="375.60741484239287" x2="374.83954320175127" y2="369.38113196510295"/>
    <line class="link" targetId="11" sourceId="3" x1="374.83954320175127" y1="369.38113196510295" x2="293.69189220516864" y2="313.2777719794658"/>
    <line class="link" targetId="19" sourceId="3" x1="400.5611428709899" y1="424.67382873875835" x2="293.69189220516864" y2="313.2777719794658"/>
    <line class="link" targetId="20" sourceId="3" x1="343.4607912563696" y1="417.3989728519843" x2="293.69189220516864" y2="313.2777719794658"/>
    <line class="link" targetId="10" sourceId="3" x1="261.7826797399698" y1="359.3500636910599" x2="293.69189220516864" y2="313.2777719794658"/>
    <line class="link" targetId="21" sourceId="3" x1="311.5717358805247" y1="465.61838236028177" x2="293.69189220516864" y2="313.2777719794658"/>
    <line class="link" targetId="22" sourceId="3" x1="286.45302464075183" y1="412.49676042286484" x2="293.69189220516864" y2="313.2777719794658"/>
    <line class="link" targetId="23" sourceId="3" x1="229.69388219034394" y1="408.31437945217726" x2="293.69189220516864" y2="313.2777719794658"/>
    <line class="link" targetId="24" sourceId="3" x1="253.30721211617742" y1="461.0675675986315" x2="293.69189220516864" y2="313.2777719794658"/>
    <line class="link" targetId="25" sourceId="26" x1="172.51914964539515" y1="404.65412049767303" x2="211.0527602919546" y2="258.2353999790039"/>
    <line class="link" targetId="25" sourceId="3" x1="172.51914964539515" y1="404.65412049767303" x2="293.69189220516864" y2="313.2777719794658"/>
    <line class="link" targetId="27" sourceId="1" x1="148.67926916891153" y1="352.5771048263394" x2="268.5106225127784" y2="262.284072055891"/>
    <line class="link" targetId="27" sourceId="3" x1="148.67926916891153" y1="352.5771048263394" x2="293.69189220516864" y2="313.2777719794658"/>
    <line class="link" targetId="27" sourceId="28" x1="148.67926916891153" y1="352.5771048263394" x2="186.464452515799" y2="206.57165942591948"/>
    <line class="link" targetId="29" sourceId="3" x1="91.55869267616626" y1="350.7720736311865" x2="293.69189220516864" y2="313.2777719794658"/>
    <line class="link" targetId="29" sourceId="6" x1="91.55869267616626" y1="350.7720736311865" x2="325.123069628421" y2="266.65107226112644"/>
    <line class="link" targetId="28" sourceId="1" x1="186.464452515799" y1="206.57165942591948" x2="268.5106225127784" y2="262.284072055891"/>
    <line class="link" targetId="28" sourceId="10" x1="186.464452515799" y1="206.57165942591948" x2="261.7826797399698" y2="359.3500636910599"/>
    <line class="link" targetId="30" sourceId="2" x1="122.18327334663482" y1="301.5188353094689" x2="236.6659834395766" y2="308.68212446170463"/>
    <line class="link" targetId="30" sourceId="10" x1="122.18327334663482" y1="301.5188353094689" x2="261.7826797399698" y2="359.3500636910599"/>
    <line class="link" targetId="31" sourceId="3" x1="179.63683638793734" y1="305.1668070926796" x2="293.69189220516864" y2="313.2777719794658"/>
    <line class="link" targetId="2" sourceId="1" x1="236.6659834395766" y1="308.68212446170463" x2="268.5106225127784" y2="262.284072055891"/>
    <line class="link" targetId="2" sourceId="3" x1="236.6659834395766" y1="308.68212446170463" x2="293.69189220516864" y2="313.2777719794658"/>
    <line class="link" targetId="32" sourceId="3" x1="153.48997463991688" y1="253.54684927074038" x2="293.69189220516864" y2="313.2777719794658"/>
    <line class="link" targetId="33" sourceId="3" x1="128.60904385666728" y1="200.95339198248473" x2="293.69189220516864" y2="313.2777719794658"/>
    <line class="link" targetId="26" sourceId="3" x1="211.0527602919546" y1="258.2353999790039" x2="293.69189220516864" y2="313.2777719794658"/>
    <line class="link" targetId="1" sourceId="3" x1="268.5106225127784" y1="262.284072055891" x2="293.69189220516864" y2="313.2777719794658"/>
    <line class="link" targetId="34" sourceId="1" x1="243.30904503438165" y1="211.70260676686482" x2="268.5106225127784" y2="262.284072055891"/>
    <line class="link" targetId="34" sourceId="3" x1="243.30904503438165" y1="211.70260676686482" x2="293.69189220516864" y2="313.2777719794658"/>
    <line class="link" targetId="34" sourceId="10" x1="243.30904503438165" y1="211.70260676686482" x2="261.7826797399698" y2="359.3500636910599"/>
    <line class="link" targetId="35" sourceId="3" x1="274.4060848414399" y1="164.26602782395608" x2="293.69189220516864" y2="313.2777719794658"/>
    <line class="link" targetId="35" sourceId="10" x1="274.4060848414399" y1="164.26602782395608" x2="261.7826797399698" y2="359.3500636910599"/>
    <line class="link" targetId="35" sourceId="11" x1="274.4060848414399" y1="164.26602782395608" x2="374.83954320175127" y2="369.38113196510295"/>
    <line class="link" targetId="36" sourceId="3" x1="300.3306785659345" y1="215.4662618164704" x2="293.69189220516864" y2="313.2777719794658"/>
    <line class="link" targetId="6" sourceId="3" x1="325.123069628421" y1="266.65107226112644" x2="293.69189220516864" y2="313.2777719794658"/>
    <line class="link" targetId="6" sourceId="10" x1="325.123069628421" y1="266.65107226112644" x2="261.7826797399698" y2="359.3500636910599"/>
  </g>
  <g class="nodes">
    <g id="0"
        onmouseover="mo(this)" onmouseout="mleave(this)">
      <circle class="node" r="18.1" cx="331.8058141094296" cy="168.2656315087187" fill="#63b3de"><title>data-incubator-moseley</title></circle>
      <a class="bubble" href="https://lod-cloud.net/dataset/data-incubator-moseley" target="_blank">
          <text x="331.8058141094296" y="168.2656315087187">Mosele...</text>
      </a>
    </g>
    <g id="1"
        onmouseover="mo(this)" onmouseout="mleave(this)">
      <circle class="node" r="22.3" cx="268.5106225127784" cy="262.284072055891" fill="#63b3de"><title>bbc-music</title></circle>
      <a class="bubble" href="https://lod-cloud.net/dataset/bbc-music" target="_blank">
          <text x="268.5106225127784" y="262.284072055891">BBC Music</text>
      </a>
    </g>
    <g id="2"
        onmouseover="mo(this)" onmouseout="mleave(this)">
      <circle class="node" r="23.3" cx="236.6659834395766" cy="308.68212446170463" fill="#63b3de"><title>data-incubator-discogs</title></circle>
      <a class="bubble" href="https://lod-cloud.net/dataset/data-incubator-discogs" target="_blank">
          <text x="236.6659834395766" y="308.68212446170463">Discog...</text>
      </a>
    </g>
    <g id="3"
        onmouseover="mo(this)" onmouseout="mleave(this)">
      <circle class="node" r="25.0" cx="293.69189220516864" cy="313.2777719794658" fill="#31A354"><title>dbpedia</title></circle>
      <a class="bubble" href="https://lod-cloud.net/dataset/dbpedia" target="_blank">
          <text x="293.69189220516864" y="313.2777719794658">DBpedia</text>
      </a>
    </g>
    <g id="4"
        onmouseover="mo(this)" onmouseout="mleave(this)">
      <circle class="node" r="21.4" cx="389.82532312141024" cy="170.389653052059" fill="#31A354"><title>ontos-news-portal</title></circle>
      <a class="bubble" href="https://lod-cloud.net/dataset/ontos-news-portal" target="_blank">
          <text x="389.82532312141024" y="170.389653052059">Ontos ...</text>
      </a>
    </g>
    <g id="5"
        onmouseover="mo(this)" onmouseout="mleave(this)">
      <circle class="node" r="20.4" cx="307.37051496679703" cy="115.8061308036483" fill="#31A354"><title>linked-user-feedback</title></circle>
      <a class="bubble" href="https://lod-cloud.net/dataset/linked-user-feedback" target="_blank">
          <text x="307.37051496679703" y="115.8061308036483">Linked...</text>
      </a>
    </g>
    <g id="6"
        onmouseover="mo(this)" onmouseout="mleave(this)">
      <circle class="node" r="21.8" cx="325.123069628421" cy="266.65107226112644" fill="#31A354"><title>linkedmdb</title></circle>
      <a class="bubble" href="https://lod-cloud.net/dataset/linkedmdb" target="_blank">
          <text x="325.123069628421" y="266.65107226112644">Linked...</text>
      </a>
    </g>
    <g id="7"
        onmouseover="mo(this)" onmouseout="mleave(this)">
      <circle class="node" r="19.5" cx="357.4941894476611" cy="219.32861240207853" fill="#31A354"><title>salzburgerland-com-de</title></circle>
      <a class="bubble" href="https://lod-cloud.net/dataset/salzburgerland-com-de" target="_blank">
          <text x="357.4941894476611" y="219.32861240207853">Salzbu...</text>
      </a>
    </g>
    <g id="8"
        onmouseover="mo(this)" onmouseout="mleave(this)">
      <circle class="node" r="20.3" cx="414.693496589244" cy="222.87170108571033" fill="#63b3de"><title>surge-radio</title></circle>
      <a class="bubble" href="https://lod-cloud.net/dataset/surge-radio" target="_blank">
          <text x="414.693496589244" y="222.87170108571033">Surge ...</text>
      </a>
    </g>
    <g id="9"
        onmouseover="mo(this)" onmouseout="mleave(this)">
      <circle class="node" r="22.8" cx="406.99360504717293" cy="322.35017050815964" fill="#31A354"><title>bbc-programmes</title></circle>
      <a class="bubble" href="https://lod-cloud.net/dataset/bbc-programmes" target="_blank">
          <text x="406.99360504717293" y="322.35017050815964">BBC Pr...</text>
      </a>
    </g>
    <g id="10"
        onmouseover="mo(this)" onmouseout="mleave(this)">
      <circle class="node" r="22.6" cx="261.7826797399698" cy="359.3500636910599" fill="#63b3de"><title>dbtune-musicbrainz</title></circle>
      <a class="bubble" href="https://lod-cloud.net/dataset/dbtune-musicbrainz" target="_blank">
          <text x="261.7826797399698" y="359.3500636910599">DBTune...</text>
      </a>
    </g>
    <g id="11"
        onmouseover="mo(this)" onmouseout="mleave(this)">
      <circle class="node" r="20.5" cx="374.83954320175127" cy="369.38113196510295" fill="#31A354"><title>nytimes-linked-open-data</title></circle>
      <a class="bubble" href="https://lod-cloud.net/dataset/nytimes-linked-open-data" target="_blank">
          <text x="374.83954320175127" y="369.38113196510295">New Yo...</text>
      </a>
    </g>
    <g id="12"
        onmouseover="mo(this)" onmouseout="mleave(this)">
      <circle class="node" r="21.5" cx="440.47419841129437" cy="274.6185678402246" fill="#31A354"><title>bricklink</title></circle>
      <a class="bubble" href="https://lod-cloud.net/dataset/bricklink" target="_blank">
          <text x="440.47419841129437" y="274.6185678402246">Bricklink</text>
      </a>
    </g>
    <g id="13"
        onmouseover="mo(this)" onmouseout="mleave(this)">
      <circle class="node" r="19.5" cx="464.05559074673477" cy="327.608293592883" fill="#31A354"><title>eutc-productions</title></circle>
      <a class="bubble" href="https://lod-cloud.net/dataset/eutc-productions" target="_blank">
          <text x="464.05559074673477" y="327.608293592883">Edinbu...</text>
      </a>
    </g>
    <g id="14"
        onmouseover="mo(this)" onmouseout="mleave(this)">
      <circle class="node" r="23.8" cx="350.20243215368725" cy="317.8557869274736" fill="#63b3de"><title>dbtune-audioscrobbler</title></circle>
      <a class="bubble" href="https://lod-cloud.net/dataset/dbtune-audioscrobbler" target="_blank">
          <text x="350.20243215368725" y="317.8557869274736">DBTune...</text>
      </a>
    </g>
    <g id="15"
        onmouseover="mo(this)" onmouseout="mleave(this)">
      <circle class="node" r="22.8" cx="205.4235925293521" cy="356.4863482654241" fill="#63b3de"><title>zitgist-musicbrainz</title></circle>
      <a class="bubble" href="https://lod-cloud.net/dataset/zitgist-musicbrainz" target="_blank">
          <text x="205.4235925293521" y="356.4863482654241">MusicB...</text>
      </a>
    </g>
    <g id="16"
        onmouseover="mo(this)" onmouseout="mleave(this)">
      <circle class="node" r="19.4" cx="318.3521460587576" cy="364.95073430115576" fill="#31A354"><title>bbc-wildlife-finder</title></circle>
      <a class="bubble" href="https://lod-cloud.net/dataset/bbc-wildlife-finder" target="_blank">
          <text x="318.3521460587576" y="364.95073430115576">BBC Wi...</text>
      </a>
    </g>
    <g id="17"
        onmouseover="mo(this)" onmouseout="mleave(this)">
      <circle class="node" r="21.0" cx="382.4885189156678" cy="270.7019994904173" fill="#63b3de"><title>jamendo-dbtune</title></circle>
      <a class="bubble" href="https://lod-cloud.net/dataset/jamendo-dbtune" target="_blank">
          <text x="382.4885189156678" y="270.7019994904173">DBTune...</text>
      </a>
    </g>
    <g id="18"
        onmouseover="mo(this)" onmouseout="mleave(this)">
      <circle class="node" r="20.5" cx="431.5142278133619" cy="375.60741484239287" fill="#31A354"><title>edublogs</title></circle>
      <a class="bubble" href="https://lod-cloud.net/dataset/edublogs" target="_blank">
          <text x="431.5142278133619" y="375.60741484239287">Edublogs</text>
      </a>
    </g>
    <g id="19"
        onmouseover="mo(this)" onmouseout="mleave(this)">
      <circle class="node" r="21.0" cx="400.5611428709899" cy="424.67382873875835" fill="#31A354"><title>gemeenschappelijke-thesaurus-audiovisuele-archieven</title></circle>
      <a class="bubble" href="https://lod-cloud.net/dataset/gemeenschappelijke-thesaurus-audiovisuele-archieven" target="_blank">
          <text x="400.5611428709899" y="424.67382873875835">Gemeen...</text>
      </a>
    </g>
    <g id="20"
        onmouseover="mo(this)" onmouseout="mleave(this)">
      <circle class="node" r="20.4" cx="343.4607912563696" cy="417.3989728519843" fill="#31A354"><title>dbtune-john-peel-sessions</title></circle>
      <a class="bubble" href="https://lod-cloud.net/dataset/dbtune-john-peel-sessions" target="_blank">
          <text x="343.4607912563696" y="417.3989728519843">DBTune...</text>
      </a>
    </g>
    <g id="21"
        onmouseover="mo(this)" onmouseout="mleave(this)">
      <circle class="node" r="22.3" cx="311.5717358805247" cy="465.61838236028177" fill="#31A354"><title>chronicling-america</title></circle>
      <a class="bubble" href="https://lod-cloud.net/dataset/chronicling-america" target="_blank">
          <text x="311.5717358805247" y="465.61838236028177">Chroni...</text>
      </a>
    </g>
    <g id="22"
        onmouseover="mo(this)" onmouseout="mleave(this)">
      <circle class="node" r="19.3" cx="286.45302464075183" cy="412.49676042286484" fill="#31A354"><title>salzburgerland-com-en</title></circle>
      <a class="bubble" href="https://lod-cloud.net/dataset/salzburgerland-com-en" target="_blank">
          <text x="286.45302464075183" y="412.49676042286484">Salzbu...</text>
      </a>
    </g>
    <g id="23"
        onmouseover="mo(this)" onmouseout="mleave(this)">
      <circle class="node" r="19.5" cx="229.69388219034394" cy="408.31437945217726" fill="#31A354"><title>ASCDC-CTS-TV-Programs</title></circle>
      <a class="bubble" href="https://lod-cloud.net/dataset/ASCDC-CTS-TV-Programs" target="_blank">
          <text x="229.69388219034394" y="408.31437945217726">The Ch...</text>
      </a>
    </g>
    <g id="24"
        onmouseover="mo(this)" onmouseout="mleave(this)">
      <circle class="node" r="23.3" cx="253.30721211617742" cy="461.0675675986315" fill="#63b3de"><title>wasabi</title></circle>
      <a class="bubble" href="https://lod-cloud.net/dataset/wasabi" target="_blank">
          <text x="253.30721211617742" y="461.0675675986315">WASABI...</text>
      </a>
    </g>
    <g id="25"
        onmouseover="mo(this)" onmouseout="mleave(this)">
      <circle class="node" r="20.1" cx="172.51914964539515" cy="404.65412049767303" fill="#31A354"><title>pokepedia-fr</title></circle>
      <a class="bubble" href="https://lod-cloud.net/dataset/pokepedia-fr" target="_blank">
          <text x="172.51914964539515" y="404.65412049767303">Poképé...</text>
      </a>
    </g>
    <g id="26"
        onmouseover="mo(this)" onmouseout="mleave(this)">
      <circle class="node" r="19.4" cx="211.0527602919546" cy="258.2353999790039" fill="#31A354"><title>data-incubator-pokedex</title></circle>
      <a class="bubble" href="https://lod-cloud.net/dataset/data-incubator-pokedex" target="_blank">
          <text x="211.0527602919546" y="258.2353999790039">Pokede...</text>
      </a>
    </g>
    <g id="27"
        onmouseover="mo(this)" onmouseout="mleave(this)">
      <circle class="node" r="23.6" cx="148.67926916891153" cy="352.5771048263394" fill="#63b3de"><title>rdfize-lastfm</title></circle>
      <a class="bubble" href="https://lod-cloud.net/dataset/rdfize-lastfm" target="_blank">
          <text x="148.67926916891153" y="352.5771048263394">Last.F...</text>
      </a>
    </g>
    <g id="28"
        onmouseover="mo(this)" onmouseout="mleave(this)">
      <circle class="node" r="23.4" cx="186.464452515799" cy="206.57165942591948" fill="#63b3de"><title>dbtune-artists-last-fm</title></circle>
      <a class="bubble" href="https://lod-cloud.net/dataset/dbtune-artists-last-fm" target="_blank">
          <text x="186.464452515799" y="206.57165942591948">DBTune...</text>
      </a>
    </g>
    <g id="29"
        onmouseover="mo(this)" onmouseout="mleave(this)">
      <circle class="node" r="21.9" cx="91.55869267616626" cy="350.7720736311865" fill="#31A354"><title>dbtropes</title></circle>
      <a class="bubble" href="https://lod-cloud.net/dataset/dbtropes" target="_blank">
          <text x="91.55869267616626" y="350.7720736311865">DBTropes</text>
      </a>
    </g>
    <g id="30"
        onmouseover="mo(this)" onmouseout="mleave(this)">
      <circle class="node" r="22.5" cx="122.18327334663482" cy="301.5188353094689" fill="#31A354"><title>muziekweb</title></circle>
      <a class="bubble" href="https://lod-cloud.net/dataset/muziekweb" target="_blank">
          <text x="122.18327334663482" y="301.5188353094689">Muziekweb</text>
      </a>
    </g>
    <g id="31"
        onmouseover="mo(this)" onmouseout="mleave(this)">
      <circle class="node" r="18.6" cx="179.63683638793734" cy="305.1668070926796" fill="#31A354"><title>salzburgerland-com-it</title></circle>
      <a class="bubble" href="https://lod-cloud.net/dataset/salzburgerland-com-it" target="_blank">
          <text x="179.63683638793734" y="305.1668070926796">Salzbu...</text>
      </a>
    </g>
    <g id="32"
        onmouseover="mo(this)" onmouseout="mleave(this)">
      <circle class="node" r="20.1" cx="153.48997463991688" cy="253.54684927074038" fill="#31A354"><title>ASCDC-Tibetan-Audio-Archive</title></circle>
      <a class="bubble" href="https://lod-cloud.net/dataset/ASCDC-Tibetan-Audio-Archive" target="_blank">
          <text x="153.48997463991688" y="253.54684927074038">The Ti...</text>
      </a>
    </g>
    <g id="33"
        onmouseover="mo(this)" onmouseout="mleave(this)">
      <circle class="node" r="20.5" cx="128.60904385666728" cy="200.95339198248473" fill="#63b3de"><title>dbtune-magnatune</title></circle>
      <a class="bubble" href="https://lod-cloud.net/dataset/dbtune-magnatune" target="_blank">
          <text x="128.60904385666728" y="200.95339198248473">DBTune...</text>
      </a>
    </g>
    <g id="34"
        onmouseover="mo(this)" onmouseout="mleave(this)">
      <circle class="node" r="20.6" cx="243.30904503438165" cy="211.70260676686482" fill="#63b3de"><title>dbtune-classical</title></circle>
      <a class="bubble" href="https://lod-cloud.net/dataset/dbtune-classical" target="_blank">
          <text x="243.30904503438165" y="211.70260676686482">DBTune...</text>
      </a>
    </g>
    <g id="35"
        onmouseover="mo(this)" onmouseout="mleave(this)">
      <circle class="node" r="22.6" cx="274.4060848414399" cy="164.26602782395608" fill="#31A354"><title>event-media</title></circle>
      <a class="bubble" href="https://lod-cloud.net/dataset/event-media" target="_blank">
          <text x="274.4060848414399" y="164.26602782395608">EventM...</text>
      </a>
    </g>
    <g id="36"
        onmouseover="mo(this)" onmouseout="mleave(this)">
      <circle class="node" r="21.6" cx="300.3306785659345" cy="215.4662618164704" fill="#31A354"><title>betweenourworlds</title></circle>
      <a class="bubble" href="https://lod-cloud.net/dataset/betweenourworlds" target="_blank">
          <text x="300.3306785659345" y="215.4662618164704">Betwee...</text>
      </a>
    </g>
    <g transform="translate(20,617) scale(1)">
      <text style="font-family: Verdana, Arial;">The Media Linked Open Data Cloud from lod-cloud.net</text>
    </g>
      <g transform="translate(480, 600)">
<svg
   xmlns:dc="http://purl.org/dc/elements/1.1/"
   xmlns:cc="http://web.resource.org/cc/"
   xmlns:rdf="http://www.w3.org/1999/02/22-rdf-syntax-ns#"
   xmlns:svg="http://www.w3.org/2000/svg"
   xmlns="http://www.w3.org/2000/svg"
   xmlns:sodipodi="http://sodipodi.sourceforge.net/DTD/sodipodi-0.dtd"
   xmlns:inkscape="http://www.inkscape.org/namespaces/inkscape"
   width="120"
   height="42"
   id="svg2759"
   sodipodi:version="0.32"
   inkscape:version="0.45+devel"
   version="1.0"
   sodipodi:docname="by.svg"
   inkscape:output_extension="org.inkscape.output.svg.inkscape">
  <defs
     id="defs2761" />
  <sodipodi:namedview
     id="base"
     pagecolor="#ffffff"
     bordercolor="#8b8b8b"
     borderopacity="1"
     gridtolerance="10000"
     guidetolerance="10"
     objecttolerance="10"
     inkscape:pageopacity="0.0"
     inkscape:pageshadow="2"
     inkscape:zoom="1"
     inkscape:cx="179"
     inkscape:cy="89.569904"
     inkscape:document-units="px"
     inkscape:current-layer="layer1"
     width="120px"
     height="42px"
     inkscape:showpageshadow="false"
     inkscape:window-width="1198"
     inkscape:window-height="624"
     inkscape:window-x="396"
     inkscape:window-y="242" />
  <metadata
     id="metadata2764">
    <rdf:RDF>
      <cc:Work
         rdf:about="">
        <dc:format>image/svg+xml</dc:format>
        <dc:type
           rdf:resource="http://purl.org/dc/dcmitype/StillImage" />
      </cc:Work>
    </rdf:RDF>
  </metadata>
  <g
     inkscape:label="Layer 1"
     inkscape:groupmode="layer"
     id="layer1">
    <g
       transform="matrix(0.9937728,0,0,0.9936696,-177.69267,6.25128e-7)"
       id="g260"
       inkscape:export-filename="/mnt/hgfs/Bov/Documents/Work/2007/cc/identity/srr buttons/big/by.png"
       inkscape:export-xdpi="300.23013"
       inkscape:export-ydpi="300.23013">
	<path
   id="path3817_1_"
   nodetypes="ccccccc"
   d="M 181.96579,0.51074 L 296.02975,0.71338 C 297.6235,0.71338 299.04733,0.47705 299.04733,3.89404 L 298.90768,41.46093 L 179.08737,41.46093 L 179.08737,3.75439 C 179.08737,2.06934 179.25046,0.51074 181.96579,0.51074 z"
   style="fill:#aab2ab" />

	<path
   d="M 297.29636,0 L 181.06736,0 C 179.82078,0 178.80613,1.01416 178.80613,2.26074 L 178.80613,41.75732 C 178.80613,42.03906 179.03513,42.26757 179.31687,42.26757 L 299.04734,42.26757 C 299.32908,42.26757 299.55808,42.03905 299.55808,41.75732 L 299.55808,2.26074 C 299.55807,1.01416 298.54343,0 297.29636,0 z M 181.06735,1.02148 L 297.29635,1.02148 C 297.98043,1.02148 298.53658,1.57714 298.53658,2.26074 C 298.53658,2.26074 298.53658,18.20898 298.53658,29.71045 L 215.19234,29.71045 C 212.14742,35.21631 206.28121,38.95459 199.54879,38.95459 C 192.81344,38.95459 186.94869,35.21973 183.90524,29.71045 L 179.8276,29.71045 C 179.8276,18.20899 179.8276,2.26074 179.8276,2.26074 C 179.82761,1.57715 180.38376,1.02148 181.06735,1.02148 z"
   id="path263" />

	<g
   enable-background="new    "
   id="g265">
		<path
   d="M 253.07761,32.95605 C 253.39499,32.95605 253.68503,32.98437 253.94773,33.04003 C 254.20945,33.09569 254.43308,33.18749 254.62058,33.31542 C 254.8071,33.44237 254.95261,33.6123 255.05515,33.82323 C 255.15769,34.03514 255.20945,34.29589 255.20945,34.60741 C 255.20945,34.94335 255.13328,35.22264 254.97996,35.44628 C 254.82762,35.67089 254.60105,35.85351 254.30223,35.99706 C 254.71434,36.11522 255.02196,36.32226 255.22508,36.61815 C 255.4282,36.91404 255.52977,37.27049 255.52977,37.68749 C 255.52977,38.02343 255.46434,38.31444 255.33348,38.56054 C 255.20262,38.80566 255.02586,39.00683 254.80516,39.1621 C 254.58348,39.31835 254.33055,39.43358 254.04735,39.5078 C 253.76317,39.583 253.47215,39.6201 253.17235,39.6201 L 249.936,39.6201 L 249.936,32.95604 L 253.07761,32.95604 L 253.07761,32.95605 z M 252.89011,35.65137 C 253.15183,35.65137 253.36667,35.58887 253.53562,35.46485 C 253.70359,35.34083 253.78757,35.13965 253.78757,34.86036 C 253.78757,34.70509 253.75925,34.57716 253.70359,34.47852 C 253.64695,34.37891 253.57273,34.30176 253.47898,34.24512 C 253.38523,34.18946 253.27781,34.15039 253.15671,34.12891 C 253.03561,34.10743 252.90866,34.09668 252.77878,34.09668 L 251.40476,34.09668 L 251.40476,35.65137 L 252.89011,35.65137 z M 252.97604,38.47949 C 253.11959,38.47949 253.25631,38.46582 253.38717,38.4375 C 253.51803,38.40918 253.63326,38.3623 253.73385,38.29785 C 253.83346,38.23242 253.91256,38.14355 253.97213,38.03125 C 254.0317,37.91992 254.061,37.77637 254.061,37.60254 C 254.061,37.26074 253.96432,37.0166 253.77096,36.87012 C 253.5776,36.72461 253.32174,36.65137 253.00436,36.65137 L 251.40475,36.65137 L 251.40475,38.47949 L 252.97604,38.47949 z"
   id="path267"
   style="fill:#ffffff" />

		<path
   d="M 255.78854,32.95605 L 257.43209,32.95605 L 258.99264,35.58789 L 260.54342,32.95605 L 262.17721,32.95605 L 259.70358,37.0625 L 259.70358,39.62012 L 258.23483,39.62012 L 258.23483,37.02539 L 255.78854,32.95605 z"
   id="path269"
   style="fill:#ffffff" />

	</g>

	<g
   id="g5908_1_"
   transform="matrix(0.872921,0,0,0.872921,50.12536,143.2144)">
		
			<path
   id="path5906_1_"
   cx="296.35416"
   ry="22.939548"
   cy="264.3577"
   type="arc"
   rx="22.939548"
   d="M 186.90065,-141.46002 C 186.90623,-132.77923 179.87279,-125.73852 171.19257,-125.73291 C 162.51235,-125.72736 155.47051,-132.76025 155.46547,-141.44098 C 155.46547,-141.44714 155.46547,-141.45331 155.46547,-141.46002 C 155.46043,-150.14081 162.49333,-157.18152 171.17355,-157.18658 C 179.8549,-157.19213 186.89561,-150.15924 186.90065,-141.47845 C 186.90065,-141.4729 186.90065,-141.46619 186.90065,-141.46002 z"
   style="fill:#ffffff" />

		<g
   id="g5706_1_"
   transform="translate(-289.6157,99.0653)">
			<path
   id="path5708_1_"
   d="M 473.57574,-253.32751 C 477.06115,-249.8421 478.80413,-245.5736 478.80413,-240.52532 C 478.80413,-235.47594 477.09136,-231.25329 473.66582,-227.85741 C 470.03051,-224.28081 465.734,-222.49309 460.77635,-222.49309 C 455.87858,-222.49309 451.65648,-224.26628 448.11122,-227.81261 C 444.56541,-231.35845 442.79277,-235.59563 442.79277,-240.52532 C 442.79277,-245.45391 444.56541,-249.7213 448.11122,-253.32751 C 451.56642,-256.81402 455.7885,-258.557 460.77635,-258.557 C 465.82465,-258.55701 470.09039,-256.81403 473.57574,-253.32751 z M 450.45776,-250.98267 C 447.51104,-248.00629 446.03823,-244.51978 446.03823,-240.52033 C 446.03823,-236.52198 447.49651,-233.06507 450.41247,-230.14966 C 453.32897,-227.23316 456.80096,-225.77545 460.82952,-225.77545 C 464.85808,-225.77545 468.35967,-227.24768 471.33605,-230.19385 C 474.16198,-232.9303 475.57549,-236.37091 475.57549,-240.52033 C 475.57549,-244.63837 474.13903,-248.13379 471.26781,-251.00501 C 468.39714,-253.87568 464.9179,-255.31159 460.82952,-255.31159 C 456.74112,-255.31158 453.28314,-253.86841 450.45776,-250.98267 z M 458.21225,-242.27948 C 457.76196,-243.26117 457.08795,-243.75232 456.18903,-243.75232 C 454.59986,-243.75232 453.80558,-242.68225 453.80558,-240.54321 C 453.80558,-238.40368 454.59986,-237.33471 456.18903,-237.33471 C 457.23841,-237.33471 457.98795,-237.85546 458.43769,-238.89922 L 460.64045,-237.72625 C 459.59052,-235.86077 458.01536,-234.92779 455.91496,-234.92779 C 454.29506,-234.92779 452.99733,-235.42449 452.0229,-236.4168 C 451.0468,-237.41021 450.56016,-238.77953 450.56016,-240.52532 C 450.56016,-242.24035 451.06245,-243.60186 452.06764,-244.61034 C 453.07283,-245.61888 454.32466,-246.12291 455.82545,-246.12291 C 458.04557,-246.12291 459.63526,-245.24803 460.59626,-243.50005 L 458.21225,-242.27948 z M 468.57562,-242.27948 C 468.12475,-243.26117 467.46417,-243.75232 466.5932,-243.75232 C 464.97217,-243.75232 464.16107,-242.68225 464.16107,-240.54321 C 464.16107,-238.40368 464.97217,-237.33471 466.5932,-237.33471 C 467.64429,-237.33471 468.38037,-237.85546 468.80048,-238.89922 L 471.05249,-237.72625 C 470.00421,-235.86077 468.43127,-234.92779 466.33478,-234.92779 C 464.7171,-234.92779 463.42218,-235.42449 462.44831,-236.4168 C 461.47614,-237.41021 460.98896,-238.77953 460.98896,-240.52532 C 460.98896,-242.24035 461.48341,-243.60186 462.47181,-244.61034 C 463.45966,-245.61888 464.71711,-246.12291 466.24531,-246.12291 C 468.4615,-246.12291 470.04896,-245.24803 471.0066,-243.50005 L 468.57562,-242.27948 z" />

		</g>

	</g>

	<g
   id="g275">
		<circle
   cx="255.55124"
   cy="15.31348"
   r="10.80664"
   id="circle277"
   sodipodi:cx="255.55124"
   sodipodi:cy="15.31348"
   sodipodi:rx="10.80664"
   sodipodi:ry="10.80664"
   style="fill:#ffffff" />

		<g
   id="g279">
			<path
   d="M 258.67819,12.18701 C 258.67819,11.77051 258.3403,11.4331 257.92526,11.4331 L 253.15182,11.4331 C 252.73678,11.4331 252.39889,11.7705 252.39889,12.18701 L 252.39889,16.95996 L 253.72994,16.95996 L 253.72994,22.61182 L 257.34713,22.61182 L 257.34713,16.95996 L 258.67818,16.95996 L 258.67818,12.18701 L 258.67819,12.18701 z"
   id="path281" />

			<circle
   cx="255.53854"
   cy="9.1723604"
   r="1.63281"
   id="circle283"
   sodipodi:cx="255.53854"
   sodipodi:cy="9.1723604"
   sodipodi:rx="1.63281"
   sodipodi:ry="1.63281" />

		</g>

		<path
   clip-rule="evenodd"
   d="M 255.5239,3.40723 C 252.29148,3.40723 249.55515,4.53516 247.31589,6.79102 C 245.01804,9.12452 243.8696,11.88672 243.8696,15.07569 C 243.8696,18.26466 245.01804,21.00733 247.31589,23.30225 C 249.61374,25.59668 252.35007,26.74414 255.5239,26.74414 C 258.73679,26.74414 261.52195,25.58789 263.87742,23.27295 C 266.09715,21.07568 267.2075,18.34326 267.2075,15.07568 C 267.2075,11.8081 266.07762,9.04687 263.8198,6.79101 C 261.56003,4.53516 258.79538,3.40723 255.5239,3.40723 z M 255.55319,5.50684 C 258.20163,5.50684 260.45065,6.44092 262.30026,8.30811 C 264.1694,10.15528 265.10397,12.41114 265.10397,15.07569 C 265.10397,17.75928 264.18893,19.98633 262.35885,21.75587 C 260.43014,23.66212 258.16256,24.61476 255.55319,24.61476 C 252.94284,24.61476 250.69381,23.67189 248.80612,21.78517 C 246.91647,19.89845 245.97311,17.66212 245.97311,15.0757 C 245.97311,12.48879 246.92721,10.23341 248.83541,8.30812 C 250.6655,6.44092 252.90475,5.50684 255.55319,5.50684 z"
   id="path285"
   style="fill-rule:evenodd" />

	</g>

</g>
  </g>
</svg>

      </g>
  </g>
</svg>
