<svg
    xmlns="http://www.w3.org/2000/svg" width="600" height="642">
<script type="text/javascript"><![CDATA[
function mo(elem) {    
    var  line =document.getElementsByTagName("line")
 
  elem.setAttribute("class","circle-active");
    for(i = 0; i < line.length; i++) {                                          
                                                                                
        if(line[i].getAttributeNode("targetId").value === elem.id) {            
            line[i].setAttribute("class","link-activeIncoming");
            document.getElementById(line[i].getAttributeNode("sourceId").value).setAttribute("class","circle-active");

        } 
        if(line[i].getAttributeNode("sourceId").value === elem.id) {            
            line[i].setAttribute("class","link-activeOutgoung");
            document.getElementById(line[i].getAttributeNode("targetId").value).setAttribute("class","circle-active");

        }
        if((line[i].getAttributeNode("targetId").value === elem.id)&&(line[i].getAttributeNode("sourceId").value === elem.id)) {            
            line[i].setAttribute("class","link-activeBoth");
             document.getElementById(line[i].getAttributeNode("targetId").value).setAttribute("class","circle-active");
             document.getElementById(line[i].getAttributeNode("sourceId").value).setAttribute("class","circle-active");
        }                                                                              
    }                                                                           
}

function mleave(elem) {                   
    elem.setAttribute("class","circle-pasive");                                      
    var line = document.getElementsByTagName("line");                           
    for(i = 0; i < line.length; i++) {                                          
                                                                                
        if(line[i].getAttributeNode("targetId").value === elem.id) {     
        document.getElementById(line[i].getAttributeNode("sourceId").value).setAttribute("class","circle-pasive");       
            line[i].setAttribute("class","link");       
        }
        if(line[i].getAttributeNode("sourceId").value === elem.id) {            
            document.getElementById(line[i].getAttributeNode("targetId").value).setAttribute("class","circle-pasive");
            line[i].setAttribute("class","link");       
        }                                                                          
    }                                                                           
}
]]></script>
  <style>
    circle { 
        stroke: #333;
        stroke-width: 1.5px;
        fill-opacity: 0.8; 
    } 
    .bubble text {
        text-anchor: middle;
        font-size: .5em;
    }
    .circle-active circle { 
        stroke: #e80000;  
        stroke-width: 3px; 
    } 
    .link { 
        stroke: #e0270b;  
        stroke: #555;  
        stroke-opacity: 0.7;  
        stroke-width: 1px;  
        stroke-dasharray:none;
    } 
    .link-activeIncoming {  
        stroke-opacity: 1; 
        stroke-width: 10;  
        stroke: #be1b38; 
    } 
    .link-activeOutgoung {  
        stroke-opacity: 1;  
        stroke-width: 10; 
        stroke: #1AC21D;  
    } 
    .link-activeBoth {  
        stroke-opacity: 1;  
        stroke: #1AC21D;  
        stroke-width: 10;  
        stroke-dasharray:5,10,5;}
  </style>
  <g transform="scale(0.5)">
    <g id="legend">
      <text transform="translate(30,30)" style="font-family:Verdana, Arial, DejaVu Sans;font-size:200%;text-decoration:underline;">Legend</text>
      <rect width="310" height="35" style="fill:#3182BD" transform="translate(30,45)"/>
      <text transform="translate(35,72)" style="font-family:Verdana, Arial;font-size:200%">Geography</text>
    </g>
  </g>
  <g class="links">
    <line class="link" targetId="1" sourceId="2" x1="302.5410997746223" y1="201.8260666588323" x2="283.97124352761756" y2="257.2430046955824"/>
    <line class="link" targetId="3" sourceId="4" x1="490.95736500980473" y1="264.0315029316783" x2="360.11805268361974" y2="342.3232397893677"/>
    <line class="link" targetId="5" sourceId="6" x1="223.93991603661772" y1="115.36425108277857" x2="247.02564377221503" y2="213.9973738437207"/>
    <line class="link" targetId="7" sourceId="2" x1="339.68079926796656" y1="244.98036982312453" x2="283.97124352761756" y2="257.2430046955824"/>
    <line class="link" targetId="7" sourceId="4" x1="339.68079926796656" y1="244.98036982312453" x2="360.11805268361974" y2="342.3232397893677"/>
    <line class="link" targetId="8" sourceId="2" x1="358.08272774595014" y1="189.31064241443056" x2="283.97124352761756" y2="257.2430046955824"/>
    <line class="link" targetId="8" sourceId="9" x1="358.08272774595014" y1="189.31064241443056" x2="413.2275626922549" y2="175.47565756859214"/>
    <line class="link" targetId="8" sourceId="6" x1="358.08272774595014" y1="189.31064241443056" x2="247.02564377221503" y2="213.9973738437207"/>
    <line class="link" targetId="10" sourceId="4" x1="433.9867957234562" y1="275.44478437480143" x2="360.11805268361974" y2="342.3232397893677"/>
    <line class="link" targetId="11" sourceId="2" x1="375.3751993460387" y1="131.46259032693524" x2="283.97124352761756" y2="257.2430046955824"/>
    <line class="link" targetId="12" sourceId="13" x1="470.9927626110601" y1="163.50511039056633" x2="452.69922435176585" y2="218.42987640501468"/>
    <line class="link" targetId="13" sourceId="2" x1="452.69922435176585" y1="218.42987640501468" x2="283.97124352761756" y2="257.2430046955824"/>
    <line class="link" targetId="15" sourceId="2" x1="395.8683169148653" y1="232.3097556722401" x2="283.97124352761756" y2="257.2430046955824"/>
    <line class="link" targetId="16" sourceId="4" x1="377.3844083743636" y1="287.44795743002817" x2="360.11805268361974" y2="342.3232397893677"/>
    <line class="link" targetId="16" sourceId="2" x1="377.3844083743636" y1="287.44795743002817" x2="283.97124352761756" y2="257.2430046955824"/>
    <line class="link" targetId="16" sourceId="6" x1="377.3844083743636" y1="287.44795743002817" x2="247.02564377221503" y2="213.9973738437207"/>
    <line class="link" targetId="17" sourceId="2" x1="321.89146310718013" y1="299.54747371942625" x2="283.97124352761756" y2="257.2430046955824"/>
    <line class="link" targetId="17" sourceId="4" x1="321.89146310718013" y1="299.54747371942625" x2="360.11805268361974" y2="342.3232397893677"/>
    <line class="link" targetId="18" sourceId="1" x1="319.7878123901313" y1="146.47833573773528" x2="302.5410997746223" y2="201.8260666588323"/>
    <line class="link" targetId="19" sourceId="4" x1="472.529027454045" y1="318.8669149745901" x2="360.11805268361974" y2="342.3232397893677"/>
    <line class="link" targetId="20" sourceId="2" x1="415.7132555494766" y1="329.99228984833417" x2="283.97124352761756" y2="257.2430046955824"/>
    <line class="link" targetId="20" sourceId="4" x1="415.7132555494766" y1="329.99228984833417" x2="360.11805268361974" y2="342.3232397893677"/>
    <line class="link" targetId="21" sourceId="4" x1="511.5418975503479" y1="362.5822063532874" x2="360.11805268361974" y2="342.3232397893677"/>
    <line class="link" targetId="9" sourceId="8" x1="413.2275626922549" y1="175.47565756859214" x2="358.08272774595014" y2="189.31064241443056"/>
    <line class="link" targetId="22" sourceId="4" x1="454.72206813177763" y1="373.59726146994547" x2="360.11805268361974" y2="342.3232397893677"/>
    <line class="link" targetId="23" sourceId="2" x1="303.6672808018392" y1="353.68215544021524" x2="283.97124352761756" y2="257.2430046955824"/>
    <line class="link" targetId="23" sourceId="24" x1="303.6672808018392" y1="353.68215544021524" x2="211.17306205751385" y2="322.5939908741362"/>
    <line class="link" targetId="25" sourceId="13" x1="509.6455940212101" y1="208.06356379342793" x2="452.69922435176585" y2="218.42987640501468"/>
    <line class="link" targetId="2" sourceId="4" x1="283.97124352761756" y1="257.2430046955824" x2="360.11805268361974" y2="342.3232397893677"/>
    <line class="link" targetId="2" sourceId="6" x1="283.97124352761756" y1="257.2430046955824" x2="247.02564377221503" y2="213.9973738437207"/>
    <line class="link" targetId="26" sourceId="4" x1="438.9748436949712" y1="429.16198101544643" x2="360.11805268361974" y2="342.3232397893677"/>
    <line class="link" targetId="27" sourceId="4" x1="398.6551162920458" y1="384.75235788274966" x2="360.11805268361974" y2="342.3232397893677"/>
    <line class="link" targetId="28" sourceId="2" x1="286.3404776020351" y1="408.54539940108714" x2="283.97124352761756" y2="257.2430046955824"/>
    <line class="link" targetId="29" sourceId="2" x1="266.34931060803615" y1="311.02897201243144" x2="283.97124352761756" y2="257.2430046955824"/>
    <line class="link" targetId="30" sourceId="2" x1="248.19662499234252" y1="366.04426285697576" x2="283.97124352761756" y2="257.2430046955824"/>
    <line class="link" targetId="30" sourceId="14" x1="248.19662499234252" y1="366.04426285697576" x2="211.69120704556408" y2="475.78192106789504"/>
    <line class="link" targetId="31" sourceId="2" x1="172.6991677706647" y1="431.49177686459416" x2="283.97124352761756" y2="257.2430046955824"/>
    <line class="link" targetId="31" sourceId="32" x1="172.6991677706647" y1="431.49177686459416" x2="124.73375640864813" y2="463.38419096347695"/>
    <line class="link" targetId="33" sourceId="2" x1="134.1159235727605" y1="387.2435266642627" x2="283.97124352761756" y2="257.2430046955824"/>
    <line class="link" targetId="34" sourceId="2" x1="155.00813365411676" y1="333.49115583228524" x2="283.97124352761756" y2="257.2430046955824"/>
    <line class="link" targetId="34" sourceId="28" x1="155.00813365411676" y1="333.49115583228524" x2="286.3404776020351" y2="408.54539940108714"/>
    <line class="link" targetId="35" sourceId="2" x1="192.43329972416183" y1="377.0887626796083" x2="283.97124352761756" y2="257.2430046955824"/>
    <line class="link" targetId="35" sourceId="4" x1="192.43329972416183" y1="377.0887626796083" x2="360.11805268361974" y2="342.3232397893677"/>
    <line class="link" targetId="36" sourceId="4" x1="382.15985183662355" y1="439.53084987391964" x2="360.11805268361974" y2="342.3232397893677"/>
    <line class="link" targetId="37" sourceId="2" x1="116.93681969535606" y1="289.760713588353" x2="283.97124352761756" y2="257.2430046955824"/>
    <line class="link" targetId="37" sourceId="4" x1="116.93681969535606" y1="289.760713588353" x2="360.11805268361974" y2="342.3232397893677"/>
    <line class="link" targetId="37" sourceId="0" x1="116.93681969535606" y1="289.760713588353" x2="134.09420088659476" y2="234.9873371411161"/>
    <line class="link" targetId="38" sourceId="4" x1="342.58594348615793" y1="396.6052410588486" x2="360.11805268361974" y2="342.3232397893677"/>
    <line class="link" targetId="39" sourceId="0" x1="83.3000834733252" y1="207.82552565130118" x2="134.09420088659476" y2="234.9873371411161"/>
    <line class="link" targetId="40" sourceId="4" x1="365.41360683871517" y1="494.9366933723427" x2="360.11805268361974" y2="342.3232397893677"/>
    <line class="link" targetId="41" sourceId="4" x1="325.85220247252187" y1="451.7310721796045" x2="360.11805268361974" y2="342.3232397893677"/>
    <line class="link" targetId="42" sourceId="26" x1="441.2319107144763" y1="486.71814416132383" x2="438.9748436949712" y2="429.16198101544643"/>
    <line class="link" targetId="24" sourceId="2" x1="211.17306205751385" y1="322.5939908741362" x2="283.97124352761756" y2="257.2430046955824"/>
    <line class="link" targetId="24" sourceId="23" x1="211.17306205751385" y1="322.5939908741362" x2="303.6672808018392" y2="353.68215544021524"/>
    <line class="link" targetId="43" sourceId="2" x1="173.09529707532562" y1="278.8171140007526" x2="283.97124352761756" y2="257.2430046955824"/>
    <line class="link" targetId="43" sourceId="6" x1="173.09529707532562" y1="278.8171140007526" x2="247.02564377221503" y2="213.9973738437207"/>
    <line class="link" targetId="44" sourceId="4" x1="269.68385487461217" y1="464.6550493760385" x2="360.11805268361974" y2="342.3232397893677"/>
    <line class="link" targetId="45" sourceId="2" x1="228.6520600406235" y1="268.0471546578403" x2="283.97124352761756" y2="257.2430046955824"/>
    <line class="link" targetId="45" sourceId="0" x1="228.6520600406235" y1="268.0471546578403" x2="134.09420088659476" y2="234.9873371411161"/>
    <line class="link" targetId="45" sourceId="17" x1="228.6520600406235" y1="268.0471546578403" x2="321.89146310718013" y2="299.54747371942625"/>
    <line class="link" targetId="46" sourceId="2" x1="191.0109802050257" y1="224.75392095981724" x2="283.97124352761756" y2="257.2430046955824"/>
    <line class="link" targetId="46" sourceId="6" x1="191.0109802050257" y1="224.75392095981724" x2="247.02564377221503" y2="213.9973738437207"/>
    <line class="link" targetId="6" sourceId="2" x1="247.02564377221503" y1="213.9973738437207" x2="283.97124352761756" y2="257.2430046955824"/>
    <line class="link" targetId="47" sourceId="2" x1="207.9041736266684" y1="170.66556260749084" x2="283.97124352761756" y2="257.2430046955824"/>
    <line class="link" targetId="47" sourceId="4" x1="207.9041736266684" y1="170.66556260749084" x2="360.11805268361974" y2="342.3232397893677"/>
    <line class="link" targetId="48" sourceId="2" x1="264.02884298150417" y1="159.71819383629796" x2="283.97124352761756" y2="257.2430046955824"/>
    <line class="link" targetId="48" sourceId="4" x1="264.02884298150417" y1="159.71819383629796" x2="360.11805268361974" y2="342.3232397893677"/>
    <line class="link" targetId="48" sourceId="6" x1="264.02884298150417" y1="159.71819383629796" x2="247.02564377221503" y2="213.9973738437207"/>
    <line class="link" targetId="49" sourceId="2" x1="281.1310022368259" y1="103.50553873903934" x2="283.97124352761756" y2="257.2430046955824"/>
    <line class="link" targetId="50" sourceId="4" x1="230.441241709339" y1="421.0313136624711" x2="360.11805268361974" y2="342.3232397893677"/>
  </g>
  <g class="nodes">
    <g id="0"
        onmouseover="mo(this)" onmouseout="mleave(this)">
      <circle class="node" r="21.4" cx="134.09420088659476" cy="234.9873371411161" fill="#3182BD"><title>ordnance-survey-linked-data</title></circle>
      <a class="bubble" href="https://lod-cloud.net/dataset/ordnance-survey-linked-data" target="_blank">
          <text x="134.09420088659476" y="234.9873371411161">Ordnan...</text>
      </a>
    </g>
    <g id="1"
        onmouseover="mo(this)" onmouseout="mleave(this)">
      <circle class="node" r="20.5" cx="302.5410997746223" cy="201.8260666588323" fill="#3182BD"><title>nuts-geovocab</title></circle>
      <a class="bubble" href="https://lod-cloud.net/dataset/nuts-geovocab" target="_blank">
          <text x="302.5410997746223" y="201.8260666588323">NUTS (...</text>
      </a>
    </g>
    <g id="2"
        onmouseover="mo(this)" onmouseout="mleave(this)">
      <circle class="node" r="25.0" cx="283.97124352761756" cy="257.2430046955824" fill="#3182BD"><title>dbpedia</title></circle>
      <a class="bubble" href="https://lod-cloud.net/dataset/dbpedia" target="_blank">
          <text x="283.97124352761756" y="257.2430046955824">DBpedia</text>
      </a>
    </g>
    <g id="3"
        onmouseover="mo(this)" onmouseout="mleave(this)">
      <circle class="node" r="15.0" cx="490.95736500980473" cy="264.0315029316783" fill="#3182BD"><title>knoesis-linked-sensor-data</title></circle>
      <a class="bubble" href="https://lod-cloud.net/dataset/knoesis-linked-sensor-data" target="_blank">
          <text x="490.95736500980473" y="264.0315029316783">Linked...</text>
      </a>
    </g>
    <g id="4"
        onmouseover="mo(this)" onmouseout="mleave(this)">
      <circle class="node" r="23.0" cx="360.11805268361974" cy="342.3232397893677" fill="#3182BD"><title>geonames-semantic-web</title></circle>
      <a class="bubble" href="https://lod-cloud.net/dataset/geonames-semantic-web" target="_blank">
          <text x="360.11805268361974" y="342.3232397893677">GeoNam...</text>
      </a>
    </g>
    <g id="5"
        onmouseover="mo(this)" onmouseout="mleave(this)">
      <circle class="node" r="20.1" cx="223.93991603661772" cy="115.36425108277857" fill="#3182BD"><title>osm-semantic-network</title></circle>
      <a class="bubble" href="https://lod-cloud.net/dataset/osm-semantic-network" target="_blank">
          <text x="223.93991603661772" y="115.36425108277857">OSM Se...</text>
      </a>
    </g>
    <g id="6"
        onmouseover="mo(this)" onmouseout="mleave(this)">
      <circle class="node" r="24.5" cx="247.02564377221503" cy="213.9973738437207" fill="#3182BD"><title>linkedgeodata</title></circle>
      <a class="bubble" href="https://lod-cloud.net/dataset/linkedgeodata" target="_blank">
          <text x="247.02564377221503" y="213.9973738437207">Linked...</text>
      </a>
    </g>
    <g id="7"
        onmouseover="mo(this)" onmouseout="mleave(this)">
      <circle class="node" r="22.3" cx="339.68079926796656" cy="244.98036982312453" fill="#3182BD"><title>geolinkeddata</title></circle>
      <a class="bubble" href="https://lod-cloud.net/dataset/geolinkeddata" target="_blank">
          <text x="339.68079926796656" y="244.98036982312453">GeoLin...</text>
      </a>
    </g>
    <g id="8"
        onmouseover="mo(this)" onmouseout="mleave(this)">
      <circle class="node" r="22.3" cx="358.08272774595014" cy="189.31064241443056" fill="#3182BD"><title>openmobilenetwork</title></circle>
      <a class="bubble" href="https://lod-cloud.net/dataset/openmobilenetwork" target="_blank">
          <text x="358.08272774595014" y="189.31064241443056">OpenMo...</text>
      </a>
    </g>
    <g id="9"
        onmouseover="mo(this)" onmouseout="mleave(this)">
      <circle class="node" r="19.2" cx="413.2275626922549" cy="175.47565756859214" fill="#3182BD"><title>linkedcrowdsourceddata</title></circle>
      <a class="bubble" href="https://lod-cloud.net/dataset/linkedcrowdsourceddata" target="_blank">
          <text x="413.2275626922549" y="175.47565756859214">Linked...</text>
      </a>
    </g>
    <g id="10"
        onmouseover="mo(this)" onmouseout="mleave(this)">
      <circle class="node" r="15.0" cx="433.9867957234562" cy="275.44478437480143" fill="#3182BD"><title>statusnet-progval-net</title></circle>
      <a class="bubble" href="https://lod-cloud.net/dataset/statusnet-progval-net" target="_blank">
          <text x="433.9867957234562" y="275.44478437480143">status...</text>
      </a>
    </g>
    <g id="11"
        onmouseover="mo(this)" onmouseout="mleave(this)">
      <circle class="node" r="17.6" cx="375.3751993460387" cy="131.46259032693524" fill="#3182BD"><title>the-view-from</title></circle>
      <a class="bubble" href="https://lod-cloud.net/dataset/the-view-from" target="_blank">
          <text x="375.3751993460387" y="131.46259032693524">The Vi...</text>
      </a>
    </g>
    <g id="12"
        onmouseover="mo(this)" onmouseout="mleave(this)">
      <circle class="node" r="22.4" cx="470.9927626110601" cy="163.50511039056633" fill="#3182BD"><title>oceandrilling-forams</title></circle>
      <a class="bubble" href="https://lod-cloud.net/dataset/oceandrilling-forams" target="_blank">
          <text x="470.9927626110601" y="163.50511039056633">Ocean ...</text>
      </a>
    </g>
    <g id="13"
        onmouseover="mo(this)" onmouseout="mleave(this)">
      <circle class="node" r="22.4" cx="452.69922435176585" cy="218.42987640501468" fill="#3182BD"><title>oceandrilling-codices</title></circle>
      <a class="bubble" href="https://lod-cloud.net/dataset/oceandrilling-codices" target="_blank">
          <text x="452.69922435176585" y="218.42987640501468">Ocean ...</text>
      </a>
    </g>
    <g id="14"
        onmouseover="mo(this)" onmouseout="mleave(this)">
      <circle class="node" r="18.5" cx="211.69120704556408" cy="475.78192106789504" fill="#3182BD"><title>Earthquake</title></circle>
      <a class="bubble" href="https://lod-cloud.net/dataset/Earthquake" target="_blank">
          <text x="211.69120704556408" y="475.78192106789504">Emerge...</text>
      </a>
    </g>
    <g id="15"
        onmouseover="mo(this)" onmouseout="mleave(this)">
      <circle class="node" r="21.4" cx="395.8683169148653" cy="232.3097556722401" fill="#3182BD"><title>pleiades</title></circle>
      <a class="bubble" href="https://lod-cloud.net/dataset/pleiades" target="_blank">
          <text x="395.8683169148653" y="232.3097556722401">Pleiades</text>
      </a>
    </g>
    <g id="16"
        onmouseover="mo(this)" onmouseout="mleave(this)">
      <circle class="node" r="23.6" cx="377.3844083743636" cy="287.44795743002817" fill="#3182BD"><title>Smart_POI_dataset</title></circle>
      <a class="bubble" href="https://lod-cloud.net/dataset/Smart_POI_dataset" target="_blank">
          <text x="377.3844083743636" y="287.44795743002817">Smart ...</text>
      </a>
    </g>
    <g id="17"
        onmouseover="mo(this)" onmouseout="mleave(this)">
      <circle class="node" r="19.2" cx="321.89146310718013" cy="299.54747371942625" fill="#3182BD"><title>telegraphis</title></circle>
      <a class="bubble" href="https://lod-cloud.net/dataset/telegraphis" target="_blank">
          <text x="321.89146310718013" y="299.54747371942625">Telegr...</text>
      </a>
    </g>
    <g id="18"
        onmouseover="mo(this)" onmouseout="mleave(this)">
      <circle class="node" r="20.1" cx="319.7878123901313" cy="146.47833573773528" fill="#3182BD"><title>eumida-linked-data</title></circle>
      <a class="bubble" href="https://lod-cloud.net/dataset/eumida-linked-data" target="_blank">
          <text x="319.7878123901313" y="146.47833573773528">EUMIDA...</text>
      </a>
    </g>
    <g id="19"
        onmouseover="mo(this)" onmouseout="mleave(this)">
      <circle class="node" r="15.0" cx="472.529027454045" cy="318.8669149745901" fill="#3182BD"><title>greek-administrative-geography</title></circle>
      <a class="bubble" href="https://lod-cloud.net/dataset/greek-administrative-geography" target="_blank">
          <text x="472.529027454045" y="318.8669149745901">greek-...</text>
      </a>
    </g>
    <g id="20"
        onmouseover="mo(this)" onmouseout="mleave(this)">
      <circle class="node" r="19.9" cx="415.7132555494766" cy="329.99228984833417" fill="#3182BD"><title>los_metar</title></circle>
      <a class="bubble" href="https://lod-cloud.net/dataset/los_metar" target="_blank">
          <text x="415.7132555494766" y="329.99228984833417">Weathe...</text>
      </a>
    </g>
    <g id="21"
        onmouseover="mo(this)" onmouseout="mleave(this)">
      <circle class="node" r="21.7" cx="511.5418975503479" cy="362.5822063532874" fill="#3182BD"><title>riese</title></circle>
      <a class="bubble" href="https://lod-cloud.net/dataset/riese" target="_blank">
          <text x="511.5418975503479" y="362.5822063532874">RDFizi...</text>
      </a>
    </g>
    <g id="22"
        onmouseover="mo(this)" onmouseout="mleave(this)">
      <circle class="node" r="20.2" cx="454.72206813177763" cy="373.59726146994547" fill="#3182BD"><title>grrp</title></circle>
      <a class="bubble" href="https://lod-cloud.net/dataset/grrp" target="_blank">
          <text x="454.72206813177763" y="373.59726146994547">Accomm...</text>
      </a>
    </g>
    <g id="23"
        onmouseover="mo(this)" onmouseout="mleave(this)">
      <circle class="node" r="20.6" cx="303.6672808018392" cy="353.68215544021524" fill="#3182BD"><title>thist</title></circle>
      <a class="bubble" href="https://lod-cloud.net/dataset/thist" target="_blank">
          <text x="303.6672808018392" y="353.68215544021524">ThIST</text>
      </a>
    </g>
    <g id="24"
        onmouseover="mo(this)" onmouseout="mleave(this)">
      <circle class="node" r="20.1" cx="211.17306205751385" cy="322.5939908741362" fill="#3182BD"><title>environmental-applications-reference-thesaurus</title></circle>
      <a class="bubble" href="https://lod-cloud.net/dataset/environmental-applications-reference-thesaurus" target="_blank">
          <text x="211.17306205751385" y="322.5939908741362">EARTh</text>
      </a>
    </g>
    <g id="25"
        onmouseover="mo(this)" onmouseout="mleave(this)">
      <circle class="node" r="22.4" cx="509.6455940212101" cy="208.06356379342793" fill="#3182BD"><title>oceandrilling-janusamp</title></circle>
      <a class="bubble" href="https://lod-cloud.net/dataset/oceandrilling-janusamp" target="_blank">
          <text x="509.6455940212101" y="208.06356379342793">Ocean ...</text>
      </a>
    </g>
    <g id="26"
        onmouseover="mo(this)" onmouseout="mleave(this)">
      <circle class="node" r="15.0" cx="438.9748436949712" cy="429.16198101544643" fill="#3182BD"><title>taiwan-geographic-names</title></circle>
      <a class="bubble" href="https://lod-cloud.net/dataset/taiwan-geographic-names" target="_blank">
          <text x="438.9748436949712" y="429.16198101544643">Taiwan...</text>
      </a>
    </g>
    <g id="27"
        onmouseover="mo(this)" onmouseout="mleave(this)">
      <circle class="node" r="15.0" cx="398.6551162920458" cy="384.75235788274966" fill="#3182BD"><title>statusnet-coreyavis-com</title></circle>
      <a class="bubble" href="https://lod-cloud.net/dataset/statusnet-coreyavis-com" target="_blank">
          <text x="398.6551162920458" y="384.75235788274966">status...</text>
      </a>
    </g>
    <g id="28"
        onmouseover="mo(this)" onmouseout="mleave(this)">
      <circle class="node" r="19.4" cx="286.3404776020351" cy="408.54539940108714" fill="#3182BD"><title>fao-geopolitical-ontology</title></circle>
      <a class="bubble" href="https://lod-cloud.net/dataset/fao-geopolitical-ontology" target="_blank">
          <text x="286.3404776020351" y="408.54539940108714">FAO ge...</text>
      </a>
    </g>
    <g id="29"
        onmouseover="mo(this)" onmouseout="mleave(this)">
      <circle class="node" r="20.7" cx="266.34931060803615" cy="311.02897201243144" fill="#3182BD"><title>fishes-of-texas</title></circle>
      <a class="bubble" href="https://lod-cloud.net/dataset/fishes-of-texas" target="_blank">
          <text x="266.34931060803615" y="311.02897201243144">Fishes...</text>
      </a>
    </g>
    <g id="30"
        onmouseover="mo(this)" onmouseout="mleave(this)">
      <circle class="node" r="16.3" cx="248.19662499234252" cy="366.04426285697576" fill="#3182BD"><title>Earthquake_case</title></circle>
      <a class="bubble" href="https://lod-cloud.net/dataset/Earthquake_case" target="_blank">
          <text x="248.19662499234252" y="366.04426285697576">ESO</text>
      </a>
    </g>
    <g id="31"
        onmouseover="mo(this)" onmouseout="mleave(this)">
      <circle class="node" r="19.2" cx="172.6991677706647" cy="431.49177686459416" fill="#3182BD"><title>GTS</title></circle>
      <a class="bubble" href="https://lod-cloud.net/dataset/GTS" target="_blank">
          <text x="172.6991677706647" y="431.49177686459416">Geolog...</text>
      </a>
    </g>
    <g id="32"
        onmouseover="mo(this)" onmouseout="mleave(this)">
      <circle class="node" r="17.9" cx="124.73375640864813" cy="463.38419096347695" fill="#3182BD"><title>GTS-ont</title></circle>
      <a class="bubble" href="https://lod-cloud.net/dataset/GTS-ont" target="_blank">
          <text x="124.73375640864813" y="463.38419096347695">Geolog...</text>
      </a>
    </g>
    <g id="33"
        onmouseover="mo(this)" onmouseout="mleave(this)">
      <circle class="node" r="19.6" cx="134.1159235727605" cy="387.2435266642627" fill="#3182BD"><title>geological-survey-of-austria-thesaurus</title></circle>
      <a class="bubble" href="https://lod-cloud.net/dataset/geological-survey-of-austria-thesaurus" target="_blank">
          <text x="134.1159235727605" y="387.2435266642627">Geolog...</text>
      </a>
    </g>
    <g id="34"
        onmouseover="mo(this)" onmouseout="mleave(this)">
      <circle class="node" r="15.0" cx="155.00813365411676" cy="333.49115583228524" fill="#3182BD"><title>eea-vocabularies</title></circle>
      <a class="bubble" href="https://lod-cloud.net/dataset/eea-vocabularies" target="_blank">
          <text x="155.00813365411676" y="333.49115583228524">EEA Vo...</text>
      </a>
    </g>
    <g id="35"
        onmouseover="mo(this)" onmouseout="mleave(this)">
      <circle class="node" r="23.5" cx="192.43329972416183" cy="377.0887626796083" fill="#3182BD"><title>near</title></circle>
      <a class="bubble" href="https://lod-cloud.net/dataset/near" target="_blank">
          <text x="192.43329972416183" y="377.0887626796083">Near</text>
      </a>
    </g>
    <g id="36"
        onmouseover="mo(this)" onmouseout="mleave(this)">
      <circle class="node" r="15.0" cx="382.15985183662355" cy="439.53084987391964" fill="#3182BD"><title>eventseer</title></circle>
      <a class="bubble" href="https://lod-cloud.net/dataset/eventseer" target="_blank">
          <text x="382.15985183662355" y="439.53084987391964">Eventseer</text>
      </a>
    </g>
    <g id="37"
        onmouseover="mo(this)" onmouseout="mleave(this)">
      <circle class="node" r="19.2" cx="116.93681969535606" cy="289.760713588353" fill="#3182BD"><title>data-incubator-smcjournals</title></circle>
      <a class="bubble" href="https://lod-cloud.net/dataset/data-incubator-smcjournals" target="_blank">
          <text x="116.93681969535606" y="289.760713588353">Scotti...</text>
      </a>
    </g>
    <g id="38"
        onmouseover="mo(this)" onmouseout="mleave(this)">
      <circle class="node" r="18.9" cx="342.58594348615793" cy="396.6052410588486" fill="#3182BD"><title>norwegian-geo-divisions</title></circle>
      <a class="bubble" href="https://lod-cloud.net/dataset/norwegian-geo-divisions" target="_blank">
          <text x="342.58594348615793" y="396.6052410588486">Norweg...</text>
      </a>
    </g>
    <g id="39"
        onmouseover="mo(this)" onmouseout="mleave(this)">
      <circle class="node" r="22.4" cx="83.3000834733252" cy="207.82552565130118" fill="#3182BD"><title>uk-postcodes</title></circle>
      <a class="bubble" href="https://lod-cloud.net/dataset/uk-postcodes" target="_blank">
          <text x="83.3000834733252" y="207.82552565130118">UK Pos...</text>
      </a>
    </g>
    <g id="40"
        onmouseover="mo(this)" onmouseout="mleave(this)">
      <circle class="node" r="22.7" cx="365.41360683871517" cy="494.9366933723427" fill="#3182BD"><title>geowordnet</title></circle>
      <a class="bubble" href="https://lod-cloud.net/dataset/geowordnet" target="_blank">
          <text x="365.41360683871517" y="494.9366933723427">GeoWor...</text>
      </a>
    </g>
    <g id="41"
        onmouseover="mo(this)" onmouseout="mleave(this)">
      <circle class="node" r="15.0" cx="325.85220247252187" cy="451.7310721796045" fill="#3182BD"><title>statusnet-ldn-fai-net</title></circle>
      <a class="bubble" href="https://lod-cloud.net/dataset/statusnet-ldn-fai-net" target="_blank">
          <text x="325.85220247252187" y="451.7310721796045">status...</text>
      </a>
    </g>
    <g id="42"
        onmouseover="mo(this)" onmouseout="mleave(this)">
      <circle class="node" r="15.0" cx="441.2319107144763" cy="486.71814416132383" fill="#3182BD"><title>crowdsourcing-fb</title></circle>
      <a class="bubble" href="https://lod-cloud.net/dataset/crowdsourcing-fb" target="_blank">
          <text x="441.2319107144763" y="486.71814416132383">crowds...</text>
      </a>
    </g>
    <g id="43"
        onmouseover="mo(this)" onmouseout="mleave(this)">
      <circle class="node" r="15.0" cx="173.09529707532562" cy="278.8171140007526" fill="#3182BD"><title>ispra-lod-place</title></circle>
      <a class="bubble" href="https://lod-cloud.net/dataset/ispra-lod-place" target="_blank">
          <text x="173.09529707532562" y="278.8171140007526">ISPRA ...</text>
      </a>
    </g>
    <g id="44"
        onmouseover="mo(this)" onmouseout="mleave(this)">
      <circle class="node" r="15.0" cx="269.68385487461217" cy="464.6550493760385" fill="#3182BD"><title>statusnet-hii-co-il</title></circle>
      <a class="bubble" href="https://lod-cloud.net/dataset/statusnet-hii-co-il" target="_blank">
          <text x="269.68385487461217" y="464.6550493760385">status...</text>
      </a>
    </g>
    <g id="45"
        onmouseover="mo(this)" onmouseout="mleave(this)">
      <circle class="node" r="22.7" cx="228.6520600406235" cy="268.0471546578403" fill="#3182BD"><title>yahoo_geoplanet</title></circle>
      <a class="bubble" href="https://lod-cloud.net/dataset/yahoo_geoplanet" target="_blank">
          <text x="228.6520600406235" y="268.0471546578403">Yahoo ...</text>
      </a>
    </g>
    <g id="46"
        onmouseover="mo(this)" onmouseout="mleave(this)">
      <circle class="node" r="15.0" cx="191.0109802050257" cy="224.75392095981724" fill="#3182BD"><title>linked-logainm</title></circle>
      <a class="bubble" href="https://lod-cloud.net/dataset/linked-logainm" target="_blank">
          <text x="191.0109802050257" y="224.75392095981724">Linked...</text>
      </a>
    </g>
    <g id="47"
        onmouseover="mo(this)" onmouseout="mleave(this)">
      <circle class="node" r="20.9" cx="207.9041736266684" cy="170.66556260749084" fill="#3182BD"><title>lobid-organisations</title></circle>
      <a class="bubble" href="https://lod-cloud.net/dataset/lobid-organisations" target="_blank">
          <text x="207.9041736266684" y="170.66556260749084">lobid-...</text>
      </a>
    </g>
    <g id="48"
        onmouseover="mo(this)" onmouseout="mleave(this)">
      <circle class="node" r="15.0" cx="264.02884298150417" cy="159.71819383629796" fill="#3182BD"><title>judaicalink</title></circle>
      <a class="bubble" href="https://lod-cloud.net/dataset/judaicalink" target="_blank">
          <text x="264.02884298150417" y="159.71819383629796">Judaic...</text>
      </a>
    </g>
    <g id="49"
        onmouseover="mo(this)" onmouseout="mleave(this)">
      <circle class="node" r="20.6" cx="281.1310022368259" cy="103.50553873903934" fill="#3182BD"><title>grrt</title></circle>
      <a class="bubble" href="https://lod-cloud.net/dataset/grrt" target="_blank">
          <text x="281.1310022368259" y="103.50553873903934">Accomm...</text>
      </a>
    </g>
    <g id="50"
        onmouseover="mo(this)" onmouseout="mleave(this)">
      <circle class="node" r="20.2" cx="230.441241709339" cy="421.0313136624711" fill="#3182BD"><title>Uganda-Disasters-rdf-data_</title></circle>
      <a class="bubble" href="https://lod-cloud.net/dataset/Uganda-Disasters-rdf-data_" target="_blank">
          <text x="230.441241709339" y="421.0313136624711">Uganda...</text>
      </a>
    </g>
    <g transform="translate(20,617) scale(0.9453781512605043)">
      <text style="font-family: Verdana, Arial;">The Geography Linked Open Data Cloud from lod-cloud.net</text>
    </g>
      <g transform="translate(480, 600)">
<svg
   xmlns:dc="http://purl.org/dc/elements/1.1/"
   xmlns:cc="http://web.resource.org/cc/"
   xmlns:rdf="http://www.w3.org/1999/02/22-rdf-syntax-ns#"
   xmlns:svg="http://www.w3.org/2000/svg"
   xmlns="http://www.w3.org/2000/svg"
   xmlns:sodipodi="http://sodipodi.sourceforge.net/DTD/sodipodi-0.dtd"
   xmlns:inkscape="http://www.inkscape.org/namespaces/inkscape"
   width="120"
   height="42"
   id="svg2759"
   sodipodi:version="0.32"
   inkscape:version="0.45+devel"
   version="1.0"
   sodipodi:docname="by.svg"
   inkscape:output_extension="org.inkscape.output.svg.inkscape">
  <defs
     id="defs2761" />
  <sodipodi:namedview
     id="base"
     pagecolor="#ffffff"
     bordercolor="#8b8b8b"
     borderopacity="1"
     gridtolerance="10000"
     guidetolerance="10"
     objecttolerance="10"
     inkscape:pageopacity="0.0"
     inkscape:pageshadow="2"
     inkscape:zoom="1"
     inkscape:cx="179"
     inkscape:cy="89.569904"
     inkscape:document-units="px"
     inkscape:current-layer="layer1"
     width="120px"
     height="42px"
     inkscape:showpageshadow="false"
     inkscape:window-width="1198"
     inkscape:window-height="624"
     inkscape:window-x="396"
     inkscape:window-y="242" />
  <metadata
     id="metadata2764">
    <rdf:RDF>
      <cc:Work
         rdf:about="">
        <dc:format>image/svg+xml</dc:format>
        <dc:type
           rdf:resource="http://purl.org/dc/dcmitype/StillImage" />
      </cc:Work>
    </rdf:RDF>
  </metadata>
  <g
     inkscape:label="Layer 1"
     inkscape:groupmode="layer"
     id="layer1">
    <g
       transform="matrix(0.9937728,0,0,0.9936696,-177.69267,6.25128e-7)"
       id="g260"
       inkscape:export-filename="/mnt/hgfs/Bov/Documents/Work/2007/cc/identity/srr buttons/big/by.png"
       inkscape:export-xdpi="300.23013"
       inkscape:export-ydpi="300.23013">
	<path
   id="path3817_1_"
   nodetypes="ccccccc"
   d="M 181.96579,0.51074 L 296.02975,0.71338 C 297.6235,0.71338 299.04733,0.47705 299.04733,3.89404 L 298.90768,41.46093 L 179.08737,41.46093 L 179.08737,3.75439 C 179.08737,2.06934 179.25046,0.51074 181.96579,0.51074 z"
   style="fill:#aab2ab" />

	<path
   d="M 297.29636,0 L 181.06736,0 C 179.82078,0 178.80613,1.01416 178.80613,2.26074 L 178.80613,41.75732 C 178.80613,42.03906 179.03513,42.26757 179.31687,42.26757 L 299.04734,42.26757 C 299.32908,42.26757 299.55808,42.03905 299.55808,41.75732 L 299.55808,2.26074 C 299.55807,1.01416 298.54343,0 297.29636,0 z M 181.06735,1.02148 L 297.29635,1.02148 C 297.98043,1.02148 298.53658,1.57714 298.53658,2.26074 C 298.53658,2.26074 298.53658,18.20898 298.53658,29.71045 L 215.19234,29.71045 C 212.14742,35.21631 206.28121,38.95459 199.54879,38.95459 C 192.81344,38.95459 186.94869,35.21973 183.90524,29.71045 L 179.8276,29.71045 C 179.8276,18.20899 179.8276,2.26074 179.8276,2.26074 C 179.82761,1.57715 180.38376,1.02148 181.06735,1.02148 z"
   id="path263" />

	<g
   enable-background="new    "
   id="g265">
		<path
   d="M 253.07761,32.95605 C 253.39499,32.95605 253.68503,32.98437 253.94773,33.04003 C 254.20945,33.09569 254.43308,33.18749 254.62058,33.31542 C 254.8071,33.44237 254.95261,33.6123 255.05515,33.82323 C 255.15769,34.03514 255.20945,34.29589 255.20945,34.60741 C 255.20945,34.94335 255.13328,35.22264 254.97996,35.44628 C 254.82762,35.67089 254.60105,35.85351 254.30223,35.99706 C 254.71434,36.11522 255.02196,36.32226 255.22508,36.61815 C 255.4282,36.91404 255.52977,37.27049 255.52977,37.68749 C 255.52977,38.02343 255.46434,38.31444 255.33348,38.56054 C 255.20262,38.80566 255.02586,39.00683 254.80516,39.1621 C 254.58348,39.31835 254.33055,39.43358 254.04735,39.5078 C 253.76317,39.583 253.47215,39.6201 253.17235,39.6201 L 249.936,39.6201 L 249.936,32.95604 L 253.07761,32.95604 L 253.07761,32.95605 z M 252.89011,35.65137 C 253.15183,35.65137 253.36667,35.58887 253.53562,35.46485 C 253.70359,35.34083 253.78757,35.13965 253.78757,34.86036 C 253.78757,34.70509 253.75925,34.57716 253.70359,34.47852 C 253.64695,34.37891 253.57273,34.30176 253.47898,34.24512 C 253.38523,34.18946 253.27781,34.15039 253.15671,34.12891 C 253.03561,34.10743 252.90866,34.09668 252.77878,34.09668 L 251.40476,34.09668 L 251.40476,35.65137 L 252.89011,35.65137 z M 252.97604,38.47949 C 253.11959,38.47949 253.25631,38.46582 253.38717,38.4375 C 253.51803,38.40918 253.63326,38.3623 253.73385,38.29785 C 253.83346,38.23242 253.91256,38.14355 253.97213,38.03125 C 254.0317,37.91992 254.061,37.77637 254.061,37.60254 C 254.061,37.26074 253.96432,37.0166 253.77096,36.87012 C 253.5776,36.72461 253.32174,36.65137 253.00436,36.65137 L 251.40475,36.65137 L 251.40475,38.47949 L 252.97604,38.47949 z"
   id="path267"
   style="fill:#ffffff" />

		<path
   d="M 255.78854,32.95605 L 257.43209,32.95605 L 258.99264,35.58789 L 260.54342,32.95605 L 262.17721,32.95605 L 259.70358,37.0625 L 259.70358,39.62012 L 258.23483,39.62012 L 258.23483,37.02539 L 255.78854,32.95605 z"
   id="path269"
   style="fill:#ffffff" />

	</g>

	<g
   id="g5908_1_"
   transform="matrix(0.872921,0,0,0.872921,50.12536,143.2144)">
		
			<path
   id="path5906_1_"
   cx="296.35416"
   ry="22.939548"
   cy="264.3577"
   type="arc"
   rx="22.939548"
   d="M 186.90065,-141.46002 C 186.90623,-132.77923 179.87279,-125.73852 171.19257,-125.73291 C 162.51235,-125.72736 155.47051,-132.76025 155.46547,-141.44098 C 155.46547,-141.44714 155.46547,-141.45331 155.46547,-141.46002 C 155.46043,-150.14081 162.49333,-157.18152 171.17355,-157.18658 C 179.8549,-157.19213 186.89561,-150.15924 186.90065,-141.47845 C 186.90065,-141.4729 186.90065,-141.46619 186.90065,-141.46002 z"
   style="fill:#ffffff" />

		<g
   id="g5706_1_"
   transform="translate(-289.6157,99.0653)">
			<path
   id="path5708_1_"
   d="M 473.57574,-253.32751 C 477.06115,-249.8421 478.80413,-245.5736 478.80413,-240.52532 C 478.80413,-235.47594 477.09136,-231.25329 473.66582,-227.85741 C 470.03051,-224.28081 465.734,-222.49309 460.77635,-222.49309 C 455.87858,-222.49309 451.65648,-224.26628 448.11122,-227.81261 C 444.56541,-231.35845 442.79277,-235.59563 442.79277,-240.52532 C 442.79277,-245.45391 444.56541,-249.7213 448.11122,-253.32751 C 451.56642,-256.81402 455.7885,-258.557 460.77635,-258.557 C 465.82465,-258.55701 470.09039,-256.81403 473.57574,-253.32751 z M 450.45776,-250.98267 C 447.51104,-248.00629 446.03823,-244.51978 446.03823,-240.52033 C 446.03823,-236.52198 447.49651,-233.06507 450.41247,-230.14966 C 453.32897,-227.23316 456.80096,-225.77545 460.82952,-225.77545 C 464.85808,-225.77545 468.35967,-227.24768 471.33605,-230.19385 C 474.16198,-232.9303 475.57549,-236.37091 475.57549,-240.52033 C 475.57549,-244.63837 474.13903,-248.13379 471.26781,-251.00501 C 468.39714,-253.87568 464.9179,-255.31159 460.82952,-255.31159 C 456.74112,-255.31158 453.28314,-253.86841 450.45776,-250.98267 z M 458.21225,-242.27948 C 457.76196,-243.26117 457.08795,-243.75232 456.18903,-243.75232 C 454.59986,-243.75232 453.80558,-242.68225 453.80558,-240.54321 C 453.80558,-238.40368 454.59986,-237.33471 456.18903,-237.33471 C 457.23841,-237.33471 457.98795,-237.85546 458.43769,-238.89922 L 460.64045,-237.72625 C 459.59052,-235.86077 458.01536,-234.92779 455.91496,-234.92779 C 454.29506,-234.92779 452.99733,-235.42449 452.0229,-236.4168 C 451.0468,-237.41021 450.56016,-238.77953 450.56016,-240.52532 C 450.56016,-242.24035 451.06245,-243.60186 452.06764,-244.61034 C 453.07283,-245.61888 454.32466,-246.12291 455.82545,-246.12291 C 458.04557,-246.12291 459.63526,-245.24803 460.59626,-243.50005 L 458.21225,-242.27948 z M 468.57562,-242.27948 C 468.12475,-243.26117 467.46417,-243.75232 466.5932,-243.75232 C 464.97217,-243.75232 464.16107,-242.68225 464.16107,-240.54321 C 464.16107,-238.40368 464.97217,-237.33471 466.5932,-237.33471 C 467.64429,-237.33471 468.38037,-237.85546 468.80048,-238.89922 L 471.05249,-237.72625 C 470.00421,-235.86077 468.43127,-234.92779 466.33478,-234.92779 C 464.7171,-234.92779 463.42218,-235.42449 462.44831,-236.4168 C 461.47614,-237.41021 460.98896,-238.77953 460.98896,-240.52532 C 460.98896,-242.24035 461.48341,-243.60186 462.47181,-244.61034 C 463.45966,-245.61888 464.71711,-246.12291 466.24531,-246.12291 C 468.4615,-246.12291 470.04896,-245.24803 471.0066,-243.50005 L 468.57562,-242.27948 z" />

		</g>

	</g>

	<g
   id="g275">
		<circle
   cx="255.55124"
   cy="15.31348"
   r="10.80664"
   id="circle277"
   sodipodi:cx="255.55124"
   sodipodi:cy="15.31348"
   sodipodi:rx="10.80664"
   sodipodi:ry="10.80664"
   style="fill:#ffffff" />

		<g
   id="g279">
			<path
   d="M 258.67819,12.18701 C 258.67819,11.77051 258.3403,11.4331 257.92526,11.4331 L 253.15182,11.4331 C 252.73678,11.4331 252.39889,11.7705 252.39889,12.18701 L 252.39889,16.95996 L 253.72994,16.95996 L 253.72994,22.61182 L 257.34713,22.61182 L 257.34713,16.95996 L 258.67818,16.95996 L 258.67818,12.18701 L 258.67819,12.18701 z"
   id="path281" />

			<circle
   cx="255.53854"
   cy="9.1723604"
   r="1.63281"
   id="circle283"
   sodipodi:cx="255.53854"
   sodipodi:cy="9.1723604"
   sodipodi:rx="1.63281"
   sodipodi:ry="1.63281" />

		</g>

		<path
   clip-rule="evenodd"
   d="M 255.5239,3.40723 C 252.29148,3.40723 249.55515,4.53516 247.31589,6.79102 C 245.01804,9.12452 243.8696,11.88672 243.8696,15.07569 C 243.8696,18.26466 245.01804,21.00733 247.31589,23.30225 C 249.61374,25.59668 252.35007,26.74414 255.5239,26.74414 C 258.73679,26.74414 261.52195,25.58789 263.87742,23.27295 C 266.09715,21.07568 267.2075,18.34326 267.2075,15.07568 C 267.2075,11.8081 266.07762,9.04687 263.8198,6.79101 C 261.56003,4.53516 258.79538,3.40723 255.5239,3.40723 z M 255.55319,5.50684 C 258.20163,5.50684 260.45065,6.44092 262.30026,8.30811 C 264.1694,10.15528 265.10397,12.41114 265.10397,15.07569 C 265.10397,17.75928 264.18893,19.98633 262.35885,21.75587 C 260.43014,23.66212 258.16256,24.61476 255.55319,24.61476 C 252.94284,24.61476 250.69381,23.67189 248.80612,21.78517 C 246.91647,19.89845 245.97311,17.66212 245.97311,15.0757 C 245.97311,12.48879 246.92721,10.23341 248.83541,8.30812 C 250.6655,6.44092 252.90475,5.50684 255.55319,5.50684 z"
   id="path285"
   style="fill-rule:evenodd" />

	</g>

</g>
  </g>
</svg>

      </g>
  </g>
</svg>
