<svg
    xmlns="http://www.w3.org/2000/svg" width="600" height="642">
<script type="text/javascript"><![CDATA[
function mo(elem) {    
    var  line =document.getElementsByTagName("line")
 
  elem.setAttribute("class","circle-active");
    for(i = 0; i < line.length; i++) {                                          
                                                                                
        if(line[i].getAttributeNode("targetId").value === elem.id) {            
            line[i].setAttribute("class","link-activeIncoming");
            document.getElementById(line[i].getAttributeNode("sourceId").value).setAttribute("class","circle-active");

        } 
        if(line[i].getAttributeNode("sourceId").value === elem.id) {            
            line[i].setAttribute("class","link-activeOutgoung");
            document.getElementById(line[i].getAttributeNode("targetId").value).setAttribute("class","circle-active");

        }
        if((line[i].getAttributeNode("targetId").value === elem.id)&&(line[i].getAttributeNode("sourceId").value === elem.id)) {            
            line[i].setAttribute("class","link-activeBoth");
             document.getElementById(line[i].getAttributeNode("targetId").value).setAttribute("class","circle-active");
             document.getElementById(line[i].getAttributeNode("sourceId").value).setAttribute("class","circle-active");
        }                                                                              
    }                                                                           
}

function mleave(elem) {                   
    elem.setAttribute("class","circle-pasive");                                      
    var line = document.getElementsByTagName("line");                           
    for(i = 0; i < line.length; i++) {                                          
                                                                                
        if(line[i].getAttributeNode("targetId").value === elem.id) {     
        document.getElementById(line[i].getAttributeNode("sourceId").value).setAttribute("class","circle-pasive");       
            line[i].setAttribute("class","link");       
        }
        if(line[i].getAttributeNode("sourceId").value === elem.id) {            
            document.getElementById(line[i].getAttributeNode("targetId").value).setAttribute("class","circle-pasive");
            line[i].setAttribute("class","link");       
        }                                                                          
    }                                                                           
}
]]></script>
  <style>
    circle { 
        stroke: #333;
        stroke-width: 1.5px;
        fill-opacity: 0.8; 
    } 
    .bubble text {
        text-anchor: middle;
        font-size: .5em;
    }
    .circle-active circle { 
        stroke: #e80000;  
        stroke-width: 3px; 
    } 
    .link { 
        stroke: #e0270b;  
        stroke: #555;  
        stroke-opacity: 0.7;  
        stroke-width: 1px;  
        stroke-dasharray:none;
    } 
    .link-activeIncoming {  
        stroke-opacity: 1; 
        stroke-width: 10;  
        stroke: #be1b38; 
    } 
    .link-activeOutgoung {  
        stroke-opacity: 1;  
        stroke-width: 10; 
        stroke: #1AC21D;  
    } 
    .link-activeBoth {  
        stroke-opacity: 1;  
        stroke: #1AC21D;  
        stroke-width: 10;  
        stroke-dasharray:5,10,5;}
  </style>
  <g transform="scale(0.5)">
    <g id="legend">
      <text transform="translate(30,30)" style="font-family:Verdana, Arial, DejaVu Sans;font-size:200%;text-decoration:underline;">Legend</text>
      <rect width="310" height="35" style="fill:#3182BD" transform="translate(30,45)"/>
      <text transform="translate(35,72)" style="font-family:Verdana, Arial;font-size:200%">Geography</text>
    </g>
  </g>
  <g class="links">
    <line class="link" targetId="0" sourceId="1" x1="312.4500821301698" y1="180.97358302322874" x2="315.70673996866486" y2="280.2678191858057"/>
    <line class="link" targetId="0" sourceId="2" x1="312.4500821301698" y1="180.97358302322874" x2="259.6681955844872" y2="281.3019523499446"/>
    <line class="link" targetId="3" sourceId="4" x1="369.32928129369395" y1="180.4465004570143" x2="320.41165540091123" y2="379.68210654004486"/>
    <line class="link" targetId="3" sourceId="1" x1="369.32928129369395" y1="180.4465004570143" x2="315.70673996866486" y2="280.2678191858057"/>
    <line class="link" targetId="3" sourceId="2" x1="369.32928129369395" y1="180.4465004570143" x2="259.6681955844872" y2="281.3019523499446"/>
    <line class="link" targetId="5" sourceId="4" x1="491.8508528346945" y1="376.4331520600976" x2="320.41165540091123" y2="379.68210654004486"/>
    <line class="link" targetId="6" sourceId="1" x1="343.1724353467895" y1="230.658527581739" x2="315.70673996866486" y2="280.2678191858057"/>
    <line class="link" targetId="7" sourceId="1" x1="426.34446433166704" y1="176.36207211102385" x2="315.70673996866486" y2="280.2678191858057"/>
    <line class="link" targetId="7" sourceId="4" x1="426.34446433166704" y1="176.36207211102385" x2="320.41165540091123" y2="379.68210654004486"/>
    <line class="link" targetId="8" sourceId="1" x1="457.2203079469899" y1="224.83837548995217" x2="315.70673996866486" y2="280.2678191858057"/>
    <line class="link" targetId="8" sourceId="4" x1="457.2203079469899" y1="224.83837548995217" x2="320.41165540091123" y2="379.68210654004486"/>
    <line class="link" targetId="9" sourceId="1" x1="488.67555177422355" y1="272.5043071821144" x2="315.70673996866486" y2="280.2678191858057"/>
    <line class="link" targetId="9" sourceId="10" x1="488.67555177422355" y1="272.5043071821144" x2="341.83394113101303" y2="130.32279537200455"/>
    <line class="link" targetId="11" sourceId="1" x1="431.3053188609207" y1="276.70608576744274" x2="315.70673996866486" y2="280.2678191858057"/>
    <line class="link" targetId="11" sourceId="12" x1="431.3053188609207" y1="276.70608576744274" x2="519.7636062719334" y2="321.5961160284134"/>
    <line class="link" targetId="13" sourceId="1" x1="461.72630491744326" y1="325.62606079784354" x2="315.70673996866486" y2="280.2678191858057"/>
    <line class="link" targetId="14" sourceId="1" x1="346.3339805404318" y1="328.7583659078778" x2="315.70673996866486" y2="280.2678191858057"/>
    <line class="link" targetId="14" sourceId="4" x1="346.3339805404318" y1="328.7583659078778" x2="320.41165540091123" y2="379.68210654004486"/>
    <line class="link" targetId="15" sourceId="1" x1="404.0473712943217" y1="327.09259952633136" x2="315.70673996866486" y2="280.2678191858057"/>
    <line class="link" targetId="16" sourceId="1" x1="376.5636670678243" y1="376.9562517863261" x2="315.70673996866486" y2="280.2678191858057"/>
    <line class="link" targetId="16" sourceId="17" x1="376.5636670678243" y1="376.9562517863261" x2="290.09361569235426" y2="331.20980532878747"/>
    <line class="link" targetId="16" sourceId="2" x1="376.5636670678243" y1="376.9562517863261" x2="259.6681955844872" y2="281.3019523499446"/>
    <line class="link" targetId="18" sourceId="4" x1="373.5039806926226" y1="278.96550470507134" x2="320.41165540091123" y2="379.68210654004486"/>
    <line class="link" targetId="1" sourceId="4" x1="315.70673996866486" y1="280.2678191858057" x2="320.41165540091123" y2="379.68210654004486"/>
    <line class="link" targetId="1" sourceId="2" x1="315.70673996866486" y1="280.2678191858057" x2="259.6681955844872" y2="281.3019523499446"/>
    <line class="link" targetId="19" sourceId="20" x1="112.48181590561711" y1="233.3543700996076" x2="198.44874070177445" y2="181.93269289669186"/>
    <line class="link" targetId="21" sourceId="4" x1="433.989767231903" y1="376.77745498301056" x2="320.41165540091123" y2="379.68210654004486"/>
    <line class="link" targetId="22" sourceId="1" x1="262.88990557956913" y1="381.2003561020297" x2="315.70673996866486" y2="280.2678191858057"/>
    <line class="link" targetId="23" sourceId="1" x1="233.3540558739903" y1="331.5328560777267" x2="315.70673996866486" y2="280.2678191858057"/>
    <line class="link" targetId="23" sourceId="24" x1="233.3540558739903" y1="331.5328560777267" x2="141.22090388509915" y2="183.7993592306886"/>
    <line class="link" targetId="23" sourceId="14" x1="233.3540558739903" y1="331.5328560777267" x2="346.3339805404318" y2="328.7583659078778"/>
    <line class="link" targetId="25" sourceId="4" x1="464.4262477716119" y1="428.6114096878324" x2="320.41165540091123" y2="379.68210654004486"/>
    <line class="link" targetId="26" sourceId="1" x1="205.71872137436887" y1="382.78295807107315" x2="315.70673996866486" y2="280.2678191858057"/>
    <line class="link" targetId="26" sourceId="27" x1="205.71872137436887" y1="382.78295807107315" x2="176.80215136123647" y2="433.31749984163844"/>
    <line class="link" targetId="28" sourceId="4" x1="406.8645617910339" y1="427.4323646163033" x2="320.41165540091123" y2="379.68210654004486"/>
    <line class="link" targetId="29" sourceId="1" x1="148.46232943506467" y1="382.2593064750798" x2="315.70673996866486" y2="280.2678191858057"/>
    <line class="link" targetId="29" sourceId="30" x1="148.46232943506467" y1="382.2593064750798" x2="255.54308956279527" y2="182.31036620644772"/>
    <line class="link" targetId="31" sourceId="1" x1="176.49194621882805" y1="332.6246427886755" x2="315.70673996866486" y2="280.2678191858057"/>
    <line class="link" targetId="31" sourceId="4" x1="176.49194621882805" y1="332.6246427886755" x2="320.41165540091123" y2="379.68210654004486"/>
    <line class="link" targetId="32" sourceId="4" x1="380.97920278432144" y1="479.1432154664361" x2="320.41165540091123" y2="379.68210654004486"/>
    <line class="link" targetId="33" sourceId="2" x1="86.33864603644989" y1="285.1348145258002" x2="259.6681955844872" y2="281.3019523499446"/>
    <line class="link" targetId="34" sourceId="1" x1="117.17715025506004" y1="334.229308949663" x2="315.70673996866486" y2="280.2678191858057"/>
    <line class="link" targetId="35" sourceId="4" x1="296.88575043588486" y1="530.927780608471" x2="320.41165540091123" y2="379.68210654004486"/>
    <line class="link" targetId="36" sourceId="1" x1="145.01751949686613" y1="283.6779083465191" x2="315.70673996866486" y2="280.2678191858057"/>
    <line class="link" targetId="37" sourceId="20" x1="188.6848435339366" y1="125.16586592734762" x2="198.44874070177445" y2="181.93269289669186"/>
    <line class="link" targetId="38" sourceId="4" x1="349.94024099950633" y1="428.52867244816935" x2="320.41165540091123" y2="379.68210654004486"/>
    <line class="link" targetId="2" sourceId="1" x1="259.6681955844872" y1="281.3019523499446" x2="315.70673996866486" y2="280.2678191858057"/>
    <line class="link" targetId="39" sourceId="4" x1="323.14076838260456" y1="479.3652331439682" x2="320.41165540091123" y2="379.68210654004486"/>
    <line class="link" targetId="40" sourceId="4" x1="292.731333016247" y1="430.2100264562299" x2="320.41165540091123" y2="379.68210654004486"/>
    <line class="link" targetId="41" sourceId="42" x1="228.89271949020386" y1="232.40707948119586" x2="202.66990509576135" y2="282.02971743682633"/>
    <line class="link" targetId="41" sourceId="1" x1="228.89271949020386" y1="232.40707948119586" x2="315.70673996866486" y2="280.2678191858057"/>
    <line class="link" targetId="43" sourceId="6" x1="400.1845566456408" y1="228.32183215398047" x2="343.1724353467895" y2="230.658527581739"/>
    <line class="link" targetId="44" sourceId="4" x1="265.0227452950547" y1="481.72041537582254" x2="320.41165540091123" y2="379.68210654004486"/>
    <line class="link" targetId="42" sourceId="41" x1="202.66990509576135" y1="282.02971743682633" x2="228.89271949020386" y2="232.40707948119586"/>
    <line class="link" targetId="42" sourceId="1" x1="202.66990509576135" y1="282.02971743682633" x2="315.70673996866486" y2="280.2678191858057"/>
    <line class="link" targetId="42" sourceId="4" x1="202.66990509576135" y1="282.02971743682633" x2="320.41165540091123" y2="379.68210654004486"/>
    <line class="link" targetId="42" sourceId="24" x1="202.66990509576135" y1="282.02971743682633" x2="141.22090388509915" y2="183.7993592306886"/>
    <line class="link" targetId="20" sourceId="1" x1="198.44874070177445" y1="181.93269289669186" x2="315.70673996866486" y2="280.2678191858057"/>
    <line class="link" targetId="45" sourceId="1" x1="286.2449740516668" y1="231.46359451523125" x2="315.70673996866486" y2="280.2678191858057"/>
    <line class="link" targetId="45" sourceId="4" x1="286.2449740516668" y1="231.46359451523125" x2="320.41165540091123" y2="379.68210654004486"/>
    <line class="link" targetId="46" sourceId="24" x1="170.94821885350478" y1="232.54801921145517" x2="141.22090388509915" y2="183.7993592306886"/>
    <line class="link" targetId="30" sourceId="1" x1="255.54308956279527" y1="182.31036620644772" x2="315.70673996866486" y2="280.2678191858057"/>
    <line class="link" targetId="30" sourceId="29" x1="255.54308956279527" y1="182.31036620644772" x2="148.46232943506467" y2="382.2593064750798"/>
    <line class="link" targetId="10" sourceId="1" x1="341.83394113101303" y1="130.32279537200455" x2="315.70673996866486" y2="280.2678191858057"/>
    <line class="link" targetId="17" sourceId="16" x1="290.09361569235426" y1="331.20980532878747" x2="376.5636670678243" y2="376.9562517863261"/>
    <line class="link" targetId="47" sourceId="4" x1="235.19515125160513" y1="432.35974621623063" x2="320.41165540091123" y2="379.68210654004486"/>
  </g>
  <g class="nodes">
    <g id="0"
        onmouseover="mo(this)" onmouseout="mleave(this)">
      <circle class="node" r="15.0" cx="312.4500821301698" cy="180.97358302322874" fill="#3182BD"><title>linked-logainm</title></circle>
      <a class="bubble" href="https://lod-cloud.net/dataset/linked-logainm" target="_blank">
          <text x="312.4500821301698" y="180.97358302322874">Linked...</text>
      </a>
    </g>
    <g id="1"
        onmouseover="mo(this)" onmouseout="mleave(this)">
      <circle class="node" r="25.0" cx="315.70673996866486" cy="280.2678191858057" fill="#3182BD"><title>dbpedia</title></circle>
      <a class="bubble" href="https://lod-cloud.net/dataset/dbpedia" target="_blank">
          <text x="315.70673996866486" y="280.2678191858057">DBpedia</text>
      </a>
    </g>
    <g id="2"
        onmouseover="mo(this)" onmouseout="mleave(this)">
      <circle class="node" r="24.5" cx="259.6681955844872" cy="281.3019523499446" fill="#3182BD"><title>linkedgeodata</title></circle>
      <a class="bubble" href="https://lod-cloud.net/dataset/linkedgeodata" target="_blank">
          <text x="259.6681955844872" y="281.3019523499446">Linked...</text>
      </a>
    </g>
    <g id="3"
        onmouseover="mo(this)" onmouseout="mleave(this)">
      <circle class="node" r="23.6" cx="369.32928129369395" cy="180.4465004570143" fill="#3182BD"><title>Smart_POI_dataset</title></circle>
      <a class="bubble" href="https://lod-cloud.net/dataset/Smart_POI_dataset" target="_blank">
          <text x="369.32928129369395" y="180.4465004570143">Smart ...</text>
      </a>
    </g>
    <g id="4"
        onmouseover="mo(this)" onmouseout="mleave(this)">
      <circle class="node" r="23.0" cx="320.41165540091123" cy="379.68210654004486" fill="#3182BD"><title>geonames-semantic-web</title></circle>
      <a class="bubble" href="https://lod-cloud.net/dataset/geonames-semantic-web" target="_blank">
          <text x="320.41165540091123" y="379.68210654004486">GeoNam...</text>
      </a>
    </g>
    <g id="5"
        onmouseover="mo(this)" onmouseout="mleave(this)">
      <circle class="node" r="15.0" cx="491.8508528346945" cy="376.4331520600976" fill="#3182BD"><title>statusnet-ldn-fai-net</title></circle>
      <a class="bubble" href="https://lod-cloud.net/dataset/statusnet-ldn-fai-net" target="_blank">
          <text x="491.8508528346945" y="376.4331520600976">status...</text>
      </a>
    </g>
    <g id="6"
        onmouseover="mo(this)" onmouseout="mleave(this)">
      <circle class="node" r="20.5" cx="343.1724353467895" cy="230.658527581739" fill="#3182BD"><title>nuts-geovocab</title></circle>
      <a class="bubble" href="https://lod-cloud.net/dataset/nuts-geovocab" target="_blank">
          <text x="343.1724353467895" y="230.658527581739">NUTS (...</text>
      </a>
    </g>
    <g id="7"
        onmouseover="mo(this)" onmouseout="mleave(this)">
      <circle class="node" r="23.5" cx="426.34446433166704" cy="176.36207211102385" fill="#3182BD"><title>near</title></circle>
      <a class="bubble" href="https://lod-cloud.net/dataset/near" target="_blank">
          <text x="426.34446433166704" y="176.36207211102385">Near</text>
      </a>
    </g>
    <g id="8"
        onmouseover="mo(this)" onmouseout="mleave(this)">
      <circle class="node" r="19.9" cx="457.2203079469899" cy="224.83837548995217" fill="#3182BD"><title>los_metar</title></circle>
      <a class="bubble" href="https://lod-cloud.net/dataset/los_metar" target="_blank">
          <text x="457.2203079469899" y="224.83837548995217">Weathe...</text>
      </a>
    </g>
    <g id="9"
        onmouseover="mo(this)" onmouseout="mleave(this)">
      <circle class="node" r="15.0" cx="488.67555177422355" cy="272.5043071821144" fill="#3182BD"><title>eea-vocabularies</title></circle>
      <a class="bubble" href="https://lod-cloud.net/dataset/eea-vocabularies" target="_blank">
          <text x="488.67555177422355" y="272.5043071821144">EEA Vo...</text>
      </a>
    </g>
    <g id="10"
        onmouseover="mo(this)" onmouseout="mleave(this)">
      <circle class="node" r="19.4" cx="341.83394113101303" cy="130.32279537200455" fill="#3182BD"><title>fao-geopolitical-ontology</title></circle>
      <a class="bubble" href="https://lod-cloud.net/dataset/fao-geopolitical-ontology" target="_blank">
          <text x="341.83394113101303" y="130.32279537200455">FAO ge...</text>
      </a>
    </g>
    <g id="11"
        onmouseover="mo(this)" onmouseout="mleave(this)">
      <circle class="node" r="19.2" cx="431.3053188609207" cy="276.70608576744274" fill="#3182BD"><title>GTS</title></circle>
      <a class="bubble" href="https://lod-cloud.net/dataset/GTS" target="_blank">
          <text x="431.3053188609207" y="276.70608576744274">Geolog...</text>
      </a>
    </g>
    <g id="12"
        onmouseover="mo(this)" onmouseout="mleave(this)">
      <circle class="node" r="17.9" cx="519.7636062719334" cy="321.5961160284134" fill="#3182BD"><title>GTS-ont</title></circle>
      <a class="bubble" href="https://lod-cloud.net/dataset/GTS-ont" target="_blank">
          <text x="519.7636062719334" y="321.5961160284134">Geolog...</text>
      </a>
    </g>
    <g id="13"
        onmouseover="mo(this)" onmouseout="mleave(this)">
      <circle class="node" r="19.6" cx="461.72630491744326" cy="325.62606079784354" fill="#3182BD"><title>geological-survey-of-austria-thesaurus</title></circle>
      <a class="bubble" href="https://lod-cloud.net/dataset/geological-survey-of-austria-thesaurus" target="_blank">
          <text x="461.72630491744326" y="325.62606079784354">Geolog...</text>
      </a>
    </g>
    <g id="14"
        onmouseover="mo(this)" onmouseout="mleave(this)">
      <circle class="node" r="19.2" cx="346.3339805404318" cy="328.7583659078778" fill="#3182BD"><title>telegraphis</title></circle>
      <a class="bubble" href="https://lod-cloud.net/dataset/telegraphis" target="_blank">
          <text x="346.3339805404318" y="328.7583659078778">Telegr...</text>
      </a>
    </g>
    <g id="15"
        onmouseover="mo(this)" onmouseout="mleave(this)">
      <circle class="node" r="17.6" cx="404.0473712943217" cy="327.09259952633136" fill="#3182BD"><title>the-view-from</title></circle>
      <a class="bubble" href="https://lod-cloud.net/dataset/the-view-from" target="_blank">
          <text x="404.0473712943217" y="327.09259952633136">The Vi...</text>
      </a>
    </g>
    <g id="16"
        onmouseover="mo(this)" onmouseout="mleave(this)">
      <circle class="node" r="22.3" cx="376.5636670678243" cy="376.9562517863261" fill="#3182BD"><title>openmobilenetwork</title></circle>
      <a class="bubble" href="https://lod-cloud.net/dataset/openmobilenetwork" target="_blank">
          <text x="376.5636670678243" y="376.9562517863261">OpenMo...</text>
      </a>
    </g>
    <g id="17"
        onmouseover="mo(this)" onmouseout="mleave(this)">
      <circle class="node" r="19.2" cx="290.09361569235426" cy="331.20980532878747" fill="#3182BD"><title>linkedcrowdsourceddata</title></circle>
      <a class="bubble" href="https://lod-cloud.net/dataset/linkedcrowdsourceddata" target="_blank">
          <text x="290.09361569235426" y="331.20980532878747">Linked...</text>
      </a>
    </g>
    <g id="18"
        onmouseover="mo(this)" onmouseout="mleave(this)">
      <circle class="node" r="18.9" cx="373.5039806926226" cy="278.96550470507134" fill="#3182BD"><title>norwegian-geo-divisions</title></circle>
      <a class="bubble" href="https://lod-cloud.net/dataset/norwegian-geo-divisions" target="_blank">
          <text x="373.5039806926226" y="278.96550470507134">Norweg...</text>
      </a>
    </g>
    <g id="19"
        onmouseover="mo(this)" onmouseout="mleave(this)">
      <circle class="node" r="22.4" cx="112.48181590561711" cy="233.3543700996076" fill="#3182BD"><title>oceandrilling-forams</title></circle>
      <a class="bubble" href="https://lod-cloud.net/dataset/oceandrilling-forams" target="_blank">
          <text x="112.48181590561711" y="233.3543700996076">Ocean ...</text>
      </a>
    </g>
    <g id="20"
        onmouseover="mo(this)" onmouseout="mleave(this)">
      <circle class="node" r="22.4" cx="198.44874070177445" cy="181.93269289669186" fill="#3182BD"><title>oceandrilling-codices</title></circle>
      <a class="bubble" href="https://lod-cloud.net/dataset/oceandrilling-codices" target="_blank">
          <text x="198.44874070177445" y="181.93269289669186">Ocean ...</text>
      </a>
    </g>
    <g id="21"
        onmouseover="mo(this)" onmouseout="mleave(this)">
      <circle class="node" r="21.7" cx="433.989767231903" cy="376.77745498301056" fill="#3182BD"><title>riese</title></circle>
      <a class="bubble" href="https://lod-cloud.net/dataset/riese" target="_blank">
          <text x="433.989767231903" y="376.77745498301056">RDFizi...</text>
      </a>
    </g>
    <g id="22"
        onmouseover="mo(this)" onmouseout="mleave(this)">
      <circle class="node" r="21.4" cx="262.88990557956913" cy="381.2003561020297" fill="#3182BD"><title>pleiades</title></circle>
      <a class="bubble" href="https://lod-cloud.net/dataset/pleiades" target="_blank">
          <text x="262.88990557956913" y="381.2003561020297">Pleiades</text>
      </a>
    </g>
    <g id="23"
        onmouseover="mo(this)" onmouseout="mleave(this)">
      <circle class="node" r="22.7" cx="233.3540558739903" cy="331.5328560777267" fill="#3182BD"><title>yahoo_geoplanet</title></circle>
      <a class="bubble" href="https://lod-cloud.net/dataset/yahoo_geoplanet" target="_blank">
          <text x="233.3540558739903" y="331.5328560777267">Yahoo ...</text>
      </a>
    </g>
    <g id="24"
        onmouseover="mo(this)" onmouseout="mleave(this)">
      <circle class="node" r="21.4" cx="141.22090388509915" cy="183.7993592306886" fill="#3182BD"><title>ordnance-survey-linked-data</title></circle>
      <a class="bubble" href="https://lod-cloud.net/dataset/ordnance-survey-linked-data" target="_blank">
          <text x="141.22090388509915" y="183.7993592306886">Ordnan...</text>
      </a>
    </g>
    <g id="25"
        onmouseover="mo(this)" onmouseout="mleave(this)">
      <circle class="node" r="15.0" cx="464.4262477716119" cy="428.6114096878324" fill="#3182BD"><title>taiwan-geographic-names</title></circle>
      <a class="bubble" href="https://lod-cloud.net/dataset/taiwan-geographic-names" target="_blank">
          <text x="464.4262477716119" y="428.6114096878324">Taiwan...</text>
      </a>
    </g>
    <g id="26"
        onmouseover="mo(this)" onmouseout="mleave(this)">
      <circle class="node" r="16.3" cx="205.71872137436887" cy="382.78295807107315" fill="#3182BD"><title>Earthquake_case</title></circle>
      <a class="bubble" href="https://lod-cloud.net/dataset/Earthquake_case" target="_blank">
          <text x="205.71872137436887" y="382.78295807107315">ESO</text>
      </a>
    </g>
    <g id="27"
        onmouseover="mo(this)" onmouseout="mleave(this)">
      <circle class="node" r="18.5" cx="176.80215136123647" cy="433.31749984163844" fill="#3182BD"><title>Earthquake</title></circle>
      <a class="bubble" href="https://lod-cloud.net/dataset/Earthquake" target="_blank">
          <text x="176.80215136123647" y="433.31749984163844">Emerge...</text>
      </a>
    </g>
    <g id="28"
        onmouseover="mo(this)" onmouseout="mleave(this)">
      <circle class="node" r="15.0" cx="406.8645617910339" cy="427.4323646163033" fill="#3182BD"><title>knoesis-linked-sensor-data</title></circle>
      <a class="bubble" href="https://lod-cloud.net/dataset/knoesis-linked-sensor-data" target="_blank">
          <text x="406.8645617910339" y="427.4323646163033">Linked...</text>
      </a>
    </g>
    <g id="29"
        onmouseover="mo(this)" onmouseout="mleave(this)">
      <circle class="node" r="20.6" cx="148.46232943506467" cy="382.2593064750798" fill="#3182BD"><title>thist</title></circle>
      <a class="bubble" href="https://lod-cloud.net/dataset/thist" target="_blank">
          <text x="148.46232943506467" y="382.2593064750798">ThIST</text>
      </a>
    </g>
    <g id="30"
        onmouseover="mo(this)" onmouseout="mleave(this)">
      <circle class="node" r="20.1" cx="255.54308956279527" cy="182.31036620644772" fill="#3182BD"><title>environmental-applications-reference-thesaurus</title></circle>
      <a class="bubble" href="https://lod-cloud.net/dataset/environmental-applications-reference-thesaurus" target="_blank">
          <text x="255.54308956279527" y="182.31036620644772">EARTh</text>
      </a>
    </g>
    <g id="31"
        onmouseover="mo(this)" onmouseout="mleave(this)">
      <circle class="node" r="20.9" cx="176.49194621882805" cy="332.6246427886755" fill="#3182BD"><title>lobid-organisations</title></circle>
      <a class="bubble" href="https://lod-cloud.net/dataset/lobid-organisations" target="_blank">
          <text x="176.49194621882805" y="332.6246427886755">lobid-...</text>
      </a>
    </g>
    <g id="32"
        onmouseover="mo(this)" onmouseout="mleave(this)">
      <circle class="node" r="15.0" cx="380.97920278432144" cy="479.1432154664361" fill="#3182BD"><title>eventseer</title></circle>
      <a class="bubble" href="https://lod-cloud.net/dataset/eventseer" target="_blank">
          <text x="380.97920278432144" y="479.1432154664361">Eventseer</text>
      </a>
    </g>
    <g id="33"
        onmouseover="mo(this)" onmouseout="mleave(this)">
      <circle class="node" r="20.1" cx="86.33864603644989" cy="285.1348145258002" fill="#3182BD"><title>osm-semantic-network</title></circle>
      <a class="bubble" href="https://lod-cloud.net/dataset/osm-semantic-network" target="_blank">
          <text x="86.33864603644989" y="285.1348145258002">OSM Se...</text>
      </a>
    </g>
    <g id="34"
        onmouseover="mo(this)" onmouseout="mleave(this)">
      <circle class="node" r="20.6" cx="117.17715025506004" cy="334.229308949663" fill="#3182BD"><title>grrt</title></circle>
      <a class="bubble" href="https://lod-cloud.net/dataset/grrt" target="_blank">
          <text x="117.17715025506004" y="334.229308949663">Accomm...</text>
      </a>
    </g>
    <g id="35"
        onmouseover="mo(this)" onmouseout="mleave(this)">
      <circle class="node" r="22.7" cx="296.88575043588486" cy="530.927780608471" fill="#3182BD"><title>geowordnet</title></circle>
      <a class="bubble" href="https://lod-cloud.net/dataset/geowordnet" target="_blank">
          <text x="296.88575043588486" y="530.927780608471">GeoWor...</text>
      </a>
    </g>
    <g id="36"
        onmouseover="mo(this)" onmouseout="mleave(this)">
      <circle class="node" r="20.7" cx="145.01751949686613" cy="283.6779083465191" fill="#3182BD"><title>fishes-of-texas</title></circle>
      <a class="bubble" href="https://lod-cloud.net/dataset/fishes-of-texas" target="_blank">
          <text x="145.01751949686613" y="283.6779083465191">Fishes...</text>
      </a>
    </g>
    <g id="37"
        onmouseover="mo(this)" onmouseout="mleave(this)">
      <circle class="node" r="22.4" cx="188.6848435339366" cy="125.16586592734762" fill="#3182BD"><title>oceandrilling-janusamp</title></circle>
      <a class="bubble" href="https://lod-cloud.net/dataset/oceandrilling-janusamp" target="_blank">
          <text x="188.6848435339366" y="125.16586592734762">Ocean ...</text>
      </a>
    </g>
    <g id="38"
        onmouseover="mo(this)" onmouseout="mleave(this)">
      <circle class="node" r="15.0" cx="349.94024099950633" cy="428.52867244816935" fill="#3182BD"><title>statusnet-hii-co-il</title></circle>
      <a class="bubble" href="https://lod-cloud.net/dataset/statusnet-hii-co-il" target="_blank">
          <text x="349.94024099950633" y="428.52867244816935">status...</text>
      </a>
    </g>
    <g id="39"
        onmouseover="mo(this)" onmouseout="mleave(this)">
      <circle class="node" r="20.2" cx="323.14076838260456" cy="479.3652331439682" fill="#3182BD"><title>Uganda-Disasters-rdf-data_</title></circle>
      <a class="bubble" href="https://lod-cloud.net/dataset/Uganda-Disasters-rdf-data_" target="_blank">
          <text x="323.14076838260456" y="479.3652331439682">Uganda...</text>
      </a>
    </g>
    <g id="40"
        onmouseover="mo(this)" onmouseout="mleave(this)">
      <circle class="node" r="15.0" cx="292.731333016247" cy="430.2100264562299" fill="#3182BD"><title>greek-administrative-geography</title></circle>
      <a class="bubble" href="https://lod-cloud.net/dataset/greek-administrative-geography" target="_blank">
          <text x="292.731333016247" y="430.2100264562299">greek-...</text>
      </a>
    </g>
    <g id="41"
        onmouseover="mo(this)" onmouseout="mleave(this)">
      <circle class="node" r="20.2" cx="228.89271949020386" cy="232.40707948119586" fill="#3182BD"><title>data-incubator-climb</title></circle>
      <a class="bubble" href="https://lod-cloud.net/dataset/data-incubator-climb" target="_blank">
          <text x="228.89271949020386" y="232.40707948119586">Climb ...</text>
      </a>
    </g>
    <g id="42"
        onmouseover="mo(this)" onmouseout="mleave(this)">
      <circle class="node" r="19.2" cx="202.66990509576135" cy="282.02971743682633" fill="#3182BD"><title>data-incubator-smcjournals</title></circle>
      <a class="bubble" href="https://lod-cloud.net/dataset/data-incubator-smcjournals" target="_blank">
          <text x="202.66990509576135" y="282.02971743682633">Scotti...</text>
      </a>
    </g>
    <g id="43"
        onmouseover="mo(this)" onmouseout="mleave(this)">
      <circle class="node" r="20.1" cx="400.1845566456408" cy="228.32183215398047" fill="#3182BD"><title>eumida-linked-data</title></circle>
      <a class="bubble" href="https://lod-cloud.net/dataset/eumida-linked-data" target="_blank">
          <text x="400.1845566456408" y="228.32183215398047">EUMIDA...</text>
      </a>
    </g>
    <g id="44"
        onmouseover="mo(this)" onmouseout="mleave(this)">
      <circle class="node" r="20.2" cx="265.0227452950547" cy="481.72041537582254" fill="#3182BD"><title>grrp</title></circle>
      <a class="bubble" href="https://lod-cloud.net/dataset/grrp" target="_blank">
          <text x="265.0227452950547" y="481.72041537582254">Accomm...</text>
      </a>
    </g>
    <g id="45"
        onmouseover="mo(this)" onmouseout="mleave(this)">
      <circle class="node" r="22.3" cx="286.2449740516668" cy="231.46359451523125" fill="#3182BD"><title>geolinkeddata</title></circle>
      <a class="bubble" href="https://lod-cloud.net/dataset/geolinkeddata" target="_blank">
          <text x="286.2449740516668" y="231.46359451523125">GeoLin...</text>
      </a>
    </g>
    <g id="46"
        onmouseover="mo(this)" onmouseout="mleave(this)">
      <circle class="node" r="22.4" cx="170.94821885350478" cy="232.54801921145517" fill="#3182BD"><title>uk-postcodes</title></circle>
      <a class="bubble" href="https://lod-cloud.net/dataset/uk-postcodes" target="_blank">
          <text x="170.94821885350478" y="232.54801921145517">UK Pos...</text>
      </a>
    </g>
    <g id="47"
        onmouseover="mo(this)" onmouseout="mleave(this)">
      <circle class="node" r="15.0" cx="235.19515125160513" cy="432.35974621623063" fill="#3182BD"><title>statusnet-coreyavis-com</title></circle>
      <a class="bubble" href="https://lod-cloud.net/dataset/statusnet-coreyavis-com" target="_blank">
          <text x="235.19515125160513" y="432.35974621623063">status...</text>
      </a>
    </g>
    <g transform="translate(20,617) scale(0.9453781512605043)">
      <text style="font-family: Verdana, Arial;">The Geography Linked Open Data Cloud from lod-cloud.net</text>
    </g>
      <g transform="translate(480, 600)">
<svg
   xmlns:dc="http://purl.org/dc/elements/1.1/"
   xmlns:cc="http://web.resource.org/cc/"
   xmlns:rdf="http://www.w3.org/1999/02/22-rdf-syntax-ns#"
   xmlns:svg="http://www.w3.org/2000/svg"
   xmlns="http://www.w3.org/2000/svg"
   xmlns:sodipodi="http://sodipodi.sourceforge.net/DTD/sodipodi-0.dtd"
   xmlns:inkscape="http://www.inkscape.org/namespaces/inkscape"
   width="120"
   height="42"
   id="svg2759"
   sodipodi:version="0.32"
   inkscape:version="0.45+devel"
   version="1.0"
   sodipodi:docname="by.svg"
   inkscape:output_extension="org.inkscape.output.svg.inkscape">
  <defs
     id="defs2761" />
  <sodipodi:namedview
     id="base"
     pagecolor="#ffffff"
     bordercolor="#8b8b8b"
     borderopacity="1"
     gridtolerance="10000"
     guidetolerance="10"
     objecttolerance="10"
     inkscape:pageopacity="0.0"
     inkscape:pageshadow="2"
     inkscape:zoom="1"
     inkscape:cx="179"
     inkscape:cy="89.569904"
     inkscape:document-units="px"
     inkscape:current-layer="layer1"
     width="120px"
     height="42px"
     inkscape:showpageshadow="false"
     inkscape:window-width="1198"
     inkscape:window-height="624"
     inkscape:window-x="396"
     inkscape:window-y="242" />
  <metadata
     id="metadata2764">
    <rdf:RDF>
      <cc:Work
         rdf:about="">
        <dc:format>image/svg+xml</dc:format>
        <dc:type
           rdf:resource="http://purl.org/dc/dcmitype/StillImage" />
      </cc:Work>
    </rdf:RDF>
  </metadata>
  <g
     inkscape:label="Layer 1"
     inkscape:groupmode="layer"
     id="layer1">
    <g
       transform="matrix(0.9937728,0,0,0.9936696,-177.69267,6.25128e-7)"
       id="g260"
       inkscape:export-filename="/mnt/hgfs/Bov/Documents/Work/2007/cc/identity/srr buttons/big/by.png"
       inkscape:export-xdpi="300.23013"
       inkscape:export-ydpi="300.23013">
	<path
   id="path3817_1_"
   nodetypes="ccccccc"
   d="M 181.96579,0.51074 L 296.02975,0.71338 C 297.6235,0.71338 299.04733,0.47705 299.04733,3.89404 L 298.90768,41.46093 L 179.08737,41.46093 L 179.08737,3.75439 C 179.08737,2.06934 179.25046,0.51074 181.96579,0.51074 z"
   style="fill:#aab2ab" />

	<path
   d="M 297.29636,0 L 181.06736,0 C 179.82078,0 178.80613,1.01416 178.80613,2.26074 L 178.80613,41.75732 C 178.80613,42.03906 179.03513,42.26757 179.31687,42.26757 L 299.04734,42.26757 C 299.32908,42.26757 299.55808,42.03905 299.55808,41.75732 L 299.55808,2.26074 C 299.55807,1.01416 298.54343,0 297.29636,0 z M 181.06735,1.02148 L 297.29635,1.02148 C 297.98043,1.02148 298.53658,1.57714 298.53658,2.26074 C 298.53658,2.26074 298.53658,18.20898 298.53658,29.71045 L 215.19234,29.71045 C 212.14742,35.21631 206.28121,38.95459 199.54879,38.95459 C 192.81344,38.95459 186.94869,35.21973 183.90524,29.71045 L 179.8276,29.71045 C 179.8276,18.20899 179.8276,2.26074 179.8276,2.26074 C 179.82761,1.57715 180.38376,1.02148 181.06735,1.02148 z"
   id="path263" />

	<g
   enable-background="new    "
   id="g265">
		<path
   d="M 253.07761,32.95605 C 253.39499,32.95605 253.68503,32.98437 253.94773,33.04003 C 254.20945,33.09569 254.43308,33.18749 254.62058,33.31542 C 254.8071,33.44237 254.95261,33.6123 255.05515,33.82323 C 255.15769,34.03514 255.20945,34.29589 255.20945,34.60741 C 255.20945,34.94335 255.13328,35.22264 254.97996,35.44628 C 254.82762,35.67089 254.60105,35.85351 254.30223,35.99706 C 254.71434,36.11522 255.02196,36.32226 255.22508,36.61815 C 255.4282,36.91404 255.52977,37.27049 255.52977,37.68749 C 255.52977,38.02343 255.46434,38.31444 255.33348,38.56054 C 255.20262,38.80566 255.02586,39.00683 254.80516,39.1621 C 254.58348,39.31835 254.33055,39.43358 254.04735,39.5078 C 253.76317,39.583 253.47215,39.6201 253.17235,39.6201 L 249.936,39.6201 L 249.936,32.95604 L 253.07761,32.95604 L 253.07761,32.95605 z M 252.89011,35.65137 C 253.15183,35.65137 253.36667,35.58887 253.53562,35.46485 C 253.70359,35.34083 253.78757,35.13965 253.78757,34.86036 C 253.78757,34.70509 253.75925,34.57716 253.70359,34.47852 C 253.64695,34.37891 253.57273,34.30176 253.47898,34.24512 C 253.38523,34.18946 253.27781,34.15039 253.15671,34.12891 C 253.03561,34.10743 252.90866,34.09668 252.77878,34.09668 L 251.40476,34.09668 L 251.40476,35.65137 L 252.89011,35.65137 z M 252.97604,38.47949 C 253.11959,38.47949 253.25631,38.46582 253.38717,38.4375 C 253.51803,38.40918 253.63326,38.3623 253.73385,38.29785 C 253.83346,38.23242 253.91256,38.14355 253.97213,38.03125 C 254.0317,37.91992 254.061,37.77637 254.061,37.60254 C 254.061,37.26074 253.96432,37.0166 253.77096,36.87012 C 253.5776,36.72461 253.32174,36.65137 253.00436,36.65137 L 251.40475,36.65137 L 251.40475,38.47949 L 252.97604,38.47949 z"
   id="path267"
   style="fill:#ffffff" />

		<path
   d="M 255.78854,32.95605 L 257.43209,32.95605 L 258.99264,35.58789 L 260.54342,32.95605 L 262.17721,32.95605 L 259.70358,37.0625 L 259.70358,39.62012 L 258.23483,39.62012 L 258.23483,37.02539 L 255.78854,32.95605 z"
   id="path269"
   style="fill:#ffffff" />

	</g>

	<g
   id="g5908_1_"
   transform="matrix(0.872921,0,0,0.872921,50.12536,143.2144)">
		
			<path
   id="path5906_1_"
   cx="296.35416"
   ry="22.939548"
   cy="264.3577"
   type="arc"
   rx="22.939548"
   d="M 186.90065,-141.46002 C 186.90623,-132.77923 179.87279,-125.73852 171.19257,-125.73291 C 162.51235,-125.72736 155.47051,-132.76025 155.46547,-141.44098 C 155.46547,-141.44714 155.46547,-141.45331 155.46547,-141.46002 C 155.46043,-150.14081 162.49333,-157.18152 171.17355,-157.18658 C 179.8549,-157.19213 186.89561,-150.15924 186.90065,-141.47845 C 186.90065,-141.4729 186.90065,-141.46619 186.90065,-141.46002 z"
   style="fill:#ffffff" />

		<g
   id="g5706_1_"
   transform="translate(-289.6157,99.0653)">
			<path
   id="path5708_1_"
   d="M 473.57574,-253.32751 C 477.06115,-249.8421 478.80413,-245.5736 478.80413,-240.52532 C 478.80413,-235.47594 477.09136,-231.25329 473.66582,-227.85741 C 470.03051,-224.28081 465.734,-222.49309 460.77635,-222.49309 C 455.87858,-222.49309 451.65648,-224.26628 448.11122,-227.81261 C 444.56541,-231.35845 442.79277,-235.59563 442.79277,-240.52532 C 442.79277,-245.45391 444.56541,-249.7213 448.11122,-253.32751 C 451.56642,-256.81402 455.7885,-258.557 460.77635,-258.557 C 465.82465,-258.55701 470.09039,-256.81403 473.57574,-253.32751 z M 450.45776,-250.98267 C 447.51104,-248.00629 446.03823,-244.51978 446.03823,-240.52033 C 446.03823,-236.52198 447.49651,-233.06507 450.41247,-230.14966 C 453.32897,-227.23316 456.80096,-225.77545 460.82952,-225.77545 C 464.85808,-225.77545 468.35967,-227.24768 471.33605,-230.19385 C 474.16198,-232.9303 475.57549,-236.37091 475.57549,-240.52033 C 475.57549,-244.63837 474.13903,-248.13379 471.26781,-251.00501 C 468.39714,-253.87568 464.9179,-255.31159 460.82952,-255.31159 C 456.74112,-255.31158 453.28314,-253.86841 450.45776,-250.98267 z M 458.21225,-242.27948 C 457.76196,-243.26117 457.08795,-243.75232 456.18903,-243.75232 C 454.59986,-243.75232 453.80558,-242.68225 453.80558,-240.54321 C 453.80558,-238.40368 454.59986,-237.33471 456.18903,-237.33471 C 457.23841,-237.33471 457.98795,-237.85546 458.43769,-238.89922 L 460.64045,-237.72625 C 459.59052,-235.86077 458.01536,-234.92779 455.91496,-234.92779 C 454.29506,-234.92779 452.99733,-235.42449 452.0229,-236.4168 C 451.0468,-237.41021 450.56016,-238.77953 450.56016,-240.52532 C 450.56016,-242.24035 451.06245,-243.60186 452.06764,-244.61034 C 453.07283,-245.61888 454.32466,-246.12291 455.82545,-246.12291 C 458.04557,-246.12291 459.63526,-245.24803 460.59626,-243.50005 L 458.21225,-242.27948 z M 468.57562,-242.27948 C 468.12475,-243.26117 467.46417,-243.75232 466.5932,-243.75232 C 464.97217,-243.75232 464.16107,-242.68225 464.16107,-240.54321 C 464.16107,-238.40368 464.97217,-237.33471 466.5932,-237.33471 C 467.64429,-237.33471 468.38037,-237.85546 468.80048,-238.89922 L 471.05249,-237.72625 C 470.00421,-235.86077 468.43127,-234.92779 466.33478,-234.92779 C 464.7171,-234.92779 463.42218,-235.42449 462.44831,-236.4168 C 461.47614,-237.41021 460.98896,-238.77953 460.98896,-240.52532 C 460.98896,-242.24035 461.48341,-243.60186 462.47181,-244.61034 C 463.45966,-245.61888 464.71711,-246.12291 466.24531,-246.12291 C 468.4615,-246.12291 470.04896,-245.24803 471.0066,-243.50005 L 468.57562,-242.27948 z" />

		</g>

	</g>

	<g
   id="g275">
		<circle
   cx="255.55124"
   cy="15.31348"
   r="10.80664"
   id="circle277"
   sodipodi:cx="255.55124"
   sodipodi:cy="15.31348"
   sodipodi:rx="10.80664"
   sodipodi:ry="10.80664"
   style="fill:#ffffff" />

		<g
   id="g279">
			<path
   d="M 258.67819,12.18701 C 258.67819,11.77051 258.3403,11.4331 257.92526,11.4331 L 253.15182,11.4331 C 252.73678,11.4331 252.39889,11.7705 252.39889,12.18701 L 252.39889,16.95996 L 253.72994,16.95996 L 253.72994,22.61182 L 257.34713,22.61182 L 257.34713,16.95996 L 258.67818,16.95996 L 258.67818,12.18701 L 258.67819,12.18701 z"
   id="path281" />

			<circle
   cx="255.53854"
   cy="9.1723604"
   r="1.63281"
   id="circle283"
   sodipodi:cx="255.53854"
   sodipodi:cy="9.1723604"
   sodipodi:rx="1.63281"
   sodipodi:ry="1.63281" />

		</g>

		<path
   clip-rule="evenodd"
   d="M 255.5239,3.40723 C 252.29148,3.40723 249.55515,4.53516 247.31589,6.79102 C 245.01804,9.12452 243.8696,11.88672 243.8696,15.07569 C 243.8696,18.26466 245.01804,21.00733 247.31589,23.30225 C 249.61374,25.59668 252.35007,26.74414 255.5239,26.74414 C 258.73679,26.74414 261.52195,25.58789 263.87742,23.27295 C 266.09715,21.07568 267.2075,18.34326 267.2075,15.07568 C 267.2075,11.8081 266.07762,9.04687 263.8198,6.79101 C 261.56003,4.53516 258.79538,3.40723 255.5239,3.40723 z M 255.55319,5.50684 C 258.20163,5.50684 260.45065,6.44092 262.30026,8.30811 C 264.1694,10.15528 265.10397,12.41114 265.10397,15.07569 C 265.10397,17.75928 264.18893,19.98633 262.35885,21.75587 C 260.43014,23.66212 258.16256,24.61476 255.55319,24.61476 C 252.94284,24.61476 250.69381,23.67189 248.80612,21.78517 C 246.91647,19.89845 245.97311,17.66212 245.97311,15.0757 C 245.97311,12.48879 246.92721,10.23341 248.83541,8.30812 C 250.6655,6.44092 252.90475,5.50684 255.55319,5.50684 z"
   id="path285"
   style="fill-rule:evenodd" />

	</g>

</g>
  </g>
</svg>

      </g>
  </g>
</svg>
