<svg
    xmlns="http://www.w3.org/2000/svg" width="600" height="642">
<script type="text/javascript"><![CDATA[
function mo(elem) {    
    var  line =document.getElementsByTagName("line")
 
  elem.setAttribute("class","circle-active");
    for(i = 0; i < line.length; i++) {                                          
                                                                                
        if(line[i].getAttributeNode("targetId").value === elem.id) {            
            line[i].setAttribute("class","link-activeIncoming");
            document.getElementById(line[i].getAttributeNode("sourceId").value).setAttribute("class","circle-active");

        } 
        if(line[i].getAttributeNode("sourceId").value === elem.id) {            
            line[i].setAttribute("class","link-activeOutgoung");
            document.getElementById(line[i].getAttributeNode("targetId").value).setAttribute("class","circle-active");

        }
        if((line[i].getAttributeNode("targetId").value === elem.id)&&(line[i].getAttributeNode("sourceId").value === elem.id)) {            
            line[i].setAttribute("class","link-activeBoth");
             document.getElementById(line[i].getAttributeNode("targetId").value).setAttribute("class","circle-active");
             document.getElementById(line[i].getAttributeNode("sourceId").value).setAttribute("class","circle-active");
        }                                                                              
    }                                                                           
}

function mleave(elem) {                   
    elem.setAttribute("class","circle-pasive");                                      
    var line = document.getElementsByTagName("line");                           
    for(i = 0; i < line.length; i++) {                                          
                                                                                
        if(line[i].getAttributeNode("targetId").value === elem.id) {     
        document.getElementById(line[i].getAttributeNode("sourceId").value).setAttribute("class","circle-pasive");       
            line[i].setAttribute("class","link");       
        }
        if(line[i].getAttributeNode("sourceId").value === elem.id) {            
            document.getElementById(line[i].getAttributeNode("targetId").value).setAttribute("class","circle-pasive");
            line[i].setAttribute("class","link");       
        }                                                                          
    }                                                                           
}
]]></script>
  <style>
    circle { 
        stroke: #333;
        stroke-width: 1.5px;
        fill-opacity: 0.8; 
    } 
    .bubble text {
        text-anchor: middle;
        font-size: .5em;
    }
    .circle-active circle { 
        stroke: #e80000;  
        stroke-width: 3px; 
    } 
    .link { 
        stroke: #e0270b;  
        stroke: #555;  
        stroke-opacity: 0.7;  
        stroke-width: 1px;  
        stroke-dasharray:none;
    } 
    .link-activeIncoming {  
        stroke-opacity: 1; 
        stroke-width: 10;  
        stroke: #be1b38; 
    } 
    .link-activeOutgoung {  
        stroke-opacity: 1;  
        stroke-width: 10; 
        stroke: #1AC21D;  
    } 
    .link-activeBoth {  
        stroke-opacity: 1;  
        stroke: #1AC21D;  
        stroke-width: 10;  
        stroke-dasharray:5,10,5;}
  </style>
  <g transform="scale(0.5)">
    <g id="legend">
      <text transform="translate(30,30)" style="font-family:Verdana, Arial, DejaVu Sans;font-size:200%;text-decoration:underline;">Legend</text>
      <rect width="310" height="35" style="fill:#63b3de" transform="translate(30,45)"/>
      <text transform="translate(35,72)" style="font-family:Verdana, Arial;font-size:200%">Music</text>
      <rect width="310" height="35" style="fill:#31A354" transform="translate(30,85)"/>
      <text transform="translate(35,112)" style="font-family:Verdana, Arial;font-size:200%">Other Media</text>
    </g>
  </g>
  <g class="links">
    <line class="link" targetId="0" sourceId="1" x1="353.34129274539885" y1="322.22199694214453" x2="310.0910355001332" y2="358.3663630603967"/>
    <line class="link" targetId="2" sourceId="3" x1="320.3776962950174" y1="155.80226174674985" x2="225.31276977127987" y2="437.1678869230657"/>
    <line class="link" targetId="2" sourceId="1" x1="320.3776962950174" y1="155.80226174674985" x2="310.0910355001332" y2="358.3663630603967"/>
    <line class="link" targetId="4" sourceId="1" x1="386.35875470998485" y1="228.2151659237453" x2="310.0910355001332" y2="358.3663630603967"/>
    <line class="link" targetId="5" sourceId="1" x1="429.42328692942607" y1="189.70921020602287" x2="310.0910355001332" y2="358.3663630603967"/>
    <line class="link" targetId="6" sourceId="1" x1="496.4118563806064" y1="268.39957854390155" x2="310.0910355001332" y2="358.3663630603967"/>
    <line class="link" targetId="7" sourceId="1" x1="441.33542039554635" y1="247.44678643464903" x2="310.0910355001332" y2="358.3663630603967"/>
    <line class="link" targetId="8" sourceId="1" x1="256.6390901870608" y1="341.5064325265444" x2="310.0910355001332" y2="358.3663630603967"/>
    <line class="link" targetId="9" sourceId="1" x1="451.5400410652295" y1="304.79241432678845" x2="310.0910355001332" y2="358.3663630603967"/>
    <line class="link" targetId="10" sourceId="1" x1="463.2811699917918" y1="361.66898620356676" x2="310.0910355001332" y2="358.3663630603967"/>
    <line class="link" targetId="11" sourceId="1" x1="430.0652014621723" y1="453.6373170589362" x2="310.0910355001332" y2="358.3663630603967"/>
    <line class="link" targetId="12" sourceId="0" x1="406.8892217509423" y1="340.5113099602023" x2="353.34129274539885" y2="322.22199694214453"/>
    <line class="link" targetId="12" sourceId="13" x1="406.8892217509423" y1="340.5113099602023" x2="331.6063896264928" y2="211.93617464133615"/>
    <line class="link" targetId="12" sourceId="1" x1="406.8892217509423" y1="340.5113099602023" x2="310.0910355001332" y2="358.3663630603967"/>
    <line class="link" targetId="14" sourceId="0" x1="417.42431909690845" y1="396.5040419705649" x2="353.34129274539885" y2="322.22199694214453"/>
    <line class="link" targetId="14" sourceId="1" x1="417.42431909690845" y1="396.5040419705649" x2="310.0910355001332" y2="358.3663630603967"/>
    <line class="link" targetId="14" sourceId="15" x1="417.42431909690845" y1="396.5040419705649" x2="342.81413848861473" y2="267.08817230494736"/>
    <line class="link" targetId="16" sourceId="1" x1="375.0878820894736" y1="435.44155412694573" x2="310.0910355001332" y2="358.3663630603967"/>
    <line class="link" targetId="17" sourceId="1" x1="202.5318282360745" y1="325.7354329794366" x2="310.0910355001332" y2="358.3663630603967"/>
    <line class="link" targetId="17" sourceId="8" x1="202.5318282360745" y1="325.7354329794366" x2="256.6390901870608" y2="341.5064325265444"/>
    <line class="link" targetId="18" sourceId="1" x1="321.3942371035543" y1="415.7685203287545" x2="310.0910355001332" y2="358.3663630603967"/>
    <line class="link" targetId="19" sourceId="1" x1="333.3964889489136" y1="475.35118466186714" x2="310.0910355001332" y2="358.3663630603967"/>
    <line class="link" targetId="20" sourceId="0" x1="363.59504262381347" y1="377.96735041411586" x2="353.34129274539885" y2="322.22199694214453"/>
    <line class="link" targetId="20" sourceId="1" x1="363.59504262381347" y1="377.96735041411586" x2="310.0910355001332" y2="358.3663630603967"/>
    <line class="link" targetId="21" sourceId="1" x1="279.5934413621645" y1="454.4658606778602" x2="310.0910355001332" y2="358.3663630603967"/>
    <line class="link" targetId="21" sourceId="22" x1="279.5934413621645" y1="454.4658606778602" x2="287.9555172914522" y2="248.5817495007785"/>
    <line class="link" targetId="23" sourceId="24" x1="244.99099041916472" y1="286.28194665076745" x2="396.80773427741707" y2="284.49713281276155"/>
    <line class="link" targetId="1" sourceId="8" x1="310.0910355001332" y1="358.3663630603967" x2="256.6390901870608" y2="341.5064325265444"/>
    <line class="link" targetId="1" sourceId="17" x1="310.0910355001332" y1="358.3663630603967" x2="202.5318282360745" y2="325.7354329794366"/>
    <line class="link" targetId="1" sourceId="22" x1="310.0910355001332" y1="358.3663630603967" x2="287.9555172914522" y2="248.5817495007785"/>
    <line class="link" targetId="25" sourceId="13" x1="267.68372581398637" y1="397.2473649829532" x2="331.6063896264928" y2="211.93617464133615"/>
    <line class="link" targetId="25" sourceId="8" x1="267.68372581398637" y1="397.2473649829532" x2="256.6390901870608" y2="341.5064325265444"/>
    <line class="link" targetId="3" sourceId="1" x1="225.31276977127987" y1="437.1678869230657" x2="310.0910355001332" y2="358.3663630603967"/>
    <line class="link" targetId="26" sourceId="1" x1="169.75280732690413" y1="421.1898183843708" x2="310.0910355001332" y2="358.3663630603967"/>
    <line class="link" targetId="27" sourceId="1" x1="104.03833830721467" y1="345.9488261904857" x2="310.0910355001332" y2="358.3663630603967"/>
    <line class="link" targetId="28" sourceId="1" x1="159.02449659943102" y1="363.76520026053487" x2="310.0910355001332" y2="358.3663630603967"/>
    <line class="link" targetId="28" sourceId="17" x1="159.02449659943102" y1="363.76520026053487" x2="202.5318282360745" y2="325.7354329794366"/>
    <line class="link" targetId="29" sourceId="0" x1="148.28763582614215" y1="307.1761668372099" x2="353.34129274539885" y2="322.22199694214453"/>
    <line class="link" targetId="29" sourceId="1" x1="148.28763582614215" y1="307.1761668372099" x2="310.0910355001332" y2="358.3663630603967"/>
    <line class="link" targetId="30" sourceId="24" x1="299.4188690533784" y1="303.45121346042663" x2="396.80773427741707" y2="284.49713281276155"/>
    <line class="link" targetId="31" sourceId="29" x1="190.42063854314011" y1="269.032500932263" x2="148.28763582614215" y2="307.1761668372099"/>
    <line class="link" targetId="31" sourceId="1" x1="190.42063854314011" y1="269.032500932263" x2="310.0910355001332" y2="358.3663630603967"/>
    <line class="link" targetId="32" sourceId="29" x1="135.08154157028386" y1="251.50327476136573" x2="148.28763582614215" y2="307.1761668372099"/>
    <line class="link" targetId="32" sourceId="1" x1="135.08154157028386" y1="251.50327476136573" x2="310.0910355001332" y2="358.3663630603967"/>
    <line class="link" targetId="33" sourceId="17" x1="213.07409045194453" y1="381.39029564141504" x2="202.5318282360745" y2="325.7354329794366"/>
    <line class="link" targetId="34" sourceId="1" x1="178.90757884898792" y1="211.57795174517958" x2="310.0910355001332" y2="358.3663630603967"/>
    <line class="link" targetId="35" sourceId="1" x1="276.22990390404675" y1="193.0502902283198" x2="310.0910355001332" y2="358.3663630603967"/>
    <line class="link" targetId="35" sourceId="8" x1="276.22990390404675" y1="193.0502902283198" x2="256.6390901870608" y2="341.5064325265444"/>
    <line class="link" targetId="35" sourceId="22" x1="276.22990390404675" y1="193.0502902283198" x2="287.9555172914522" y2="248.5817495007785"/>
    <line class="link" targetId="15" sourceId="0" x1="342.81413848861473" y1="267.08817230494736" x2="353.34129274539885" y2="322.22199694214453"/>
    <line class="link" targetId="15" sourceId="8" x1="342.81413848861473" y1="267.08817230494736" x2="256.6390901870608" y2="341.5064325265444"/>
    <line class="link" targetId="36" sourceId="0" x1="233.45132823291328" y1="230.86992778118298" x2="353.34129274539885" y2="322.22199694214453"/>
    <line class="link" targetId="36" sourceId="1" x1="233.45132823291328" y1="230.86992778118298" x2="310.0910355001332" y2="358.3663630603967"/>
    <line class="link" targetId="36" sourceId="8" x1="233.45132823291328" y1="230.86992778118298" x2="256.6390901870608" y2="341.5064325265444"/>
    <line class="link" targetId="13" sourceId="0" x1="331.6063896264928" y1="211.93617464133615" x2="353.34129274539885" y2="322.22199694214453"/>
    <line class="link" targetId="13" sourceId="1" x1="331.6063896264928" y1="211.93617464133615" x2="310.0910355001332" y2="358.3663630603967"/>
    <line class="link" targetId="22" sourceId="1" x1="287.9555172914522" y1="248.5817495007785" x2="310.0910355001332" y2="358.3663630603967"/>
  </g>
  <g class="nodes">
    <g id="0"
        onmouseover="mo(this)" onmouseout="mleave(this)">
      <circle class="node" r="22.3" cx="353.34129274539885" cy="322.22199694214453" fill="#63b3de"><title>bbc-music</title></circle>
      <a class="bubble" href="https://lod-cloud.net/dataset/bbc-music" target="_blank">
          <text x="353.34129274539885" y="322.22199694214453">BBC Music</text>
      </a>
    </g>
    <g id="1"
        onmouseover="mo(this)" onmouseout="mleave(this)">
      <circle class="node" r="25.0" cx="310.0910355001332" cy="358.3663630603967" fill="#31A354"><title>dbpedia</title></circle>
      <a class="bubble" href="https://lod-cloud.net/dataset/dbpedia" target="_blank">
          <text x="310.0910355001332" y="358.3663630603967">DBpedia</text>
      </a>
    </g>
    <g id="2"
        onmouseover="mo(this)" onmouseout="mleave(this)">
      <circle class="node" r="20.1" cx="320.3776962950174" cy="155.80226174674985" fill="#31A354"><title>pokepedia-fr</title></circle>
      <a class="bubble" href="https://lod-cloud.net/dataset/pokepedia-fr" target="_blank">
          <text x="320.3776962950174" y="155.80226174674985">Poképé...</text>
      </a>
    </g>
    <g id="3"
        onmouseover="mo(this)" onmouseout="mleave(this)">
      <circle class="node" r="19.4" cx="225.31276977127987" cy="437.1678869230657" fill="#31A354"><title>data-incubator-pokedex</title></circle>
      <a class="bubble" href="https://lod-cloud.net/dataset/data-incubator-pokedex" target="_blank">
          <text x="225.31276977127987" y="437.1678869230657">Pokede...</text>
      </a>
    </g>
    <g id="4"
        onmouseover="mo(this)" onmouseout="mleave(this)">
      <circle class="node" r="23.3" cx="386.35875470998485" cy="228.2151659237453" fill="#63b3de"><title>wasabi</title></circle>
      <a class="bubble" href="https://lod-cloud.net/dataset/wasabi" target="_blank">
          <text x="386.35875470998485" y="228.2151659237453">WASABI...</text>
      </a>
    </g>
    <g id="5"
        onmouseover="mo(this)" onmouseout="mleave(this)">
      <circle class="node" r="20.5" cx="429.42328692942607" cy="189.70921020602287" fill="#63b3de"><title>dbtune-magnatune</title></circle>
      <a class="bubble" href="https://lod-cloud.net/dataset/dbtune-magnatune" target="_blank">
          <text x="429.42328692942607" y="189.70921020602287">DBTune...</text>
      </a>
    </g>
    <g id="6"
        onmouseover="mo(this)" onmouseout="mleave(this)">
      <circle class="node" r="20.4" cx="496.4118563806064" cy="268.39957854390155" fill="#31A354"><title>dbtune-john-peel-sessions</title></circle>
      <a class="bubble" href="https://lod-cloud.net/dataset/dbtune-john-peel-sessions" target="_blank">
          <text x="496.4118563806064" y="268.39957854390155">DBTune...</text>
      </a>
    </g>
    <g id="7"
        onmouseover="mo(this)" onmouseout="mleave(this)">
      <circle class="node" r="18.6" cx="441.33542039554635" cy="247.44678643464903" fill="#31A354"><title>salzburgerland-com-it</title></circle>
      <a class="bubble" href="https://lod-cloud.net/dataset/salzburgerland-com-it" target="_blank">
          <text x="441.33542039554635" y="247.44678643464903">Salzbu...</text>
      </a>
    </g>
    <g id="8"
        onmouseover="mo(this)" onmouseout="mleave(this)">
      <circle class="node" r="22.6" cx="256.6390901870608" cy="341.5064325265444" fill="#63b3de"><title>dbtune-musicbrainz</title></circle>
      <a class="bubble" href="https://lod-cloud.net/dataset/dbtune-musicbrainz" target="_blank">
          <text x="256.6390901870608" y="341.5064325265444">DBTune...</text>
      </a>
    </g>
    <g id="9"
        onmouseover="mo(this)" onmouseout="mleave(this)">
      <circle class="node" r="20.1" cx="451.5400410652295" cy="304.79241432678845" fill="#31A354"><title>ASCDC-Tibetan-Audio-Archive</title></circle>
      <a class="bubble" href="https://lod-cloud.net/dataset/ASCDC-Tibetan-Audio-Archive" target="_blank">
          <text x="451.5400410652295" y="304.79241432678845">The Ti...</text>
      </a>
    </g>
    <g id="10"
        onmouseover="mo(this)" onmouseout="mleave(this)">
      <circle class="node" r="22.3" cx="463.2811699917918" cy="361.66898620356676" fill="#31A354"><title>chronicling-america</title></circle>
      <a class="bubble" href="https://lod-cloud.net/dataset/chronicling-america" target="_blank">
          <text x="463.2811699917918" y="361.66898620356676">Chroni...</text>
      </a>
    </g>
    <g id="11"
        onmouseover="mo(this)" onmouseout="mleave(this)">
      <circle class="node" r="19.5" cx="430.0652014621723" cy="453.6373170589362" fill="#31A354"><title>salzburgerland-com-de</title></circle>
      <a class="bubble" href="https://lod-cloud.net/dataset/salzburgerland-com-de" target="_blank">
          <text x="430.0652014621723" y="453.6373170589362">Salzbu...</text>
      </a>
    </g>
    <g id="12"
        onmouseover="mo(this)" onmouseout="mleave(this)">
      <circle class="node" r="18.1" cx="406.8892217509423" cy="340.5113099602023" fill="#63b3de"><title>data-incubator-moseley</title></circle>
      <a class="bubble" href="https://lod-cloud.net/dataset/data-incubator-moseley" target="_blank">
          <text x="406.8892217509423" y="340.5113099602023">Mosele...</text>
      </a>
    </g>
    <g id="13"
        onmouseover="mo(this)" onmouseout="mleave(this)">
      <circle class="node" r="23.3" cx="331.6063896264928" cy="211.93617464133615" fill="#63b3de"><title>data-incubator-discogs</title></circle>
      <a class="bubble" href="https://lod-cloud.net/dataset/data-incubator-discogs" target="_blank">
          <text x="331.6063896264928" y="211.93617464133615">Discog...</text>
      </a>
    </g>
    <g id="14"
        onmouseover="mo(this)" onmouseout="mleave(this)">
      <circle class="node" r="23.6" cx="417.42431909690845" cy="396.5040419705649" fill="#63b3de"><title>rdfize-lastfm</title></circle>
      <a class="bubble" href="https://lod-cloud.net/dataset/rdfize-lastfm" target="_blank">
          <text x="417.42431909690845" y="396.5040419705649">Last.F...</text>
      </a>
    </g>
    <g id="15"
        onmouseover="mo(this)" onmouseout="mleave(this)">
      <circle class="node" r="23.4" cx="342.81413848861473" cy="267.08817230494736" fill="#63b3de"><title>dbtune-artists-last-fm</title></circle>
      <a class="bubble" href="https://lod-cloud.net/dataset/dbtune-artists-last-fm" target="_blank">
          <text x="342.81413848861473" y="267.08817230494736">DBTune...</text>
      </a>
    </g>
    <g id="16"
        onmouseover="mo(this)" onmouseout="mleave(this)">
      <circle class="node" r="21.6" cx="375.0878820894736" cy="435.44155412694573" fill="#31A354"><title>betweenourworlds</title></circle>
      <a class="bubble" href="https://lod-cloud.net/dataset/betweenourworlds" target="_blank">
          <text x="375.0878820894736" y="435.44155412694573">Betwee...</text>
      </a>
    </g>
    <g id="17"
        onmouseover="mo(this)" onmouseout="mleave(this)">
      <circle class="node" r="21.8" cx="202.5318282360745" cy="325.7354329794366" fill="#31A354"><title>linkedmdb</title></circle>
      <a class="bubble" href="https://lod-cloud.net/dataset/linkedmdb" target="_blank">
          <text x="202.5318282360745" y="325.7354329794366">Linked...</text>
      </a>
    </g>
    <g id="18"
        onmouseover="mo(this)" onmouseout="mleave(this)">
      <circle class="node" r="19.5" cx="321.3942371035543" cy="415.7685203287545" fill="#31A354"><title>ASCDC-CTS-TV-Programs</title></circle>
      <a class="bubble" href="https://lod-cloud.net/dataset/ASCDC-CTS-TV-Programs" target="_blank">
          <text x="321.3942371035543" y="415.7685203287545">The Ch...</text>
      </a>
    </g>
    <g id="19"
        onmouseover="mo(this)" onmouseout="mleave(this)">
      <circle class="node" r="21.4" cx="333.3964889489136" cy="475.35118466186714" fill="#31A354"><title>ontos-news-portal</title></circle>
      <a class="bubble" href="https://lod-cloud.net/dataset/ontos-news-portal" target="_blank">
          <text x="333.3964889489136" y="475.35118466186714">Ontos ...</text>
      </a>
    </g>
    <g id="20"
        onmouseover="mo(this)" onmouseout="mleave(this)">
      <circle class="node" r="20.3" cx="363.59504262381347" cy="377.96735041411586" fill="#63b3de"><title>surge-radio</title></circle>
      <a class="bubble" href="https://lod-cloud.net/dataset/surge-radio" target="_blank">
          <text x="363.59504262381347" y="377.96735041411586">Surge ...</text>
      </a>
    </g>
    <g id="21"
        onmouseover="mo(this)" onmouseout="mleave(this)">
      <circle class="node" r="20.5" cx="279.5934413621645" cy="454.4658606778602" fill="#31A354"><title>edublogs</title></circle>
      <a class="bubble" href="https://lod-cloud.net/dataset/edublogs" target="_blank">
          <text x="279.5934413621645" y="454.4658606778602">Edublogs</text>
      </a>
    </g>
    <g id="22"
        onmouseover="mo(this)" onmouseout="mleave(this)">
      <circle class="node" r="20.5" cx="287.9555172914522" cy="248.5817495007785" fill="#31A354"><title>nytimes-linked-open-data</title></circle>
      <a class="bubble" href="https://lod-cloud.net/dataset/nytimes-linked-open-data" target="_blank">
          <text x="287.9555172914522" y="248.5817495007785">New Yo...</text>
      </a>
    </g>
    <g id="23"
        onmouseover="mo(this)" onmouseout="mleave(this)">
      <circle class="node" r="23.8" cx="244.99099041916472" cy="286.28194665076745" fill="#63b3de"><title>dbtune-audioscrobbler</title></circle>
      <a class="bubble" href="https://lod-cloud.net/dataset/dbtune-audioscrobbler" target="_blank">
          <text x="244.99099041916472" y="286.28194665076745">DBTune...</text>
      </a>
    </g>
    <g id="24"
        onmouseover="mo(this)" onmouseout="mleave(this)">
      <circle class="node" r="22.8" cx="396.80773427741707" cy="284.49713281276155" fill="#63b3de"><title>zitgist-musicbrainz</title></circle>
      <a class="bubble" href="https://lod-cloud.net/dataset/zitgist-musicbrainz" target="_blank">
          <text x="396.80773427741707" y="284.49713281276155">MusicB...</text>
      </a>
    </g>
    <g id="25"
        onmouseover="mo(this)" onmouseout="mleave(this)">
      <circle class="node" r="22.5" cx="267.68372581398637" cy="397.2473649829532" fill="#31A354"><title>muziekweb</title></circle>
      <a class="bubble" href="https://lod-cloud.net/dataset/muziekweb" target="_blank">
          <text x="267.68372581398637" y="397.2473649829532">Muziekweb</text>
      </a>
    </g>
    <g id="26"
        onmouseover="mo(this)" onmouseout="mleave(this)">
      <circle class="node" r="21.5" cx="169.75280732690413" cy="421.1898183843708" fill="#31A354"><title>bricklink</title></circle>
      <a class="bubble" href="https://lod-cloud.net/dataset/bricklink" target="_blank">
          <text x="169.75280732690413" y="421.1898183843708">Bricklink</text>
      </a>
    </g>
    <g id="27"
        onmouseover="mo(this)" onmouseout="mleave(this)">
      <circle class="node" r="19.3" cx="104.03833830721467" cy="345.9488261904857" fill="#31A354"><title>salzburgerland-com-en</title></circle>
      <a class="bubble" href="https://lod-cloud.net/dataset/salzburgerland-com-en" target="_blank">
          <text x="104.03833830721467" y="345.9488261904857">Salzbu...</text>
      </a>
    </g>
    <g id="28"
        onmouseover="mo(this)" onmouseout="mleave(this)">
      <circle class="node" r="21.9" cx="159.02449659943102" cy="363.76520026053487" fill="#31A354"><title>dbtropes</title></circle>
      <a class="bubble" href="https://lod-cloud.net/dataset/dbtropes" target="_blank">
          <text x="159.02449659943102" y="363.76520026053487">DBTropes</text>
      </a>
    </g>
    <g id="29"
        onmouseover="mo(this)" onmouseout="mleave(this)">
      <circle class="node" r="22.8" cx="148.28763582614215" cy="307.1761668372099" fill="#31A354"><title>bbc-programmes</title></circle>
      <a class="bubble" href="https://lod-cloud.net/dataset/bbc-programmes" target="_blank">
          <text x="148.28763582614215" y="307.1761668372099">BBC Pr...</text>
      </a>
    </g>
    <g id="30"
        onmouseover="mo(this)" onmouseout="mleave(this)">
      <circle class="node" r="21.0" cx="299.4188690533784" cy="303.45121346042663" fill="#63b3de"><title>jamendo-dbtune</title></circle>
      <a class="bubble" href="https://lod-cloud.net/dataset/jamendo-dbtune" target="_blank">
          <text x="299.4188690533784" y="303.45121346042663">DBTune...</text>
      </a>
    </g>
    <g id="31"
        onmouseover="mo(this)" onmouseout="mleave(this)">
      <circle class="node" r="19.5" cx="190.42063854314011" cy="269.032500932263" fill="#31A354"><title>eutc-productions</title></circle>
      <a class="bubble" href="https://lod-cloud.net/dataset/eutc-productions" target="_blank">
          <text x="190.42063854314011" y="269.032500932263">Edinbu...</text>
      </a>
    </g>
    <g id="32"
        onmouseover="mo(this)" onmouseout="mleave(this)">
      <circle class="node" r="19.4" cx="135.08154157028386" cy="251.50327476136573" fill="#31A354"><title>bbc-wildlife-finder</title></circle>
      <a class="bubble" href="https://lod-cloud.net/dataset/bbc-wildlife-finder" target="_blank">
          <text x="135.08154157028386" y="251.50327476136573">BBC Wi...</text>
      </a>
    </g>
    <g id="33"
        onmouseover="mo(this)" onmouseout="mleave(this)">
      <circle class="node" r="20.4" cx="213.07409045194453" cy="381.39029564141504" fill="#31A354"><title>linked-user-feedback</title></circle>
      <a class="bubble" href="https://lod-cloud.net/dataset/linked-user-feedback" target="_blank">
          <text x="213.07409045194453" y="381.39029564141504">Linked...</text>
      </a>
    </g>
    <g id="34"
        onmouseover="mo(this)" onmouseout="mleave(this)">
      <circle class="node" r="21.0" cx="178.90757884898792" cy="211.57795174517958" fill="#31A354"><title>gemeenschappelijke-thesaurus-audiovisuele-archieven</title></circle>
      <a class="bubble" href="https://lod-cloud.net/dataset/gemeenschappelijke-thesaurus-audiovisuele-archieven" target="_blank">
          <text x="178.90757884898792" y="211.57795174517958">Gemeen...</text>
      </a>
    </g>
    <g id="35"
        onmouseover="mo(this)" onmouseout="mleave(this)">
      <circle class="node" r="22.6" cx="276.22990390404675" cy="193.0502902283198" fill="#31A354"><title>event-media</title></circle>
      <a class="bubble" href="https://lod-cloud.net/dataset/event-media" target="_blank">
          <text x="276.22990390404675" y="193.0502902283198">EventM...</text>
      </a>
    </g>
    <g id="36"
        onmouseover="mo(this)" onmouseout="mleave(this)">
      <circle class="node" r="20.6" cx="233.45132823291328" cy="230.86992778118298" fill="#63b3de"><title>dbtune-classical</title></circle>
      <a class="bubble" href="https://lod-cloud.net/dataset/dbtune-classical" target="_blank">
          <text x="233.45132823291328" y="230.86992778118298">DBTune...</text>
      </a>
    </g>
    <g transform="translate(20,617) scale(1)">
      <text style="font-family: Verdana, Arial;">The Media Linked Open Data Cloud from lod-cloud.net</text>
    </g>
      <g transform="translate(480, 600)">
<svg
   xmlns:dc="http://purl.org/dc/elements/1.1/"
   xmlns:cc="http://web.resource.org/cc/"
   xmlns:rdf="http://www.w3.org/1999/02/22-rdf-syntax-ns#"
   xmlns:svg="http://www.w3.org/2000/svg"
   xmlns="http://www.w3.org/2000/svg"
   xmlns:sodipodi="http://sodipodi.sourceforge.net/DTD/sodipodi-0.dtd"
   xmlns:inkscape="http://www.inkscape.org/namespaces/inkscape"
   width="120"
   height="42"
   id="svg2759"
   sodipodi:version="0.32"
   inkscape:version="0.45+devel"
   version="1.0"
   sodipodi:docname="by.svg"
   inkscape:output_extension="org.inkscape.output.svg.inkscape">
  <defs
     id="defs2761" />
  <sodipodi:namedview
     id="base"
     pagecolor="#ffffff"
     bordercolor="#8b8b8b"
     borderopacity="1"
     gridtolerance="10000"
     guidetolerance="10"
     objecttolerance="10"
     inkscape:pageopacity="0.0"
     inkscape:pageshadow="2"
     inkscape:zoom="1"
     inkscape:cx="179"
     inkscape:cy="89.569904"
     inkscape:document-units="px"
     inkscape:current-layer="layer1"
     width="120px"
     height="42px"
     inkscape:showpageshadow="false"
     inkscape:window-width="1198"
     inkscape:window-height="624"
     inkscape:window-x="396"
     inkscape:window-y="242" />
  <metadata
     id="metadata2764">
    <rdf:RDF>
      <cc:Work
         rdf:about="">
        <dc:format>image/svg+xml</dc:format>
        <dc:type
           rdf:resource="http://purl.org/dc/dcmitype/StillImage" />
      </cc:Work>
    </rdf:RDF>
  </metadata>
  <g
     inkscape:label="Layer 1"
     inkscape:groupmode="layer"
     id="layer1">
    <g
       transform="matrix(0.9937728,0,0,0.9936696,-177.69267,6.25128e-7)"
       id="g260"
       inkscape:export-filename="/mnt/hgfs/Bov/Documents/Work/2007/cc/identity/srr buttons/big/by.png"
       inkscape:export-xdpi="300.23013"
       inkscape:export-ydpi="300.23013">
	<path
   id="path3817_1_"
   nodetypes="ccccccc"
   d="M 181.96579,0.51074 L 296.02975,0.71338 C 297.6235,0.71338 299.04733,0.47705 299.04733,3.89404 L 298.90768,41.46093 L 179.08737,41.46093 L 179.08737,3.75439 C 179.08737,2.06934 179.25046,0.51074 181.96579,0.51074 z"
   style="fill:#aab2ab" />

	<path
   d="M 297.29636,0 L 181.06736,0 C 179.82078,0 178.80613,1.01416 178.80613,2.26074 L 178.80613,41.75732 C 178.80613,42.03906 179.03513,42.26757 179.31687,42.26757 L 299.04734,42.26757 C 299.32908,42.26757 299.55808,42.03905 299.55808,41.75732 L 299.55808,2.26074 C 299.55807,1.01416 298.54343,0 297.29636,0 z M 181.06735,1.02148 L 297.29635,1.02148 C 297.98043,1.02148 298.53658,1.57714 298.53658,2.26074 C 298.53658,2.26074 298.53658,18.20898 298.53658,29.71045 L 215.19234,29.71045 C 212.14742,35.21631 206.28121,38.95459 199.54879,38.95459 C 192.81344,38.95459 186.94869,35.21973 183.90524,29.71045 L 179.8276,29.71045 C 179.8276,18.20899 179.8276,2.26074 179.8276,2.26074 C 179.82761,1.57715 180.38376,1.02148 181.06735,1.02148 z"
   id="path263" />

	<g
   enable-background="new    "
   id="g265">
		<path
   d="M 253.07761,32.95605 C 253.39499,32.95605 253.68503,32.98437 253.94773,33.04003 C 254.20945,33.09569 254.43308,33.18749 254.62058,33.31542 C 254.8071,33.44237 254.95261,33.6123 255.05515,33.82323 C 255.15769,34.03514 255.20945,34.29589 255.20945,34.60741 C 255.20945,34.94335 255.13328,35.22264 254.97996,35.44628 C 254.82762,35.67089 254.60105,35.85351 254.30223,35.99706 C 254.71434,36.11522 255.02196,36.32226 255.22508,36.61815 C 255.4282,36.91404 255.52977,37.27049 255.52977,37.68749 C 255.52977,38.02343 255.46434,38.31444 255.33348,38.56054 C 255.20262,38.80566 255.02586,39.00683 254.80516,39.1621 C 254.58348,39.31835 254.33055,39.43358 254.04735,39.5078 C 253.76317,39.583 253.47215,39.6201 253.17235,39.6201 L 249.936,39.6201 L 249.936,32.95604 L 253.07761,32.95604 L 253.07761,32.95605 z M 252.89011,35.65137 C 253.15183,35.65137 253.36667,35.58887 253.53562,35.46485 C 253.70359,35.34083 253.78757,35.13965 253.78757,34.86036 C 253.78757,34.70509 253.75925,34.57716 253.70359,34.47852 C 253.64695,34.37891 253.57273,34.30176 253.47898,34.24512 C 253.38523,34.18946 253.27781,34.15039 253.15671,34.12891 C 253.03561,34.10743 252.90866,34.09668 252.77878,34.09668 L 251.40476,34.09668 L 251.40476,35.65137 L 252.89011,35.65137 z M 252.97604,38.47949 C 253.11959,38.47949 253.25631,38.46582 253.38717,38.4375 C 253.51803,38.40918 253.63326,38.3623 253.73385,38.29785 C 253.83346,38.23242 253.91256,38.14355 253.97213,38.03125 C 254.0317,37.91992 254.061,37.77637 254.061,37.60254 C 254.061,37.26074 253.96432,37.0166 253.77096,36.87012 C 253.5776,36.72461 253.32174,36.65137 253.00436,36.65137 L 251.40475,36.65137 L 251.40475,38.47949 L 252.97604,38.47949 z"
   id="path267"
   style="fill:#ffffff" />

		<path
   d="M 255.78854,32.95605 L 257.43209,32.95605 L 258.99264,35.58789 L 260.54342,32.95605 L 262.17721,32.95605 L 259.70358,37.0625 L 259.70358,39.62012 L 258.23483,39.62012 L 258.23483,37.02539 L 255.78854,32.95605 z"
   id="path269"
   style="fill:#ffffff" />

	</g>

	<g
   id="g5908_1_"
   transform="matrix(0.872921,0,0,0.872921,50.12536,143.2144)">
		
			<path
   id="path5906_1_"
   cx="296.35416"
   ry="22.939548"
   cy="264.3577"
   type="arc"
   rx="22.939548"
   d="M 186.90065,-141.46002 C 186.90623,-132.77923 179.87279,-125.73852 171.19257,-125.73291 C 162.51235,-125.72736 155.47051,-132.76025 155.46547,-141.44098 C 155.46547,-141.44714 155.46547,-141.45331 155.46547,-141.46002 C 155.46043,-150.14081 162.49333,-157.18152 171.17355,-157.18658 C 179.8549,-157.19213 186.89561,-150.15924 186.90065,-141.47845 C 186.90065,-141.4729 186.90065,-141.46619 186.90065,-141.46002 z"
   style="fill:#ffffff" />

		<g
   id="g5706_1_"
   transform="translate(-289.6157,99.0653)">
			<path
   id="path5708_1_"
   d="M 473.57574,-253.32751 C 477.06115,-249.8421 478.80413,-245.5736 478.80413,-240.52532 C 478.80413,-235.47594 477.09136,-231.25329 473.66582,-227.85741 C 470.03051,-224.28081 465.734,-222.49309 460.77635,-222.49309 C 455.87858,-222.49309 451.65648,-224.26628 448.11122,-227.81261 C 444.56541,-231.35845 442.79277,-235.59563 442.79277,-240.52532 C 442.79277,-245.45391 444.56541,-249.7213 448.11122,-253.32751 C 451.56642,-256.81402 455.7885,-258.557 460.77635,-258.557 C 465.82465,-258.55701 470.09039,-256.81403 473.57574,-253.32751 z M 450.45776,-250.98267 C 447.51104,-248.00629 446.03823,-244.51978 446.03823,-240.52033 C 446.03823,-236.52198 447.49651,-233.06507 450.41247,-230.14966 C 453.32897,-227.23316 456.80096,-225.77545 460.82952,-225.77545 C 464.85808,-225.77545 468.35967,-227.24768 471.33605,-230.19385 C 474.16198,-232.9303 475.57549,-236.37091 475.57549,-240.52033 C 475.57549,-244.63837 474.13903,-248.13379 471.26781,-251.00501 C 468.39714,-253.87568 464.9179,-255.31159 460.82952,-255.31159 C 456.74112,-255.31158 453.28314,-253.86841 450.45776,-250.98267 z M 458.21225,-242.27948 C 457.76196,-243.26117 457.08795,-243.75232 456.18903,-243.75232 C 454.59986,-243.75232 453.80558,-242.68225 453.80558,-240.54321 C 453.80558,-238.40368 454.59986,-237.33471 456.18903,-237.33471 C 457.23841,-237.33471 457.98795,-237.85546 458.43769,-238.89922 L 460.64045,-237.72625 C 459.59052,-235.86077 458.01536,-234.92779 455.91496,-234.92779 C 454.29506,-234.92779 452.99733,-235.42449 452.0229,-236.4168 C 451.0468,-237.41021 450.56016,-238.77953 450.56016,-240.52532 C 450.56016,-242.24035 451.06245,-243.60186 452.06764,-244.61034 C 453.07283,-245.61888 454.32466,-246.12291 455.82545,-246.12291 C 458.04557,-246.12291 459.63526,-245.24803 460.59626,-243.50005 L 458.21225,-242.27948 z M 468.57562,-242.27948 C 468.12475,-243.26117 467.46417,-243.75232 466.5932,-243.75232 C 464.97217,-243.75232 464.16107,-242.68225 464.16107,-240.54321 C 464.16107,-238.40368 464.97217,-237.33471 466.5932,-237.33471 C 467.64429,-237.33471 468.38037,-237.85546 468.80048,-238.89922 L 471.05249,-237.72625 C 470.00421,-235.86077 468.43127,-234.92779 466.33478,-234.92779 C 464.7171,-234.92779 463.42218,-235.42449 462.44831,-236.4168 C 461.47614,-237.41021 460.98896,-238.77953 460.98896,-240.52532 C 460.98896,-242.24035 461.48341,-243.60186 462.47181,-244.61034 C 463.45966,-245.61888 464.71711,-246.12291 466.24531,-246.12291 C 468.4615,-246.12291 470.04896,-245.24803 471.0066,-243.50005 L 468.57562,-242.27948 z" />

		</g>

	</g>

	<g
   id="g275">
		<circle
   cx="255.55124"
   cy="15.31348"
   r="10.80664"
   id="circle277"
   sodipodi:cx="255.55124"
   sodipodi:cy="15.31348"
   sodipodi:rx="10.80664"
   sodipodi:ry="10.80664"
   style="fill:#ffffff" />

		<g
   id="g279">
			<path
   d="M 258.67819,12.18701 C 258.67819,11.77051 258.3403,11.4331 257.92526,11.4331 L 253.15182,11.4331 C 252.73678,11.4331 252.39889,11.7705 252.39889,12.18701 L 252.39889,16.95996 L 253.72994,16.95996 L 253.72994,22.61182 L 257.34713,22.61182 L 257.34713,16.95996 L 258.67818,16.95996 L 258.67818,12.18701 L 258.67819,12.18701 z"
   id="path281" />

			<circle
   cx="255.53854"
   cy="9.1723604"
   r="1.63281"
   id="circle283"
   sodipodi:cx="255.53854"
   sodipodi:cy="9.1723604"
   sodipodi:rx="1.63281"
   sodipodi:ry="1.63281" />

		</g>

		<path
   clip-rule="evenodd"
   d="M 255.5239,3.40723 C 252.29148,3.40723 249.55515,4.53516 247.31589,6.79102 C 245.01804,9.12452 243.8696,11.88672 243.8696,15.07569 C 243.8696,18.26466 245.01804,21.00733 247.31589,23.30225 C 249.61374,25.59668 252.35007,26.74414 255.5239,26.74414 C 258.73679,26.74414 261.52195,25.58789 263.87742,23.27295 C 266.09715,21.07568 267.2075,18.34326 267.2075,15.07568 C 267.2075,11.8081 266.07762,9.04687 263.8198,6.79101 C 261.56003,4.53516 258.79538,3.40723 255.5239,3.40723 z M 255.55319,5.50684 C 258.20163,5.50684 260.45065,6.44092 262.30026,8.30811 C 264.1694,10.15528 265.10397,12.41114 265.10397,15.07569 C 265.10397,17.75928 264.18893,19.98633 262.35885,21.75587 C 260.43014,23.66212 258.16256,24.61476 255.55319,24.61476 C 252.94284,24.61476 250.69381,23.67189 248.80612,21.78517 C 246.91647,19.89845 245.97311,17.66212 245.97311,15.0757 C 245.97311,12.48879 246.92721,10.23341 248.83541,8.30812 C 250.6655,6.44092 252.90475,5.50684 255.55319,5.50684 z"
   id="path285"
   style="fill-rule:evenodd" />

	</g>

</g>
  </g>
</svg>

      </g>
  </g>
</svg>
