<svg
    xmlns="http://www.w3.org/2000/svg" width="600" height="642">
<script type="text/javascript"><![CDATA[
function mo(elem) {    
    var  line =document.getElementsByTagName("line")
 
  elem.setAttribute("class","circle-active");
    for(i = 0; i < line.length; i++) {                                          
                                                                                
        if(line[i].getAttributeNode("targetId").value === elem.id) {            
            line[i].setAttribute("class","link-activeIncoming");
            document.getElementById(line[i].getAttributeNode("sourceId").value).setAttribute("class","circle-active");

        } 
        if(line[i].getAttributeNode("sourceId").value === elem.id) {            
            line[i].setAttribute("class","link-activeOutgoung");
            document.getElementById(line[i].getAttributeNode("targetId").value).setAttribute("class","circle-active");

        }
        if((line[i].getAttributeNode("targetId").value === elem.id)&&(line[i].getAttributeNode("sourceId").value === elem.id)) {            
            line[i].setAttribute("class","link-activeBoth");
             document.getElementById(line[i].getAttributeNode("targetId").value).setAttribute("class","circle-active");
             document.getElementById(line[i].getAttributeNode("sourceId").value).setAttribute("class","circle-active");
        }                                                                              
    }                                                                           
}

function mleave(elem) {                   
    elem.setAttribute("class","circle-pasive");                                      
    var line = document.getElementsByTagName("line");                           
    for(i = 0; i < line.length; i++) {                                          
                                                                                
        if(line[i].getAttributeNode("targetId").value === elem.id) {     
        document.getElementById(line[i].getAttributeNode("sourceId").value).setAttribute("class","circle-pasive");       
            line[i].setAttribute("class","link");       
        }
        if(line[i].getAttributeNode("sourceId").value === elem.id) {            
            document.getElementById(line[i].getAttributeNode("targetId").value).setAttribute("class","circle-pasive");
            line[i].setAttribute("class","link");       
        }                                                                          
    }                                                                           
}
]]></script>
  <style>
    circle { 
        stroke: #333;
        stroke-width: 1.5px;
        fill-opacity: 0.8; 
    } 
    .bubble text {
        text-anchor: middle;
        font-size: .5em;
    }
    .circle-active circle { 
        stroke: #e80000;  
        stroke-width: 3px; 
    } 
    .link { 
        stroke: #e0270b;  
        stroke: #555;  
        stroke-opacity: 0.7;  
        stroke-width: 1px;  
        stroke-dasharray:none;
    } 
    .link-activeIncoming {  
        stroke-opacity: 1; 
        stroke-width: 10;  
        stroke: #be1b38; 
    } 
    .link-activeOutgoung {  
        stroke-opacity: 1;  
        stroke-width: 10; 
        stroke: #1AC21D;  
    } 
    .link-activeBoth {  
        stroke-opacity: 1;  
        stroke: #1AC21D;  
        stroke-width: 10;  
        stroke-dasharray:5,10,5;}
  </style>
  <g transform="scale(0.5)">
    <g id="legend">
      <text transform="translate(30,30)" style="font-family:Verdana, Arial, DejaVu Sans;font-size:200%;text-decoration:underline;">Legend</text>
      <rect width="310" height="35" style="fill:#63b3de" transform="translate(30,45)"/>
      <text transform="translate(35,72)" style="font-family:Verdana, Arial;font-size:200%">Music</text>
      <rect width="310" height="35" style="fill:#31A354" transform="translate(30,85)"/>
      <text transform="translate(35,112)" style="font-family:Verdana, Arial;font-size:200%">Other Media</text>
    </g>
  </g>
  <g class="links">
    <line class="link" targetId="0" sourceId="1" x1="323.3247473621353" y1="124.93981516296779" x2="271.8670170833209" y2="269.81868545145153"/>
    <line class="link" targetId="2" sourceId="3" x1="217.57339877935874" y1="352.8033131970061" x2="270.1380344360521" y2="326.18458402779504"/>
    <line class="link" targetId="2" sourceId="4" x1="217.57339877935874" y1="352.8033131970061" x2="222.0879585732987" y2="296.7996052884742"/>
    <line class="link" targetId="5" sourceId="1" x1="321.94433306853136" y1="183.95916110487457" x2="271.8670170833209" y2="269.81868545145153"/>
    <line class="link" targetId="6" sourceId="3" x1="321.468824071355" y1="242.4719201448742" x2="270.1380344360521" y2="326.18458402779504"/>
    <line class="link" targetId="6" sourceId="1" x1="321.468824071355" y1="242.4719201448742" x2="271.8670170833209" y2="269.81868545145153"/>
    <line class="link" targetId="7" sourceId="1" x1="372.68064671262607" y1="155.90035629078136" x2="271.8670170833209" y2="269.81868545145153"/>
    <line class="link" targetId="8" sourceId="3" x1="419.4177369350142" y1="245.17581574715575" x2="270.1380344360521" y2="326.18458402779504"/>
    <line class="link" targetId="8" sourceId="1" x1="419.4177369350142" y1="245.17581574715575" x2="271.8670170833209" y2="269.81868545145153"/>
    <line class="link" targetId="9" sourceId="1" x1="223.37549574205326" y1="240.50425799988403" x2="271.8670170833209" y2="269.81868545145153"/>
    <line class="link" targetId="9" sourceId="4" x1="223.37549574205326" y1="240.50425799988403" x2="222.0879585732987" y2="296.7996052884742"/>
    <line class="link" targetId="10" sourceId="1" x1="422.1458727599177" y1="186.9057170508736" x2="271.8670170833209" y2="269.81868545145153"/>
    <line class="link" targetId="11" sourceId="6" x1="370.732198223313" y1="214.27233266916863" x2="321.468824071355" y2="242.4719201448742"/>
    <line class="link" targetId="11" sourceId="4" x1="370.732198223313" y1="214.27233266916863" x2="222.0879585732987" y2="296.7996052884742"/>
    <line class="link" targetId="12" sourceId="3" x1="469.05040585792324" y1="274.6777691705567" x2="270.1380344360521" y2="326.18458402779504"/>
    <line class="link" targetId="12" sourceId="1" x1="469.05040585792324" y1="274.6777691705567" x2="271.8670170833209" y2="269.81868545145153"/>
    <line class="link" targetId="13" sourceId="8" x1="418.8772533329213" y1="302.2907239888393" x2="419.4177369350142" y2="245.17581574715575"/>
    <line class="link" targetId="13" sourceId="1" x1="418.8772533329213" y1="302.2907239888393" x2="271.8670170833209" y2="269.81868545145153"/>
    <line class="link" targetId="14" sourceId="1" x1="417.29050065566895" y1="359.92233816224825" x2="271.8670170833209" y2="269.81868545145153"/>
    <line class="link" targetId="14" sourceId="9" x1="417.29050065566895" y1="359.92233816224825" x2="223.37549574205326" y2="240.50425799988403"/>
    <line class="link" targetId="15" sourceId="1" x1="368.47406301928805" y1="329.4101323573399" x2="271.8670170833209" y2="269.81868545145153"/>
    <line class="link" targetId="16" sourceId="3" x1="366.19501932496064" y1="386.60000729862725" x2="270.1380344360521" y2="326.18458402779504"/>
    <line class="link" targetId="16" sourceId="6" x1="366.19501932496064" y1="386.60000729862725" x2="321.468824071355" y2="242.4719201448742"/>
    <line class="link" targetId="16" sourceId="1" x1="366.19501932496064" y1="386.60000729862725" x2="271.8670170833209" y2="269.81868545145153"/>
    <line class="link" targetId="17" sourceId="1" x1="317.9944905784035" y1="356.17085207417347" x2="271.8670170833209" y2="269.81868545145153"/>
    <line class="link" targetId="18" sourceId="1" x1="320.05162745328147" y1="299.3611652388246" x2="271.8670170833209" y2="269.81868545145153"/>
    <line class="link" targetId="3" sourceId="1" x1="270.1380344360521" y1="326.18458402779504" x2="271.8670170833209" y2="269.81868545145153"/>
    <line class="link" targetId="19" sourceId="20" x1="369.7742069752147" y1="272.2976547824388" x2="167.75325150114827" y2="324.17564054393404"/>
    <line class="link" targetId="21" sourceId="1" x1="315.22608831259487" y1="412.8888601103423" x2="271.8670170833209" y2="269.81868545145153"/>
    <line class="link" targetId="21" sourceId="4" x1="315.22608831259487" y1="412.8888601103423" x2="222.0879585732987" y2="296.7996052884742"/>
    <line class="link" targetId="21" sourceId="22" x1="315.22608831259487" y1="412.8888601103423" x2="272.83175049242993" y2="213.08309258658028"/>
    <line class="link" targetId="23" sourceId="3" x1="266.55643471560603" y1="382.40147009656664" x2="270.1380344360521" y2="326.18458402779504"/>
    <line class="link" targetId="23" sourceId="1" x1="266.55643471560603" y1="382.40147009656664" x2="271.8670170833209" y2="269.81868545145153"/>
    <line class="link" targetId="23" sourceId="4" x1="266.55643471560603" y1="382.40147009656664" x2="222.0879585732987" y2="296.7996052884742"/>
    <line class="link" targetId="24" sourceId="8" x1="265.21148684461053" y1="440.5437654418862" x2="419.4177369350142" y2="245.17581574715575"/>
    <line class="link" targetId="24" sourceId="1" x1="265.21148684461053" y1="440.5437654418862" x2="271.8670170833209" y2="269.81868545145153"/>
    <line class="link" targetId="25" sourceId="1" x1="216.2289790633539" y1="409.9415784612162" x2="271.8670170833209" y2="269.81868545145153"/>
    <line class="link" targetId="26" sourceId="1" x1="166.34639059458885" y1="439.7020745717608" x2="271.8670170833209" y2="269.81868545145153"/>
    <line class="link" targetId="4" sourceId="1" x1="222.0879585732987" y1="296.7996052884742" x2="271.8670170833209" y2="269.81868545145153"/>
    <line class="link" targetId="27" sourceId="1" x1="166.2371665609596" y1="381.47433056777857" x2="271.8670170833209" y2="269.81868545145153"/>
    <line class="link" targetId="28" sourceId="1" x1="116.17804173929434" y1="352.0655206497954" x2="271.8670170833209" y2="269.81868545145153"/>
    <line class="link" targetId="29" sourceId="1" x1="122.89527063655095" y1="236.00429706405276" x2="271.8670170833209" y2="269.81868545145153"/>
    <line class="link" targetId="30" sourceId="1" x1="174.3904415228842" y1="210.10633784133972" x2="271.8670170833209" y2="269.81868545145153"/>
    <line class="link" targetId="30" sourceId="22" x1="174.3904415228842" y1="210.10633784133972" x2="272.83175049242993" y2="213.08309258658028"/>
    <line class="link" targetId="22" sourceId="1" x1="272.83175049242993" y1="213.08309258658028" x2="271.8670170833209" y2="269.81868545145153"/>
    <line class="link" targetId="31" sourceId="3" x1="173.00227945840157" y1="267.6734196340424" x2="270.1380344360521" y2="326.18458402779504"/>
    <line class="link" targetId="31" sourceId="1" x1="173.00227945840157" y1="267.6734196340424" x2="271.8670170833209" y2="269.81868545145153"/>
    <line class="link" targetId="31" sourceId="2" x1="173.00227945840157" y1="267.6734196340424" x2="217.57339877935874" y2="352.8033131970061"/>
    <line class="link" targetId="1" sourceId="4" x1="271.8670170833209" y1="269.81868545145153" x2="222.0879585732987" y2="296.7996052884742"/>
    <line class="link" targetId="1" sourceId="9" x1="271.8670170833209" y1="269.81868545145153" x2="223.37549574205326" y2="240.50425799988403"/>
    <line class="link" targetId="1" sourceId="22" x1="271.8670170833209" y1="269.81868545145153" x2="272.83175049242993" y2="213.08309258658028"/>
    <line class="link" targetId="32" sourceId="1" x1="175.87867284375073" y1="151.50412919105958" x2="271.8670170833209" y2="269.81868545145153"/>
    <line class="link" targetId="33" sourceId="25" x1="224.37414507863528" y1="183.08387743428074" x2="216.2289790633539" y2="409.9415784612162"/>
    <line class="link" targetId="33" sourceId="1" x1="224.37414507863528" y1="183.08387743428074" x2="271.8670170833209" y2="269.81868545145153"/>
    <line class="link" targetId="34" sourceId="20" x1="118.57349124532723" y1="294.03413238747163" x2="167.75325150114827" y2="324.17564054393404"/>
    <line class="link" targetId="35" sourceId="1" x1="272.9887222416293" y1="153.20703734208416" x2="271.8670170833209" y2="269.81868545145153"/>
  </g>
  <g class="nodes">
    <g id="0"
        onmouseover="mo(this)" onmouseout="mleave(this)">
      <circle class="node" r="23.3" cx="323.3247473621353" cy="124.93981516296779" fill="#63b3de"><title>wasabi</title></circle>
      <a class="bubble" href="https://lod-cloud.net/dataset/wasabi" target="_blank">
          <text x="323.3247473621353" y="124.93981516296779">WASABI...</text>
      </a>
    </g>
    <g id="1"
        onmouseover="mo(this)" onmouseout="mleave(this)">
      <circle class="node" r="25.0" cx="271.8670170833209" cy="269.81868545145153" fill="#31A354"><title>dbpedia</title></circle>
      <a class="bubble" href="https://lod-cloud.net/dataset/dbpedia" target="_blank">
          <text x="271.8670170833209" y="269.81868545145153">DBpedia</text>
      </a>
    </g>
    <g id="2"
        onmouseover="mo(this)" onmouseout="mleave(this)">
      <circle class="node" r="23.4" cx="217.57339877935874" cy="352.8033131970061" fill="#63b3de"><title>dbtune-artists-last-fm</title></circle>
      <a class="bubble" href="https://lod-cloud.net/dataset/dbtune-artists-last-fm" target="_blank">
          <text x="217.57339877935874" y="352.8033131970061">DBTune...</text>
      </a>
    </g>
    <g id="3"
        onmouseover="mo(this)" onmouseout="mleave(this)">
      <circle class="node" r="22.3" cx="270.1380344360521" cy="326.18458402779504" fill="#63b3de"><title>bbc-music</title></circle>
      <a class="bubble" href="https://lod-cloud.net/dataset/bbc-music" target="_blank">
          <text x="270.1380344360521" y="326.18458402779504">BBC Music</text>
      </a>
    </g>
    <g id="4"
        onmouseover="mo(this)" onmouseout="mleave(this)">
      <circle class="node" r="22.6" cx="222.0879585732987" cy="296.7996052884742" fill="#63b3de"><title>dbtune-musicbrainz</title></circle>
      <a class="bubble" href="https://lod-cloud.net/dataset/dbtune-musicbrainz" target="_blank">
          <text x="222.0879585732987" y="296.7996052884742">DBTune...</text>
      </a>
    </g>
    <g id="5"
        onmouseover="mo(this)" onmouseout="mleave(this)">
      <circle class="node" r="19.3" cx="321.94433306853136" cy="183.95916110487457" fill="#31A354"><title>salzburgerland-com-en</title></circle>
      <a class="bubble" href="https://lod-cloud.net/dataset/salzburgerland-com-en" target="_blank">
          <text x="321.94433306853136" y="183.95916110487457">Salzbu...</text>
      </a>
    </g>
    <g id="6"
        onmouseover="mo(this)" onmouseout="mleave(this)">
      <circle class="node" r="23.3" cx="321.468824071355" cy="242.4719201448742" fill="#63b3de"><title>data-incubator-discogs</title></circle>
      <a class="bubble" href="https://lod-cloud.net/dataset/data-incubator-discogs" target="_blank">
          <text x="321.468824071355" y="242.4719201448742">Discog...</text>
      </a>
    </g>
    <g id="7"
        onmouseover="mo(this)" onmouseout="mleave(this)">
      <circle class="node" r="19.5" cx="372.68064671262607" cy="155.90035629078136" fill="#31A354"><title>ASCDC-CTS-TV-Programs</title></circle>
      <a class="bubble" href="https://lod-cloud.net/dataset/ASCDC-CTS-TV-Programs" target="_blank">
          <text x="372.68064671262607" y="155.90035629078136">The Ch...</text>
      </a>
    </g>
    <g id="8"
        onmouseover="mo(this)" onmouseout="mleave(this)">
      <circle class="node" r="22.8" cx="419.4177369350142" cy="245.17581574715575" fill="#31A354"><title>bbc-programmes</title></circle>
      <a class="bubble" href="https://lod-cloud.net/dataset/bbc-programmes" target="_blank">
          <text x="419.4177369350142" y="245.17581574715575">BBC Pr...</text>
      </a>
    </g>
    <g id="9"
        onmouseover="mo(this)" onmouseout="mleave(this)">
      <circle class="node" r="21.8" cx="223.37549574205326" cy="240.50425799988403" fill="#31A354"><title>linkedmdb</title></circle>
      <a class="bubble" href="https://lod-cloud.net/dataset/linkedmdb" target="_blank">
          <text x="223.37549574205326" y="240.50425799988403">Linked...</text>
      </a>
    </g>
    <g id="10"
        onmouseover="mo(this)" onmouseout="mleave(this)">
      <circle class="node" r="21.0" cx="422.1458727599177" cy="186.9057170508736" fill="#31A354"><title>gemeenschappelijke-thesaurus-audiovisuele-archieven</title></circle>
      <a class="bubble" href="https://lod-cloud.net/dataset/gemeenschappelijke-thesaurus-audiovisuele-archieven" target="_blank">
          <text x="422.1458727599177" y="186.9057170508736">Gemeen...</text>
      </a>
    </g>
    <g id="11"
        onmouseover="mo(this)" onmouseout="mleave(this)">
      <circle class="node" r="22.5" cx="370.732198223313" cy="214.27233266916863" fill="#31A354"><title>muziekweb</title></circle>
      <a class="bubble" href="https://lod-cloud.net/dataset/muziekweb" target="_blank">
          <text x="370.732198223313" y="214.27233266916863">Muziekweb</text>
      </a>
    </g>
    <g id="12"
        onmouseover="mo(this)" onmouseout="mleave(this)">
      <circle class="node" r="20.3" cx="469.05040585792324" cy="274.6777691705567" fill="#63b3de"><title>surge-radio</title></circle>
      <a class="bubble" href="https://lod-cloud.net/dataset/surge-radio" target="_blank">
          <text x="469.05040585792324" y="274.6777691705567">Surge ...</text>
      </a>
    </g>
    <g id="13"
        onmouseover="mo(this)" onmouseout="mleave(this)">
      <circle class="node" r="19.4" cx="418.8772533329213" cy="302.2907239888393" fill="#31A354"><title>bbc-wildlife-finder</title></circle>
      <a class="bubble" href="https://lod-cloud.net/dataset/bbc-wildlife-finder" target="_blank">
          <text x="418.8772533329213" y="302.2907239888393">BBC Wi...</text>
      </a>
    </g>
    <g id="14"
        onmouseover="mo(this)" onmouseout="mleave(this)">
      <circle class="node" r="21.9" cx="417.29050065566895" cy="359.92233816224825" fill="#31A354"><title>dbtropes</title></circle>
      <a class="bubble" href="https://lod-cloud.net/dataset/dbtropes" target="_blank">
          <text x="417.29050065566895" y="359.92233816224825">DBTropes</text>
      </a>
    </g>
    <g id="15"
        onmouseover="mo(this)" onmouseout="mleave(this)">
      <circle class="node" r="20.5" cx="368.47406301928805" cy="329.4101323573399" fill="#63b3de"><title>dbtune-magnatune</title></circle>
      <a class="bubble" href="https://lod-cloud.net/dataset/dbtune-magnatune" target="_blank">
          <text x="368.47406301928805" y="329.4101323573399">DBTune...</text>
      </a>
    </g>
    <g id="16"
        onmouseover="mo(this)" onmouseout="mleave(this)">
      <circle class="node" r="18.1" cx="366.19501932496064" cy="386.60000729862725" fill="#63b3de"><title>data-incubator-moseley</title></circle>
      <a class="bubble" href="https://lod-cloud.net/dataset/data-incubator-moseley" target="_blank">
          <text x="366.19501932496064" y="386.60000729862725">Mosele...</text>
      </a>
    </g>
    <g id="17"
        onmouseover="mo(this)" onmouseout="mleave(this)">
      <circle class="node" r="21.4" cx="317.9944905784035" cy="356.17085207417347" fill="#31A354"><title>ontos-news-portal</title></circle>
      <a class="bubble" href="https://lod-cloud.net/dataset/ontos-news-portal" target="_blank">
          <text x="317.9944905784035" y="356.17085207417347">Ontos ...</text>
      </a>
    </g>
    <g id="18"
        onmouseover="mo(this)" onmouseout="mleave(this)">
      <circle class="node" r="20.4" cx="320.05162745328147" cy="299.3611652388246" fill="#31A354"><title>dbtune-john-peel-sessions</title></circle>
      <a class="bubble" href="https://lod-cloud.net/dataset/dbtune-john-peel-sessions" target="_blank">
          <text x="320.05162745328147" y="299.3611652388246">DBTune...</text>
      </a>
    </g>
    <g id="19"
        onmouseover="mo(this)" onmouseout="mleave(this)">
      <circle class="node" r="21.0" cx="369.7742069752147" cy="272.2976547824388" fill="#63b3de"><title>jamendo-dbtune</title></circle>
      <a class="bubble" href="https://lod-cloud.net/dataset/jamendo-dbtune" target="_blank">
          <text x="369.7742069752147" y="272.2976547824388">DBTune...</text>
      </a>
    </g>
    <g id="20"
        onmouseover="mo(this)" onmouseout="mleave(this)">
      <circle class="node" r="22.8" cx="167.75325150114827" cy="324.17564054393404" fill="#63b3de"><title>zitgist-musicbrainz</title></circle>
      <a class="bubble" href="https://lod-cloud.net/dataset/zitgist-musicbrainz" target="_blank">
          <text x="167.75325150114827" y="324.17564054393404">MusicB...</text>
      </a>
    </g>
    <g id="21"
        onmouseover="mo(this)" onmouseout="mleave(this)">
      <circle class="node" r="22.6" cx="315.22608831259487" cy="412.8888601103423" fill="#31A354"><title>event-media</title></circle>
      <a class="bubble" href="https://lod-cloud.net/dataset/event-media" target="_blank">
          <text x="315.22608831259487" y="412.8888601103423">EventM...</text>
      </a>
    </g>
    <g id="22"
        onmouseover="mo(this)" onmouseout="mleave(this)">
      <circle class="node" r="20.5" cx="272.83175049242993" cy="213.08309258658028" fill="#31A354"><title>nytimes-linked-open-data</title></circle>
      <a class="bubble" href="https://lod-cloud.net/dataset/nytimes-linked-open-data" target="_blank">
          <text x="272.83175049242993" y="213.08309258658028">New Yo...</text>
      </a>
    </g>
    <g id="23"
        onmouseover="mo(this)" onmouseout="mleave(this)">
      <circle class="node" r="20.6" cx="266.55643471560603" cy="382.40147009656664" fill="#63b3de"><title>dbtune-classical</title></circle>
      <a class="bubble" href="https://lod-cloud.net/dataset/dbtune-classical" target="_blank">
          <text x="266.55643471560603" y="382.40147009656664">DBTune...</text>
      </a>
    </g>
    <g id="24"
        onmouseover="mo(this)" onmouseout="mleave(this)">
      <circle class="node" r="19.5" cx="265.21148684461053" cy="440.5437654418862" fill="#31A354"><title>eutc-productions</title></circle>
      <a class="bubble" href="https://lod-cloud.net/dataset/eutc-productions" target="_blank">
          <text x="265.21148684461053" y="440.5437654418862">Edinbu...</text>
      </a>
    </g>
    <g id="25"
        onmouseover="mo(this)" onmouseout="mleave(this)">
      <circle class="node" r="19.4" cx="216.2289790633539" cy="409.9415784612162" fill="#31A354"><title>data-incubator-pokedex</title></circle>
      <a class="bubble" href="https://lod-cloud.net/dataset/data-incubator-pokedex" target="_blank">
          <text x="216.2289790633539" y="409.9415784612162">Pokede...</text>
      </a>
    </g>
    <g id="26"
        onmouseover="mo(this)" onmouseout="mleave(this)">
      <circle class="node" r="20.1" cx="166.34639059458885" cy="439.7020745717608" fill="#31A354"><title>ASCDC-Tibetan-Audio-Archive</title></circle>
      <a class="bubble" href="https://lod-cloud.net/dataset/ASCDC-Tibetan-Audio-Archive" target="_blank">
          <text x="166.34639059458885" y="439.7020745717608">The Ti...</text>
      </a>
    </g>
    <g id="27"
        onmouseover="mo(this)" onmouseout="mleave(this)">
      <circle class="node" r="21.5" cx="166.2371665609596" cy="381.47433056777857" fill="#31A354"><title>bricklink</title></circle>
      <a class="bubble" href="https://lod-cloud.net/dataset/bricklink" target="_blank">
          <text x="166.2371665609596" y="381.47433056777857">Bricklink</text>
      </a>
    </g>
    <g id="28"
        onmouseover="mo(this)" onmouseout="mleave(this)">
      <circle class="node" r="22.3" cx="116.17804173929434" cy="352.0655206497954" fill="#31A354"><title>chronicling-america</title></circle>
      <a class="bubble" href="https://lod-cloud.net/dataset/chronicling-america" target="_blank">
          <text x="116.17804173929434" y="352.0655206497954">Chroni...</text>
      </a>
    </g>
    <g id="29"
        onmouseover="mo(this)" onmouseout="mleave(this)">
      <circle class="node" r="19.5" cx="122.89527063655095" cy="236.00429706405276" fill="#31A354"><title>salzburgerland-com-de</title></circle>
      <a class="bubble" href="https://lod-cloud.net/dataset/salzburgerland-com-de" target="_blank">
          <text x="122.89527063655095" y="236.00429706405276">Salzbu...</text>
      </a>
    </g>
    <g id="30"
        onmouseover="mo(this)" onmouseout="mleave(this)">
      <circle class="node" r="20.5" cx="174.3904415228842" cy="210.10633784133972" fill="#31A354"><title>edublogs</title></circle>
      <a class="bubble" href="https://lod-cloud.net/dataset/edublogs" target="_blank">
          <text x="174.3904415228842" y="210.10633784133972">Edublogs</text>
      </a>
    </g>
    <g id="31"
        onmouseover="mo(this)" onmouseout="mleave(this)">
      <circle class="node" r="23.6" cx="173.00227945840157" cy="267.6734196340424" fill="#63b3de"><title>rdfize-lastfm</title></circle>
      <a class="bubble" href="https://lod-cloud.net/dataset/rdfize-lastfm" target="_blank">
          <text x="173.00227945840157" y="267.6734196340424">Last.F...</text>
      </a>
    </g>
    <g id="32"
        onmouseover="mo(this)" onmouseout="mleave(this)">
      <circle class="node" r="21.6" cx="175.87867284375073" cy="151.50412919105958" fill="#31A354"><title>betweenourworlds</title></circle>
      <a class="bubble" href="https://lod-cloud.net/dataset/betweenourworlds" target="_blank">
          <text x="175.87867284375073" y="151.50412919105958">Betwee...</text>
      </a>
    </g>
    <g id="33"
        onmouseover="mo(this)" onmouseout="mleave(this)">
      <circle class="node" r="20.1" cx="224.37414507863528" cy="183.08387743428074" fill="#31A354"><title>pokepedia-fr</title></circle>
      <a class="bubble" href="https://lod-cloud.net/dataset/pokepedia-fr" target="_blank">
          <text x="224.37414507863528" y="183.08387743428074">Poképé...</text>
      </a>
    </g>
    <g id="34"
        onmouseover="mo(this)" onmouseout="mleave(this)">
      <circle class="node" r="23.8" cx="118.57349124532723" cy="294.03413238747163" fill="#63b3de"><title>dbtune-audioscrobbler</title></circle>
      <a class="bubble" href="https://lod-cloud.net/dataset/dbtune-audioscrobbler" target="_blank">
          <text x="118.57349124532723" y="294.03413238747163">DBTune...</text>
      </a>
    </g>
    <g id="35"
        onmouseover="mo(this)" onmouseout="mleave(this)">
      <circle class="node" r="18.6" cx="272.9887222416293" cy="153.20703734208416" fill="#31A354"><title>salzburgerland-com-it</title></circle>
      <a class="bubble" href="https://lod-cloud.net/dataset/salzburgerland-com-it" target="_blank">
          <text x="272.9887222416293" y="153.20703734208416">Salzbu...</text>
      </a>
    </g>
    <g transform="translate(20,617) scale(1)">
      <text style="font-family: Verdana, Arial;">The Media Linked Open Data Cloud from lod-cloud.net</text>
    </g>
      <g transform="translate(480, 600)">
<svg
   xmlns:dc="http://purl.org/dc/elements/1.1/"
   xmlns:cc="http://web.resource.org/cc/"
   xmlns:rdf="http://www.w3.org/1999/02/22-rdf-syntax-ns#"
   xmlns:svg="http://www.w3.org/2000/svg"
   xmlns="http://www.w3.org/2000/svg"
   xmlns:sodipodi="http://sodipodi.sourceforge.net/DTD/sodipodi-0.dtd"
   xmlns:inkscape="http://www.inkscape.org/namespaces/inkscape"
   width="120"
   height="42"
   id="svg2759"
   sodipodi:version="0.32"
   inkscape:version="0.45+devel"
   version="1.0"
   sodipodi:docname="by.svg"
   inkscape:output_extension="org.inkscape.output.svg.inkscape">
  <defs
     id="defs2761" />
  <sodipodi:namedview
     id="base"
     pagecolor="#ffffff"
     bordercolor="#8b8b8b"
     borderopacity="1"
     gridtolerance="10000"
     guidetolerance="10"
     objecttolerance="10"
     inkscape:pageopacity="0.0"
     inkscape:pageshadow="2"
     inkscape:zoom="1"
     inkscape:cx="179"
     inkscape:cy="89.569904"
     inkscape:document-units="px"
     inkscape:current-layer="layer1"
     width="120px"
     height="42px"
     inkscape:showpageshadow="false"
     inkscape:window-width="1198"
     inkscape:window-height="624"
     inkscape:window-x="396"
     inkscape:window-y="242" />
  <metadata
     id="metadata2764">
    <rdf:RDF>
      <cc:Work
         rdf:about="">
        <dc:format>image/svg+xml</dc:format>
        <dc:type
           rdf:resource="http://purl.org/dc/dcmitype/StillImage" />
      </cc:Work>
    </rdf:RDF>
  </metadata>
  <g
     inkscape:label="Layer 1"
     inkscape:groupmode="layer"
     id="layer1">
    <g
       transform="matrix(0.9937728,0,0,0.9936696,-177.69267,6.25128e-7)"
       id="g260"
       inkscape:export-filename="/mnt/hgfs/Bov/Documents/Work/2007/cc/identity/srr buttons/big/by.png"
       inkscape:export-xdpi="300.23013"
       inkscape:export-ydpi="300.23013">
	<path
   id="path3817_1_"
   nodetypes="ccccccc"
   d="M 181.96579,0.51074 L 296.02975,0.71338 C 297.6235,0.71338 299.04733,0.47705 299.04733,3.89404 L 298.90768,41.46093 L 179.08737,41.46093 L 179.08737,3.75439 C 179.08737,2.06934 179.25046,0.51074 181.96579,0.51074 z"
   style="fill:#aab2ab" />

	<path
   d="M 297.29636,0 L 181.06736,0 C 179.82078,0 178.80613,1.01416 178.80613,2.26074 L 178.80613,41.75732 C 178.80613,42.03906 179.03513,42.26757 179.31687,42.26757 L 299.04734,42.26757 C 299.32908,42.26757 299.55808,42.03905 299.55808,41.75732 L 299.55808,2.26074 C 299.55807,1.01416 298.54343,0 297.29636,0 z M 181.06735,1.02148 L 297.29635,1.02148 C 297.98043,1.02148 298.53658,1.57714 298.53658,2.26074 C 298.53658,2.26074 298.53658,18.20898 298.53658,29.71045 L 215.19234,29.71045 C 212.14742,35.21631 206.28121,38.95459 199.54879,38.95459 C 192.81344,38.95459 186.94869,35.21973 183.90524,29.71045 L 179.8276,29.71045 C 179.8276,18.20899 179.8276,2.26074 179.8276,2.26074 C 179.82761,1.57715 180.38376,1.02148 181.06735,1.02148 z"
   id="path263" />

	<g
   enable-background="new    "
   id="g265">
		<path
   d="M 253.07761,32.95605 C 253.39499,32.95605 253.68503,32.98437 253.94773,33.04003 C 254.20945,33.09569 254.43308,33.18749 254.62058,33.31542 C 254.8071,33.44237 254.95261,33.6123 255.05515,33.82323 C 255.15769,34.03514 255.20945,34.29589 255.20945,34.60741 C 255.20945,34.94335 255.13328,35.22264 254.97996,35.44628 C 254.82762,35.67089 254.60105,35.85351 254.30223,35.99706 C 254.71434,36.11522 255.02196,36.32226 255.22508,36.61815 C 255.4282,36.91404 255.52977,37.27049 255.52977,37.68749 C 255.52977,38.02343 255.46434,38.31444 255.33348,38.56054 C 255.20262,38.80566 255.02586,39.00683 254.80516,39.1621 C 254.58348,39.31835 254.33055,39.43358 254.04735,39.5078 C 253.76317,39.583 253.47215,39.6201 253.17235,39.6201 L 249.936,39.6201 L 249.936,32.95604 L 253.07761,32.95604 L 253.07761,32.95605 z M 252.89011,35.65137 C 253.15183,35.65137 253.36667,35.58887 253.53562,35.46485 C 253.70359,35.34083 253.78757,35.13965 253.78757,34.86036 C 253.78757,34.70509 253.75925,34.57716 253.70359,34.47852 C 253.64695,34.37891 253.57273,34.30176 253.47898,34.24512 C 253.38523,34.18946 253.27781,34.15039 253.15671,34.12891 C 253.03561,34.10743 252.90866,34.09668 252.77878,34.09668 L 251.40476,34.09668 L 251.40476,35.65137 L 252.89011,35.65137 z M 252.97604,38.47949 C 253.11959,38.47949 253.25631,38.46582 253.38717,38.4375 C 253.51803,38.40918 253.63326,38.3623 253.73385,38.29785 C 253.83346,38.23242 253.91256,38.14355 253.97213,38.03125 C 254.0317,37.91992 254.061,37.77637 254.061,37.60254 C 254.061,37.26074 253.96432,37.0166 253.77096,36.87012 C 253.5776,36.72461 253.32174,36.65137 253.00436,36.65137 L 251.40475,36.65137 L 251.40475,38.47949 L 252.97604,38.47949 z"
   id="path267"
   style="fill:#ffffff" />

		<path
   d="M 255.78854,32.95605 L 257.43209,32.95605 L 258.99264,35.58789 L 260.54342,32.95605 L 262.17721,32.95605 L 259.70358,37.0625 L 259.70358,39.62012 L 258.23483,39.62012 L 258.23483,37.02539 L 255.78854,32.95605 z"
   id="path269"
   style="fill:#ffffff" />

	</g>

	<g
   id="g5908_1_"
   transform="matrix(0.872921,0,0,0.872921,50.12536,143.2144)">
		
			<path
   id="path5906_1_"
   cx="296.35416"
   ry="22.939548"
   cy="264.3577"
   type="arc"
   rx="22.939548"
   d="M 186.90065,-141.46002 C 186.90623,-132.77923 179.87279,-125.73852 171.19257,-125.73291 C 162.51235,-125.72736 155.47051,-132.76025 155.46547,-141.44098 C 155.46547,-141.44714 155.46547,-141.45331 155.46547,-141.46002 C 155.46043,-150.14081 162.49333,-157.18152 171.17355,-157.18658 C 179.8549,-157.19213 186.89561,-150.15924 186.90065,-141.47845 C 186.90065,-141.4729 186.90065,-141.46619 186.90065,-141.46002 z"
   style="fill:#ffffff" />

		<g
   id="g5706_1_"
   transform="translate(-289.6157,99.0653)">
			<path
   id="path5708_1_"
   d="M 473.57574,-253.32751 C 477.06115,-249.8421 478.80413,-245.5736 478.80413,-240.52532 C 478.80413,-235.47594 477.09136,-231.25329 473.66582,-227.85741 C 470.03051,-224.28081 465.734,-222.49309 460.77635,-222.49309 C 455.87858,-222.49309 451.65648,-224.26628 448.11122,-227.81261 C 444.56541,-231.35845 442.79277,-235.59563 442.79277,-240.52532 C 442.79277,-245.45391 444.56541,-249.7213 448.11122,-253.32751 C 451.56642,-256.81402 455.7885,-258.557 460.77635,-258.557 C 465.82465,-258.55701 470.09039,-256.81403 473.57574,-253.32751 z M 450.45776,-250.98267 C 447.51104,-248.00629 446.03823,-244.51978 446.03823,-240.52033 C 446.03823,-236.52198 447.49651,-233.06507 450.41247,-230.14966 C 453.32897,-227.23316 456.80096,-225.77545 460.82952,-225.77545 C 464.85808,-225.77545 468.35967,-227.24768 471.33605,-230.19385 C 474.16198,-232.9303 475.57549,-236.37091 475.57549,-240.52033 C 475.57549,-244.63837 474.13903,-248.13379 471.26781,-251.00501 C 468.39714,-253.87568 464.9179,-255.31159 460.82952,-255.31159 C 456.74112,-255.31158 453.28314,-253.86841 450.45776,-250.98267 z M 458.21225,-242.27948 C 457.76196,-243.26117 457.08795,-243.75232 456.18903,-243.75232 C 454.59986,-243.75232 453.80558,-242.68225 453.80558,-240.54321 C 453.80558,-238.40368 454.59986,-237.33471 456.18903,-237.33471 C 457.23841,-237.33471 457.98795,-237.85546 458.43769,-238.89922 L 460.64045,-237.72625 C 459.59052,-235.86077 458.01536,-234.92779 455.91496,-234.92779 C 454.29506,-234.92779 452.99733,-235.42449 452.0229,-236.4168 C 451.0468,-237.41021 450.56016,-238.77953 450.56016,-240.52532 C 450.56016,-242.24035 451.06245,-243.60186 452.06764,-244.61034 C 453.07283,-245.61888 454.32466,-246.12291 455.82545,-246.12291 C 458.04557,-246.12291 459.63526,-245.24803 460.59626,-243.50005 L 458.21225,-242.27948 z M 468.57562,-242.27948 C 468.12475,-243.26117 467.46417,-243.75232 466.5932,-243.75232 C 464.97217,-243.75232 464.16107,-242.68225 464.16107,-240.54321 C 464.16107,-238.40368 464.97217,-237.33471 466.5932,-237.33471 C 467.64429,-237.33471 468.38037,-237.85546 468.80048,-238.89922 L 471.05249,-237.72625 C 470.00421,-235.86077 468.43127,-234.92779 466.33478,-234.92779 C 464.7171,-234.92779 463.42218,-235.42449 462.44831,-236.4168 C 461.47614,-237.41021 460.98896,-238.77953 460.98896,-240.52532 C 460.98896,-242.24035 461.48341,-243.60186 462.47181,-244.61034 C 463.45966,-245.61888 464.71711,-246.12291 466.24531,-246.12291 C 468.4615,-246.12291 470.04896,-245.24803 471.0066,-243.50005 L 468.57562,-242.27948 z" />

		</g>

	</g>

	<g
   id="g275">
		<circle
   cx="255.55124"
   cy="15.31348"
   r="10.80664"
   id="circle277"
   sodipodi:cx="255.55124"
   sodipodi:cy="15.31348"
   sodipodi:rx="10.80664"
   sodipodi:ry="10.80664"
   style="fill:#ffffff" />

		<g
   id="g279">
			<path
   d="M 258.67819,12.18701 C 258.67819,11.77051 258.3403,11.4331 257.92526,11.4331 L 253.15182,11.4331 C 252.73678,11.4331 252.39889,11.7705 252.39889,12.18701 L 252.39889,16.95996 L 253.72994,16.95996 L 253.72994,22.61182 L 257.34713,22.61182 L 257.34713,16.95996 L 258.67818,16.95996 L 258.67818,12.18701 L 258.67819,12.18701 z"
   id="path281" />

			<circle
   cx="255.53854"
   cy="9.1723604"
   r="1.63281"
   id="circle283"
   sodipodi:cx="255.53854"
   sodipodi:cy="9.1723604"
   sodipodi:rx="1.63281"
   sodipodi:ry="1.63281" />

		</g>

		<path
   clip-rule="evenodd"
   d="M 255.5239,3.40723 C 252.29148,3.40723 249.55515,4.53516 247.31589,6.79102 C 245.01804,9.12452 243.8696,11.88672 243.8696,15.07569 C 243.8696,18.26466 245.01804,21.00733 247.31589,23.30225 C 249.61374,25.59668 252.35007,26.74414 255.5239,26.74414 C 258.73679,26.74414 261.52195,25.58789 263.87742,23.27295 C 266.09715,21.07568 267.2075,18.34326 267.2075,15.07568 C 267.2075,11.8081 266.07762,9.04687 263.8198,6.79101 C 261.56003,4.53516 258.79538,3.40723 255.5239,3.40723 z M 255.55319,5.50684 C 258.20163,5.50684 260.45065,6.44092 262.30026,8.30811 C 264.1694,10.15528 265.10397,12.41114 265.10397,15.07569 C 265.10397,17.75928 264.18893,19.98633 262.35885,21.75587 C 260.43014,23.66212 258.16256,24.61476 255.55319,24.61476 C 252.94284,24.61476 250.69381,23.67189 248.80612,21.78517 C 246.91647,19.89845 245.97311,17.66212 245.97311,15.0757 C 245.97311,12.48879 246.92721,10.23341 248.83541,8.30812 C 250.6655,6.44092 252.90475,5.50684 255.55319,5.50684 z"
   id="path285"
   style="fill-rule:evenodd" />

	</g>

</g>
  </g>
</svg>

      </g>
  </g>
</svg>
