<svg
    xmlns="http://www.w3.org/2000/svg" width="600" height="642">
<script type="text/javascript"><![CDATA[
function mo(elem) {    
    var  line =document.getElementsByTagName("line")
 
  elem.setAttribute("class","circle-active");
    for(i = 0; i < line.length; i++) {                                          
                                                                                
        if(line[i].getAttributeNode("targetId").value === elem.id) {            
            line[i].setAttribute("class","link-activeIncoming");
            document.getElementById(line[i].getAttributeNode("sourceId").value).setAttribute("class","circle-active");

        } 
        if(line[i].getAttributeNode("sourceId").value === elem.id) {            
            line[i].setAttribute("class","link-activeOutgoung");
            document.getElementById(line[i].getAttributeNode("targetId").value).setAttribute("class","circle-active");

        }
        if((line[i].getAttributeNode("targetId").value === elem.id)&&(line[i].getAttributeNode("sourceId").value === elem.id)) {            
            line[i].setAttribute("class","link-activeBoth");
             document.getElementById(line[i].getAttributeNode("targetId").value).setAttribute("class","circle-active");
             document.getElementById(line[i].getAttributeNode("sourceId").value).setAttribute("class","circle-active");
        }                                                                              
    }                                                                           
}

function mleave(elem) {                   
    elem.setAttribute("class","circle-pasive");                                      
    var line = document.getElementsByTagName("line");                           
    for(i = 0; i < line.length; i++) {                                          
                                                                                
        if(line[i].getAttributeNode("targetId").value === elem.id) {     
        document.getElementById(line[i].getAttributeNode("sourceId").value).setAttribute("class","circle-pasive");       
            line[i].setAttribute("class","link");       
        }
        if(line[i].getAttributeNode("sourceId").value === elem.id) {            
            document.getElementById(line[i].getAttributeNode("targetId").value).setAttribute("class","circle-pasive");
            line[i].setAttribute("class","link");       
        }                                                                          
    }                                                                           
}
]]></script>
  <style>
    circle { 
        stroke: #333;
        stroke-width: 1.5px;
        fill-opacity: 0.8; 
    } 
    .bubble text {
        text-anchor: middle;
        font-size: .5em;
    }
    .circle-active circle { 
        stroke: #e80000;  
        stroke-width: 3px; 
    } 
    .link { 
        stroke: #e0270b;  
        stroke: #555;  
        stroke-opacity: 0.7;  
        stroke-width: 1px;  
        stroke-dasharray:none;
    } 
    .link-activeIncoming {  
        stroke-opacity: 1; 
        stroke-width: 10;  
        stroke: #be1b38; 
    } 
    .link-activeOutgoung {  
        stroke-opacity: 1;  
        stroke-width: 10; 
        stroke: #1AC21D;  
    } 
    .link-activeBoth {  
        stroke-opacity: 1;  
        stroke: #1AC21D;  
        stroke-width: 10;  
        stroke-dasharray:5,10,5;}
  </style>
  <g transform="scale(0.5)">
    <g id="legend">
      <text transform="translate(30,30)" style="font-family:Verdana, Arial, DejaVu Sans;font-size:200%;text-decoration:underline;">Legend</text>
      <rect width="310" height="35" style="fill:#3182BD" transform="translate(30,45)"/>
      <text transform="translate(35,72)" style="font-family:Verdana, Arial;font-size:200%">Geography</text>
    </g>
  </g>
  <g class="links">
    <line class="link" targetId="0" sourceId="1" x1="303.92504691697366" y1="170.84158597689392" x2="288.6607518156892" y2="270.7115501541946"/>
    <line class="link" targetId="0" sourceId="2" x1="303.92504691697366" y1="170.84158597689392" x2="339.7860741814615" y2="125.41841202669534"/>
    <line class="link" targetId="3" sourceId="4" x1="474.15800039501073" y1="195.80743424453613" x2="368.6118059427718" y2="332.2119794648075"/>
    <line class="link" targetId="5" sourceId="1" x1="359.97036375270875" y1="180.90702650303376" x2="288.6607518156892" y2="270.7115501541946"/>
    <line class="link" targetId="5" sourceId="6" x1="359.97036375270875" y1="180.90702650303376" x2="380.8220824654892" y2="233.6259000209903"/>
    <line class="link" targetId="7" sourceId="4" x1="438.43956299703143" y1="242.18264715454168" x2="368.6118059427718" y2="332.2119794648075"/>
    <line class="link" targetId="9" sourceId="1" x1="310.42675740773456" y1="322.75592577437834" x2="288.6607518156892" y2="270.7115501541946"/>
    <line class="link" targetId="10" sourceId="11" x1="281.3785915295145" y1="116.6205039392735" x2="268.3767686845882" y2="216.3143566836546"/>
    <line class="link" targetId="12" sourceId="1" x1="416.43749923125074" y1="189.09442122239972" x2="288.6607518156892" y2="270.7115501541946"/>
    <line class="link" targetId="12" sourceId="4" x1="416.43749923125074" y1="189.09442122239972" x2="368.6118059427718" y2="332.2119794648075"/>
    <line class="link" targetId="12" sourceId="9" x1="416.43749923125074" y1="189.09442122239972" x2="310.42675740773456" y2="322.75592577437834"/>
    <line class="link" targetId="13" sourceId="4" x1="518.2640522797639" y1="303.81288857534975" x2="368.6118059427718" y2="332.2119794648075"/>
    <line class="link" targetId="14" sourceId="1" x1="324.14328502495334" y1="226.23777231904282" x2="288.6607518156892" y2="270.7115501541946"/>
    <line class="link" targetId="14" sourceId="4" x1="324.14328502495334" y1="226.23777231904282" x2="368.6118059427718" y2="332.2119794648075"/>
    <line class="link" targetId="15" sourceId="4" x1="460.24348281673383" y1="295.35596124444936" x2="368.6118059427718" y2="332.2119794648075"/>
    <line class="link" targetId="16" sourceId="1" x1="346.19605858737106" y1="278.83307444772976" x2="288.6607518156892" y2="270.7115501541946"/>
    <line class="link" targetId="16" sourceId="8" x1="346.19605858737106" y1="278.83307444772976" x2="496.15266734644445" y2="249.6073494288734"/>
    <line class="link" targetId="17" sourceId="4" x1="481.95145911689497" y1="348.8626383851937" x2="368.6118059427718" y2="332.2119794648075"/>
    <line class="link" targetId="18" sourceId="19" x1="186.06806485750292" y1="460.4509225691421" x2="182.22413280567662" y2="403.67413997478485"/>
    <line class="link" targetId="20" sourceId="21" x1="115.1236243100337" y1="451.09515574272336" x2="124.10097726264308" y2="394.1986407946172"/>
    <line class="link" targetId="6" sourceId="1" x1="380.8220824654892" y1="233.6259000209903" x2="288.6607518156892" y2="270.7115501541946"/>
    <line class="link" targetId="6" sourceId="5" x1="380.8220824654892" y1="233.6259000209903" x2="359.97036375270875" y2="180.90702650303376"/>
    <line class="link" targetId="22" sourceId="1" x1="402.82573241645133" y1="287.0099380725389" x2="288.6607518156892" y2="270.7115501541946"/>
    <line class="link" targetId="1" sourceId="4" x1="288.6607518156892" y1="270.7115501541946" x2="368.6118059427718" y2="332.2119794648075"/>
    <line class="link" targetId="1" sourceId="9" x1="288.6607518156892" y1="270.7115501541946" x2="310.42675740773456" y2="322.75592577437834"/>
    <line class="link" targetId="23" sourceId="4" x1="331.83545042581966" y1="375.34326828937685" x2="368.6118059427718" y2="332.2119794648075"/>
    <line class="link" targetId="23" sourceId="1" x1="331.83545042581966" y1="375.34326828937685" x2="288.6607518156892" y2="270.7115501541946"/>
    <line class="link" targetId="23" sourceId="9" x1="331.83545042581966" y1="375.34326828937685" x2="310.42675740773456" y2="322.75592577437834"/>
    <line class="link" targetId="24" sourceId="1" x1="275.15752815530834" y1="367.3318146998473" x2="288.6607518156892" y2="270.7115501541946"/>
    <line class="link" targetId="24" sourceId="9" x1="275.15752815530834" y1="367.3318146998473" x2="310.42675740773456" y2="322.75592577437834"/>
    <line class="link" targetId="25" sourceId="1" x1="238.8388438438972" y1="413.60854014937064" x2="288.6607518156892" y2="270.7115501541946"/>
    <line class="link" targetId="26" sourceId="1" x1="315.0100728357234" y1="474.0383742381599" x2="288.6607518156892" y2="270.7115501541946"/>
    <line class="link" targetId="26" sourceId="22" x1="315.0100728357234" y1="474.0383742381599" x2="402.82573241645133" y2="287.0099380725389"/>
    <line class="link" targetId="27" sourceId="4" x1="503.7928682577792" y1="402.4574514879483" x2="368.6118059427718" y2="332.2119794648075"/>
    <line class="link" targetId="29" sourceId="4" x1="445.81272038520683" y1="393.88234693222324" x2="368.6118059427718" y2="332.2119794648075"/>
    <line class="link" targetId="30" sourceId="21" x1="78.06249143914764" y1="359.5826864673651" x2="124.10097726264308" y2="394.1986407946172"/>
    <line class="link" targetId="31" sourceId="1" x1="295.6110693854512" y1="420.37798968489636" x2="288.6607518156892" y2="270.7115501541946"/>
    <line class="link" targetId="32" sourceId="28" x1="80.76080947198864" y1="287.98598167881875" x2="137.82240480372556" y2="295.84605602363695"/>
    <line class="link" targetId="19" sourceId="1" x1="182.22413280567662" y1="403.67413997478485" x2="288.6607518156892" y2="270.7115501541946"/>
    <line class="link" targetId="19" sourceId="18" x1="182.22413280567662" y1="403.67413997478485" x2="186.06806485750292" y2="460.4509225691421"/>
    <line class="link" targetId="19" sourceId="9" x1="182.22413280567662" y1="403.67413997478485" x2="310.42675740773456" y2="322.75592577437834"/>
    <line class="link" targetId="33" sourceId="4" x1="388.88433944546455" y1="385.1650046902529" x2="368.6118059427718" y2="332.2119794648075"/>
    <line class="link" targetId="34" sourceId="4" x1="424.8665820227145" y1="340.3667161187681" x2="368.6118059427718" y2="332.2119794648075"/>
    <line class="link" targetId="35" sourceId="1" x1="218.62379908748835" y1="359.3598727555654" x2="288.6607518156892" y2="270.7115501541946"/>
    <line class="link" targetId="35" sourceId="4" x1="218.62379908748835" y1="359.3598727555654" x2="368.6118059427718" y2="332.2119794648075"/>
    <line class="link" targetId="36" sourceId="1" x1="160.7221859494216" y1="349.5023883442426" x2="288.6607518156892" y2="270.7115501541946"/>
    <line class="link" targetId="21" sourceId="1" x1="124.10097726264308" y1="394.1986407946172" x2="288.6607518156892" y2="270.7115501541946"/>
    <line class="link" targetId="37" sourceId="1" x1="253.89656356102444" y1="314.7638785081568" x2="288.6607518156892" y2="270.7115501541946"/>
    <line class="link" targetId="37" sourceId="4" x1="253.89656356102444" y1="314.7638785081568" x2="368.6118059427718" y2="332.2119794648075"/>
    <line class="link" targetId="38" sourceId="1" x1="232.9133146095145" y1="261.21753635048447" x2="288.6607518156892" y2="270.7115501541946"/>
    <line class="link" targetId="38" sourceId="28" x1="232.9133146095145" y1="261.21753635048447" x2="137.82240480372556" y2="295.84605602363695"/>
    <line class="link" targetId="38" sourceId="14" x1="232.9133146095145" y1="261.21753635048447" x2="324.14328502495334" y2="226.23777231904282"/>
    <line class="link" targetId="39" sourceId="9" x1="466.92330273222524" y1="447.95958970292463" x2="310.42675740773456" y2="322.75592577437834"/>
    <line class="link" targetId="40" sourceId="1" x1="197.67559006213745" y1="305.96818022312465" x2="288.6607518156892" y2="270.7115501541946"/>
    <line class="link" targetId="40" sourceId="4" x1="197.67559006213745" y1="305.96818022312465" x2="368.6118059427718" y2="332.2119794648075"/>
    <line class="link" targetId="41" sourceId="4" x1="409.3847294591839" y1="438.77264293125904" x2="368.6118059427718" y2="332.2119794648075"/>
    <line class="link" targetId="42" sourceId="1" x1="176.23282659908438" y1="253.00076506648335" x2="288.6607518156892" y2="270.7115501541946"/>
    <line class="link" targetId="42" sourceId="4" x1="176.23282659908438" y1="253.00076506648335" x2="368.6118059427718" y2="332.2119794648075"/>
    <line class="link" targetId="43" sourceId="1" x1="153.68724337949448" y1="199.71219428916993" x2="288.6607518156892" y2="270.7115501541946"/>
    <line class="link" targetId="44" sourceId="4" x1="429.98227556431993" y1="493.2004392108995" x2="368.6118059427718" y2="332.2119794648075"/>
    <line class="link" targetId="45" sourceId="1" x1="190.00859274687758" y1="153.75311190076977" x2="288.6607518156892" y2="270.7115501541946"/>
    <line class="link" targetId="46" sourceId="1" x1="211.7089193815807" y1="208.17039243777455" x2="288.6607518156892" y2="270.7115501541946"/>
    <line class="link" targetId="46" sourceId="9" x1="211.7089193815807" y1="208.17039243777455" x2="310.42675740773456" y2="322.75592577437834"/>
    <line class="link" targetId="47" sourceId="1" x1="247.1243029192091" y1="163.18339595707442" x2="288.6607518156892" y2="270.7115501541946"/>
    <line class="link" targetId="47" sourceId="9" x1="247.1243029192091" y1="163.18339595707442" x2="310.42675740773456" y2="322.75592577437834"/>
    <line class="link" targetId="11" sourceId="1" x1="268.3767686845882" y1="216.3143566836546" x2="288.6607518156892" y2="270.7115501541946"/>
    <line class="link" targetId="48" sourceId="4" x1="352.38048615334293" y1="429.2789321530712" x2="368.6118059427718" y2="332.2119794648075"/>
    <line class="link" targetId="49" sourceId="4" x1="372.34293330754014" y1="483.7981375211383" x2="368.6118059427718" y2="332.2119794648075"/>
  </g>
  <g class="nodes">
    <g id="0"
        onmouseover="mo(this)" onmouseout="mleave(this)">
      <circle class="node" r="19.2" cx="303.92504691697366" cy="170.84158597689392" fill="#3182BD"><title>GTS</title></circle>
      <a class="bubble" href="https://lod-cloud.net/dataset/GTS" target="_blank">
          <text x="303.92504691697366" y="170.84158597689392">Geolog...</text>
      </a>
    </g>
    <g id="1"
        onmouseover="mo(this)" onmouseout="mleave(this)">
      <circle class="node" r="25.0" cx="288.6607518156892" cy="270.7115501541946" fill="#3182BD"><title>dbpedia</title></circle>
      <a class="bubble" href="https://lod-cloud.net/dataset/dbpedia" target="_blank">
          <text x="288.6607518156892" y="270.7115501541946">DBpedia</text>
      </a>
    </g>
    <g id="2"
        onmouseover="mo(this)" onmouseout="mleave(this)">
      <circle class="node" r="17.9" cx="339.7860741814615" cy="125.41841202669534" fill="#3182BD"><title>GTS-ont</title></circle>
      <a class="bubble" href="https://lod-cloud.net/dataset/GTS-ont" target="_blank">
          <text x="339.7860741814615" y="125.41841202669534">Geolog...</text>
      </a>
    </g>
    <g id="3"
        onmouseover="mo(this)" onmouseout="mleave(this)">
      <circle class="node" r="15.0" cx="474.15800039501073" cy="195.80743424453613" fill="#3182BD"><title>statusnet-coreyavis-com</title></circle>
      <a class="bubble" href="https://lod-cloud.net/dataset/statusnet-coreyavis-com" target="_blank">
          <text x="474.15800039501073" y="195.80743424453613">status...</text>
      </a>
    </g>
    <g id="4"
        onmouseover="mo(this)" onmouseout="mleave(this)">
      <circle class="node" r="23.0" cx="368.6118059427718" cy="332.2119794648075" fill="#3182BD"><title>geonames-semantic-web</title></circle>
      <a class="bubble" href="https://lod-cloud.net/dataset/geonames-semantic-web" target="_blank">
          <text x="368.6118059427718" y="332.2119794648075">GeoNam...</text>
      </a>
    </g>
    <g id="5"
        onmouseover="mo(this)" onmouseout="mleave(this)">
      <circle class="node" r="20.1" cx="359.97036375270875" cy="180.90702650303376" fill="#3182BD"><title>environmental-applications-reference-thesaurus</title></circle>
      <a class="bubble" href="https://lod-cloud.net/dataset/environmental-applications-reference-thesaurus" target="_blank">
          <text x="359.97036375270875" y="180.90702650303376">EARTh</text>
      </a>
    </g>
    <g id="6"
        onmouseover="mo(this)" onmouseout="mleave(this)">
      <circle class="node" r="20.6" cx="380.8220824654892" cy="233.6259000209903" fill="#3182BD"><title>thist</title></circle>
      <a class="bubble" href="https://lod-cloud.net/dataset/thist" target="_blank">
          <text x="380.8220824654892" y="233.6259000209903">ThIST</text>
      </a>
    </g>
    <g id="7"
        onmouseover="mo(this)" onmouseout="mleave(this)">
      <circle class="node" r="15.0" cx="438.43956299703143" cy="242.18264715454168" fill="#3182BD"><title>eventseer</title></circle>
      <a class="bubble" href="https://lod-cloud.net/dataset/eventseer" target="_blank">
          <text x="438.43956299703143" y="242.18264715454168">Eventseer</text>
      </a>
    </g>
    <g id="8"
        onmouseover="mo(this)" onmouseout="mleave(this)">
      <circle class="node" r="18.5" cx="496.15266734644445" cy="249.6073494288734" fill="#3182BD"><title>Earthquake</title></circle>
      <a class="bubble" href="https://lod-cloud.net/dataset/Earthquake" target="_blank">
          <text x="496.15266734644445" y="249.6073494288734">Emerge...</text>
      </a>
    </g>
    <g id="9"
        onmouseover="mo(this)" onmouseout="mleave(this)">
      <circle class="node" r="24.5" cx="310.42675740773456" cy="322.75592577437834" fill="#3182BD"><title>linkedgeodata</title></circle>
      <a class="bubble" href="https://lod-cloud.net/dataset/linkedgeodata" target="_blank">
          <text x="310.42675740773456" y="322.75592577437834">Linked...</text>
      </a>
    </g>
    <g id="10"
        onmouseover="mo(this)" onmouseout="mleave(this)">
      <circle class="node" r="20.1" cx="281.3785915295145" cy="116.6205039392735" fill="#3182BD"><title>eumida-linked-data</title></circle>
      <a class="bubble" href="https://lod-cloud.net/dataset/eumida-linked-data" target="_blank">
          <text x="281.3785915295145" y="116.6205039392735">EUMIDA...</text>
      </a>
    </g>
    <g id="11"
        onmouseover="mo(this)" onmouseout="mleave(this)">
      <circle class="node" r="20.5" cx="268.3767686845882" cy="216.3143566836546" fill="#3182BD"><title>nuts-geovocab</title></circle>
      <a class="bubble" href="https://lod-cloud.net/dataset/nuts-geovocab" target="_blank">
          <text x="268.3767686845882" y="216.3143566836546">NUTS (...</text>
      </a>
    </g>
    <g id="12"
        onmouseover="mo(this)" onmouseout="mleave(this)">
      <circle class="node" r="15.0" cx="416.43749923125074" cy="189.09442122239972" fill="#3182BD"><title>judaicalink</title></circle>
      <a class="bubble" href="https://lod-cloud.net/dataset/judaicalink" target="_blank">
          <text x="416.43749923125074" y="189.09442122239972">Judaic...</text>
      </a>
    </g>
    <g id="13"
        onmouseover="mo(this)" onmouseout="mleave(this)">
      <circle class="node" r="15.0" cx="518.2640522797639" cy="303.81288857534975" fill="#3182BD"><title>statusnet-ldn-fai-net</title></circle>
      <a class="bubble" href="https://lod-cloud.net/dataset/statusnet-ldn-fai-net" target="_blank">
          <text x="518.2640522797639" y="303.81288857534975">status...</text>
      </a>
    </g>
    <g id="14"
        onmouseover="mo(this)" onmouseout="mleave(this)">
      <circle class="node" r="19.2" cx="324.14328502495334" cy="226.23777231904282" fill="#3182BD"><title>telegraphis</title></circle>
      <a class="bubble" href="https://lod-cloud.net/dataset/telegraphis" target="_blank">
          <text x="324.14328502495334" y="226.23777231904282">Telegr...</text>
      </a>
    </g>
    <g id="15"
        onmouseover="mo(this)" onmouseout="mleave(this)">
      <circle class="node" r="15.0" cx="460.24348281673383" cy="295.35596124444936" fill="#3182BD"><title>taiwan-geographic-names</title></circle>
      <a class="bubble" href="https://lod-cloud.net/dataset/taiwan-geographic-names" target="_blank">
          <text x="460.24348281673383" y="295.35596124444936">Taiwan...</text>
      </a>
    </g>
    <g id="16"
        onmouseover="mo(this)" onmouseout="mleave(this)">
      <circle class="node" r="16.3" cx="346.19605858737106" cy="278.83307444772976" fill="#3182BD"><title>Earthquake_case</title></circle>
      <a class="bubble" href="https://lod-cloud.net/dataset/Earthquake_case" target="_blank">
          <text x="346.19605858737106" y="278.83307444772976">ESO</text>
      </a>
    </g>
    <g id="17"
        onmouseover="mo(this)" onmouseout="mleave(this)">
      <circle class="node" r="15.0" cx="481.95145911689497" cy="348.8626383851937" fill="#3182BD"><title>statusnet-progval-net</title></circle>
      <a class="bubble" href="https://lod-cloud.net/dataset/statusnet-progval-net" target="_blank">
          <text x="481.95145911689497" y="348.8626383851937">status...</text>
      </a>
    </g>
    <g id="18"
        onmouseover="mo(this)" onmouseout="mleave(this)">
      <circle class="node" r="19.2" cx="186.06806485750292" cy="460.4509225691421" fill="#3182BD"><title>linkedcrowdsourceddata</title></circle>
      <a class="bubble" href="https://lod-cloud.net/dataset/linkedcrowdsourceddata" target="_blank">
          <text x="186.06806485750292" y="460.4509225691421">Linked...</text>
      </a>
    </g>
    <g id="19"
        onmouseover="mo(this)" onmouseout="mleave(this)">
      <circle class="node" r="22.3" cx="182.22413280567662" cy="403.67413997478485" fill="#3182BD"><title>openmobilenetwork</title></circle>
      <a class="bubble" href="https://lod-cloud.net/dataset/openmobilenetwork" target="_blank">
          <text x="182.22413280567662" y="403.67413997478485">OpenMo...</text>
      </a>
    </g>
    <g id="20"
        onmouseover="mo(this)" onmouseout="mleave(this)">
      <circle class="node" r="22.4" cx="115.1236243100337" cy="451.09515574272336" fill="#3182BD"><title>oceandrilling-forams</title></circle>
      <a class="bubble" href="https://lod-cloud.net/dataset/oceandrilling-forams" target="_blank">
          <text x="115.1236243100337" y="451.09515574272336">Ocean ...</text>
      </a>
    </g>
    <g id="21"
        onmouseover="mo(this)" onmouseout="mleave(this)">
      <circle class="node" r="22.4" cx="124.10097726264308" cy="394.1986407946172" fill="#3182BD"><title>oceandrilling-codices</title></circle>
      <a class="bubble" href="https://lod-cloud.net/dataset/oceandrilling-codices" target="_blank">
          <text x="124.10097726264308" y="394.1986407946172">Ocean ...</text>
      </a>
    </g>
    <g id="22"
        onmouseover="mo(this)" onmouseout="mleave(this)">
      <circle class="node" r="19.4" cx="402.82573241645133" cy="287.0099380725389" fill="#3182BD"><title>fao-geopolitical-ontology</title></circle>
      <a class="bubble" href="https://lod-cloud.net/dataset/fao-geopolitical-ontology" target="_blank">
          <text x="402.82573241645133" y="287.0099380725389">FAO ge...</text>
      </a>
    </g>
    <g id="23"
        onmouseover="mo(this)" onmouseout="mleave(this)">
      <circle class="node" r="23.6" cx="331.83545042581966" cy="375.34326828937685" fill="#3182BD"><title>Smart_POI_dataset</title></circle>
      <a class="bubble" href="https://lod-cloud.net/dataset/Smart_POI_dataset" target="_blank">
          <text x="331.83545042581966" y="375.34326828937685">Smart ...</text>
      </a>
    </g>
    <g id="24"
        onmouseover="mo(this)" onmouseout="mleave(this)">
      <circle class="node" r="15.0" cx="275.15752815530834" cy="367.3318146998473" fill="#3182BD"><title>linked-uspto-patent-data</title></circle>
      <a class="bubble" href="https://lod-cloud.net/dataset/linked-uspto-patent-data" target="_blank">
          <text x="275.15752815530834" y="367.3318146998473">USPTO ...</text>
      </a>
    </g>
    <g id="25"
        onmouseover="mo(this)" onmouseout="mleave(this)">
      <circle class="node" r="20.7" cx="238.8388438438972" cy="413.60854014937064" fill="#3182BD"><title>fishes-of-texas</title></circle>
      <a class="bubble" href="https://lod-cloud.net/dataset/fishes-of-texas" target="_blank">
          <text x="238.8388438438972" y="413.60854014937064">Fishes...</text>
      </a>
    </g>
    <g id="26"
        onmouseover="mo(this)" onmouseout="mleave(this)">
      <circle class="node" r="15.0" cx="315.0100728357234" cy="474.0383742381599" fill="#3182BD"><title>eea-vocabularies</title></circle>
      <a class="bubble" href="https://lod-cloud.net/dataset/eea-vocabularies" target="_blank">
          <text x="315.0100728357234" y="474.0383742381599">EEA Vo...</text>
      </a>
    </g>
    <g id="27"
        onmouseover="mo(this)" onmouseout="mleave(this)">
      <circle class="node" r="21.7" cx="503.7928682577792" cy="402.4574514879483" fill="#3182BD"><title>riese</title></circle>
      <a class="bubble" href="https://lod-cloud.net/dataset/riese" target="_blank">
          <text x="503.7928682577792" y="402.4574514879483">RDFizi...</text>
      </a>
    </g>
    <g id="28"
        onmouseover="mo(this)" onmouseout="mleave(this)">
      <circle class="node" r="21.4" cx="137.82240480372556" cy="295.84605602363695" fill="#3182BD"><title>ordnance-survey-linked-data</title></circle>
      <a class="bubble" href="https://lod-cloud.net/dataset/ordnance-survey-linked-data" target="_blank">
          <text x="137.82240480372556" y="295.84605602363695">Ordnan...</text>
      </a>
    </g>
    <g id="29"
        onmouseover="mo(this)" onmouseout="mleave(this)">
      <circle class="node" r="18.9" cx="445.81272038520683" cy="393.88234693222324" fill="#3182BD"><title>norwegian-geo-divisions</title></circle>
      <a class="bubble" href="https://lod-cloud.net/dataset/norwegian-geo-divisions" target="_blank">
          <text x="445.81272038520683" y="393.88234693222324">Norweg...</text>
      </a>
    </g>
    <g id="30"
        onmouseover="mo(this)" onmouseout="mleave(this)">
      <circle class="node" r="22.4" cx="78.06249143914764" cy="359.5826864673651" fill="#3182BD"><title>oceandrilling-janusamp</title></circle>
      <a class="bubble" href="https://lod-cloud.net/dataset/oceandrilling-janusamp" target="_blank">
          <text x="78.06249143914764" y="359.5826864673651">Ocean ...</text>
      </a>
    </g>
    <g id="31"
        onmouseover="mo(this)" onmouseout="mleave(this)">
      <circle class="node" r="20.6" cx="295.6110693854512" cy="420.37798968489636" fill="#3182BD"><title>grrt</title></circle>
      <a class="bubble" href="https://lod-cloud.net/dataset/grrt" target="_blank">
          <text x="295.6110693854512" y="420.37798968489636">Accomm...</text>
      </a>
    </g>
    <g id="32"
        onmouseover="mo(this)" onmouseout="mleave(this)">
      <circle class="node" r="22.4" cx="80.76080947198864" cy="287.98598167881875" fill="#3182BD"><title>uk-postcodes</title></circle>
      <a class="bubble" href="https://lod-cloud.net/dataset/uk-postcodes" target="_blank">
          <text x="80.76080947198864" y="287.98598167881875">UK Pos...</text>
      </a>
    </g>
    <g id="33"
        onmouseover="mo(this)" onmouseout="mleave(this)">
      <circle class="node" r="20.2" cx="388.88433944546455" cy="385.1650046902529" fill="#3182BD"><title>grrp</title></circle>
      <a class="bubble" href="https://lod-cloud.net/dataset/grrp" target="_blank">
          <text x="388.88433944546455" y="385.1650046902529">Accomm...</text>
      </a>
    </g>
    <g id="34"
        onmouseover="mo(this)" onmouseout="mleave(this)">
      <circle class="node" r="15.0" cx="424.8665820227145" cy="340.3667161187681" fill="#3182BD"><title>statusnet-hii-co-il</title></circle>
      <a class="bubble" href="https://lod-cloud.net/dataset/statusnet-hii-co-il" target="_blank">
          <text x="424.8665820227145" y="340.3667161187681">status...</text>
      </a>
    </g>
    <g id="35"
        onmouseover="mo(this)" onmouseout="mleave(this)">
      <circle class="node" r="23.5" cx="218.62379908748835" cy="359.3598727555654" fill="#3182BD"><title>near</title></circle>
      <a class="bubble" href="https://lod-cloud.net/dataset/near" target="_blank">
          <text x="218.62379908748835" y="359.3598727555654">Near</text>
      </a>
    </g>
    <g id="36"
        onmouseover="mo(this)" onmouseout="mleave(this)">
      <circle class="node" r="19.6" cx="160.7221859494216" cy="349.5023883442426" fill="#3182BD"><title>geological-survey-of-austria-thesaurus</title></circle>
      <a class="bubble" href="https://lod-cloud.net/dataset/geological-survey-of-austria-thesaurus" target="_blank">
          <text x="160.7221859494216" y="349.5023883442426">Geolog...</text>
      </a>
    </g>
    <g id="37"
        onmouseover="mo(this)" onmouseout="mleave(this)">
      <circle class="node" r="20.9" cx="253.89656356102444" cy="314.7638785081568" fill="#3182BD"><title>lobid-organisations</title></circle>
      <a class="bubble" href="https://lod-cloud.net/dataset/lobid-organisations" target="_blank">
          <text x="253.89656356102444" y="314.7638785081568">lobid-...</text>
      </a>
    </g>
    <g id="38"
        onmouseover="mo(this)" onmouseout="mleave(this)">
      <circle class="node" r="22.7" cx="232.9133146095145" cy="261.21753635048447" fill="#3182BD"><title>yahoo_geoplanet</title></circle>
      <a class="bubble" href="https://lod-cloud.net/dataset/yahoo_geoplanet" target="_blank">
          <text x="232.9133146095145" y="261.21753635048447">Yahoo ...</text>
      </a>
    </g>
    <g id="39"
        onmouseover="mo(this)" onmouseout="mleave(this)">
      <circle class="node" r="20.1" cx="466.92330273222524" cy="447.95958970292463" fill="#3182BD"><title>osm-semantic-network</title></circle>
      <a class="bubble" href="https://lod-cloud.net/dataset/osm-semantic-network" target="_blank">
          <text x="466.92330273222524" y="447.95958970292463">OSM Se...</text>
      </a>
    </g>
    <g id="40"
        onmouseover="mo(this)" onmouseout="mleave(this)">
      <circle class="node" r="22.3" cx="197.67559006213745" cy="305.96818022312465" fill="#3182BD"><title>geolinkeddata</title></circle>
      <a class="bubble" href="https://lod-cloud.net/dataset/geolinkeddata" target="_blank">
          <text x="197.67559006213745" y="305.96818022312465">GeoLin...</text>
      </a>
    </g>
    <g id="41"
        onmouseover="mo(this)" onmouseout="mleave(this)">
      <circle class="node" r="22.7" cx="409.3847294591839" cy="438.77264293125904" fill="#3182BD"><title>geowordnet</title></circle>
      <a class="bubble" href="https://lod-cloud.net/dataset/geowordnet" target="_blank">
          <text x="409.3847294591839" y="438.77264293125904">GeoWor...</text>
      </a>
    </g>
    <g id="42"
        onmouseover="mo(this)" onmouseout="mleave(this)">
      <circle class="node" r="19.9" cx="176.23282659908438" cy="253.00076506648335" fill="#3182BD"><title>los_metar</title></circle>
      <a class="bubble" href="https://lod-cloud.net/dataset/los_metar" target="_blank">
          <text x="176.23282659908438" y="253.00076506648335">Weathe...</text>
      </a>
    </g>
    <g id="43"
        onmouseover="mo(this)" onmouseout="mleave(this)">
      <circle class="node" r="17.6" cx="153.68724337949448" cy="199.71219428916993" fill="#3182BD"><title>the-view-from</title></circle>
      <a class="bubble" href="https://lod-cloud.net/dataset/the-view-from" target="_blank">
          <text x="153.68724337949448" y="199.71219428916993">The Vi...</text>
      </a>
    </g>
    <g id="44"
        onmouseover="mo(this)" onmouseout="mleave(this)">
      <circle class="node" r="20.2" cx="429.98227556431993" cy="493.2004392108995" fill="#3182BD"><title>Uganda-Disasters-rdf-data_</title></circle>
      <a class="bubble" href="https://lod-cloud.net/dataset/Uganda-Disasters-rdf-data_" target="_blank">
          <text x="429.98227556431993" y="493.2004392108995">Uganda...</text>
      </a>
    </g>
    <g id="45"
        onmouseover="mo(this)" onmouseout="mleave(this)">
      <circle class="node" r="21.4" cx="190.00859274687758" cy="153.75311190076977" fill="#3182BD"><title>pleiades</title></circle>
      <a class="bubble" href="https://lod-cloud.net/dataset/pleiades" target="_blank">
          <text x="190.00859274687758" y="153.75311190076977">Pleiades</text>
      </a>
    </g>
    <g id="46"
        onmouseover="mo(this)" onmouseout="mleave(this)">
      <circle class="node" r="15.0" cx="211.7089193815807" cy="208.17039243777455" fill="#3182BD"><title>ispra-lod-place</title></circle>
      <a class="bubble" href="https://lod-cloud.net/dataset/ispra-lod-place" target="_blank">
          <text x="211.7089193815807" y="208.17039243777455">ISPRA ...</text>
      </a>
    </g>
    <g id="47"
        onmouseover="mo(this)" onmouseout="mleave(this)">
      <circle class="node" r="15.0" cx="247.1243029192091" cy="163.18339595707442" fill="#3182BD"><title>linked-logainm</title></circle>
      <a class="bubble" href="https://lod-cloud.net/dataset/linked-logainm" target="_blank">
          <text x="247.1243029192091" y="163.18339595707442">Linked...</text>
      </a>
    </g>
    <g id="48"
        onmouseover="mo(this)" onmouseout="mleave(this)">
      <circle class="node" r="15.0" cx="352.38048615334293" cy="429.2789321530712" fill="#3182BD"><title>knoesis-linked-sensor-data</title></circle>
      <a class="bubble" href="https://lod-cloud.net/dataset/knoesis-linked-sensor-data" target="_blank">
          <text x="352.38048615334293" y="429.2789321530712">Linked...</text>
      </a>
    </g>
    <g id="49"
        onmouseover="mo(this)" onmouseout="mleave(this)">
      <circle class="node" r="15.0" cx="372.34293330754014" cy="483.7981375211383" fill="#3182BD"><title>greek-administrative-geography</title></circle>
      <a class="bubble" href="https://lod-cloud.net/dataset/greek-administrative-geography" target="_blank">
          <text x="372.34293330754014" y="483.7981375211383">greek-...</text>
      </a>
    </g>
    <g transform="translate(20,617) scale(0.9453781512605043)">
      <text style="font-family: Verdana, Arial;">The Geography Linked Open Data Cloud from lod-cloud.net</text>
    </g>
      <g transform="translate(480, 600)">
<svg
   xmlns:dc="http://purl.org/dc/elements/1.1/"
   xmlns:cc="http://web.resource.org/cc/"
   xmlns:rdf="http://www.w3.org/1999/02/22-rdf-syntax-ns#"
   xmlns:svg="http://www.w3.org/2000/svg"
   xmlns="http://www.w3.org/2000/svg"
   xmlns:sodipodi="http://sodipodi.sourceforge.net/DTD/sodipodi-0.dtd"
   xmlns:inkscape="http://www.inkscape.org/namespaces/inkscape"
   width="120"
   height="42"
   id="svg2759"
   sodipodi:version="0.32"
   inkscape:version="0.45+devel"
   version="1.0"
   sodipodi:docname="by.svg"
   inkscape:output_extension="org.inkscape.output.svg.inkscape">
  <defs
     id="defs2761" />
  <sodipodi:namedview
     id="base"
     pagecolor="#ffffff"
     bordercolor="#8b8b8b"
     borderopacity="1"
     gridtolerance="10000"
     guidetolerance="10"
     objecttolerance="10"
     inkscape:pageopacity="0.0"
     inkscape:pageshadow="2"
     inkscape:zoom="1"
     inkscape:cx="179"
     inkscape:cy="89.569904"
     inkscape:document-units="px"
     inkscape:current-layer="layer1"
     width="120px"
     height="42px"
     inkscape:showpageshadow="false"
     inkscape:window-width="1198"
     inkscape:window-height="624"
     inkscape:window-x="396"
     inkscape:window-y="242" />
  <metadata
     id="metadata2764">
    <rdf:RDF>
      <cc:Work
         rdf:about="">
        <dc:format>image/svg+xml</dc:format>
        <dc:type
           rdf:resource="http://purl.org/dc/dcmitype/StillImage" />
      </cc:Work>
    </rdf:RDF>
  </metadata>
  <g
     inkscape:label="Layer 1"
     inkscape:groupmode="layer"
     id="layer1">
    <g
       transform="matrix(0.9937728,0,0,0.9936696,-177.69267,6.25128e-7)"
       id="g260"
       inkscape:export-filename="/mnt/hgfs/Bov/Documents/Work/2007/cc/identity/srr buttons/big/by.png"
       inkscape:export-xdpi="300.23013"
       inkscape:export-ydpi="300.23013">
	<path
   id="path3817_1_"
   nodetypes="ccccccc"
   d="M 181.96579,0.51074 L 296.02975,0.71338 C 297.6235,0.71338 299.04733,0.47705 299.04733,3.89404 L 298.90768,41.46093 L 179.08737,41.46093 L 179.08737,3.75439 C 179.08737,2.06934 179.25046,0.51074 181.96579,0.51074 z"
   style="fill:#aab2ab" />

	<path
   d="M 297.29636,0 L 181.06736,0 C 179.82078,0 178.80613,1.01416 178.80613,2.26074 L 178.80613,41.75732 C 178.80613,42.03906 179.03513,42.26757 179.31687,42.26757 L 299.04734,42.26757 C 299.32908,42.26757 299.55808,42.03905 299.55808,41.75732 L 299.55808,2.26074 C 299.55807,1.01416 298.54343,0 297.29636,0 z M 181.06735,1.02148 L 297.29635,1.02148 C 297.98043,1.02148 298.53658,1.57714 298.53658,2.26074 C 298.53658,2.26074 298.53658,18.20898 298.53658,29.71045 L 215.19234,29.71045 C 212.14742,35.21631 206.28121,38.95459 199.54879,38.95459 C 192.81344,38.95459 186.94869,35.21973 183.90524,29.71045 L 179.8276,29.71045 C 179.8276,18.20899 179.8276,2.26074 179.8276,2.26074 C 179.82761,1.57715 180.38376,1.02148 181.06735,1.02148 z"
   id="path263" />

	<g
   enable-background="new    "
   id="g265">
		<path
   d="M 253.07761,32.95605 C 253.39499,32.95605 253.68503,32.98437 253.94773,33.04003 C 254.20945,33.09569 254.43308,33.18749 254.62058,33.31542 C 254.8071,33.44237 254.95261,33.6123 255.05515,33.82323 C 255.15769,34.03514 255.20945,34.29589 255.20945,34.60741 C 255.20945,34.94335 255.13328,35.22264 254.97996,35.44628 C 254.82762,35.67089 254.60105,35.85351 254.30223,35.99706 C 254.71434,36.11522 255.02196,36.32226 255.22508,36.61815 C 255.4282,36.91404 255.52977,37.27049 255.52977,37.68749 C 255.52977,38.02343 255.46434,38.31444 255.33348,38.56054 C 255.20262,38.80566 255.02586,39.00683 254.80516,39.1621 C 254.58348,39.31835 254.33055,39.43358 254.04735,39.5078 C 253.76317,39.583 253.47215,39.6201 253.17235,39.6201 L 249.936,39.6201 L 249.936,32.95604 L 253.07761,32.95604 L 253.07761,32.95605 z M 252.89011,35.65137 C 253.15183,35.65137 253.36667,35.58887 253.53562,35.46485 C 253.70359,35.34083 253.78757,35.13965 253.78757,34.86036 C 253.78757,34.70509 253.75925,34.57716 253.70359,34.47852 C 253.64695,34.37891 253.57273,34.30176 253.47898,34.24512 C 253.38523,34.18946 253.27781,34.15039 253.15671,34.12891 C 253.03561,34.10743 252.90866,34.09668 252.77878,34.09668 L 251.40476,34.09668 L 251.40476,35.65137 L 252.89011,35.65137 z M 252.97604,38.47949 C 253.11959,38.47949 253.25631,38.46582 253.38717,38.4375 C 253.51803,38.40918 253.63326,38.3623 253.73385,38.29785 C 253.83346,38.23242 253.91256,38.14355 253.97213,38.03125 C 254.0317,37.91992 254.061,37.77637 254.061,37.60254 C 254.061,37.26074 253.96432,37.0166 253.77096,36.87012 C 253.5776,36.72461 253.32174,36.65137 253.00436,36.65137 L 251.40475,36.65137 L 251.40475,38.47949 L 252.97604,38.47949 z"
   id="path267"
   style="fill:#ffffff" />

		<path
   d="M 255.78854,32.95605 L 257.43209,32.95605 L 258.99264,35.58789 L 260.54342,32.95605 L 262.17721,32.95605 L 259.70358,37.0625 L 259.70358,39.62012 L 258.23483,39.62012 L 258.23483,37.02539 L 255.78854,32.95605 z"
   id="path269"
   style="fill:#ffffff" />

	</g>

	<g
   id="g5908_1_"
   transform="matrix(0.872921,0,0,0.872921,50.12536,143.2144)">
		
			<path
   id="path5906_1_"
   cx="296.35416"
   ry="22.939548"
   cy="264.3577"
   type="arc"
   rx="22.939548"
   d="M 186.90065,-141.46002 C 186.90623,-132.77923 179.87279,-125.73852 171.19257,-125.73291 C 162.51235,-125.72736 155.47051,-132.76025 155.46547,-141.44098 C 155.46547,-141.44714 155.46547,-141.45331 155.46547,-141.46002 C 155.46043,-150.14081 162.49333,-157.18152 171.17355,-157.18658 C 179.8549,-157.19213 186.89561,-150.15924 186.90065,-141.47845 C 186.90065,-141.4729 186.90065,-141.46619 186.90065,-141.46002 z"
   style="fill:#ffffff" />

		<g
   id="g5706_1_"
   transform="translate(-289.6157,99.0653)">
			<path
   id="path5708_1_"
   d="M 473.57574,-253.32751 C 477.06115,-249.8421 478.80413,-245.5736 478.80413,-240.52532 C 478.80413,-235.47594 477.09136,-231.25329 473.66582,-227.85741 C 470.03051,-224.28081 465.734,-222.49309 460.77635,-222.49309 C 455.87858,-222.49309 451.65648,-224.26628 448.11122,-227.81261 C 444.56541,-231.35845 442.79277,-235.59563 442.79277,-240.52532 C 442.79277,-245.45391 444.56541,-249.7213 448.11122,-253.32751 C 451.56642,-256.81402 455.7885,-258.557 460.77635,-258.557 C 465.82465,-258.55701 470.09039,-256.81403 473.57574,-253.32751 z M 450.45776,-250.98267 C 447.51104,-248.00629 446.03823,-244.51978 446.03823,-240.52033 C 446.03823,-236.52198 447.49651,-233.06507 450.41247,-230.14966 C 453.32897,-227.23316 456.80096,-225.77545 460.82952,-225.77545 C 464.85808,-225.77545 468.35967,-227.24768 471.33605,-230.19385 C 474.16198,-232.9303 475.57549,-236.37091 475.57549,-240.52033 C 475.57549,-244.63837 474.13903,-248.13379 471.26781,-251.00501 C 468.39714,-253.87568 464.9179,-255.31159 460.82952,-255.31159 C 456.74112,-255.31158 453.28314,-253.86841 450.45776,-250.98267 z M 458.21225,-242.27948 C 457.76196,-243.26117 457.08795,-243.75232 456.18903,-243.75232 C 454.59986,-243.75232 453.80558,-242.68225 453.80558,-240.54321 C 453.80558,-238.40368 454.59986,-237.33471 456.18903,-237.33471 C 457.23841,-237.33471 457.98795,-237.85546 458.43769,-238.89922 L 460.64045,-237.72625 C 459.59052,-235.86077 458.01536,-234.92779 455.91496,-234.92779 C 454.29506,-234.92779 452.99733,-235.42449 452.0229,-236.4168 C 451.0468,-237.41021 450.56016,-238.77953 450.56016,-240.52532 C 450.56016,-242.24035 451.06245,-243.60186 452.06764,-244.61034 C 453.07283,-245.61888 454.32466,-246.12291 455.82545,-246.12291 C 458.04557,-246.12291 459.63526,-245.24803 460.59626,-243.50005 L 458.21225,-242.27948 z M 468.57562,-242.27948 C 468.12475,-243.26117 467.46417,-243.75232 466.5932,-243.75232 C 464.97217,-243.75232 464.16107,-242.68225 464.16107,-240.54321 C 464.16107,-238.40368 464.97217,-237.33471 466.5932,-237.33471 C 467.64429,-237.33471 468.38037,-237.85546 468.80048,-238.89922 L 471.05249,-237.72625 C 470.00421,-235.86077 468.43127,-234.92779 466.33478,-234.92779 C 464.7171,-234.92779 463.42218,-235.42449 462.44831,-236.4168 C 461.47614,-237.41021 460.98896,-238.77953 460.98896,-240.52532 C 460.98896,-242.24035 461.48341,-243.60186 462.47181,-244.61034 C 463.45966,-245.61888 464.71711,-246.12291 466.24531,-246.12291 C 468.4615,-246.12291 470.04896,-245.24803 471.0066,-243.50005 L 468.57562,-242.27948 z" />

		</g>

	</g>

	<g
   id="g275">
		<circle
   cx="255.55124"
   cy="15.31348"
   r="10.80664"
   id="circle277"
   sodipodi:cx="255.55124"
   sodipodi:cy="15.31348"
   sodipodi:rx="10.80664"
   sodipodi:ry="10.80664"
   style="fill:#ffffff" />

		<g
   id="g279">
			<path
   d="M 258.67819,12.18701 C 258.67819,11.77051 258.3403,11.4331 257.92526,11.4331 L 253.15182,11.4331 C 252.73678,11.4331 252.39889,11.7705 252.39889,12.18701 L 252.39889,16.95996 L 253.72994,16.95996 L 253.72994,22.61182 L 257.34713,22.61182 L 257.34713,16.95996 L 258.67818,16.95996 L 258.67818,12.18701 L 258.67819,12.18701 z"
   id="path281" />

			<circle
   cx="255.53854"
   cy="9.1723604"
   r="1.63281"
   id="circle283"
   sodipodi:cx="255.53854"
   sodipodi:cy="9.1723604"
   sodipodi:rx="1.63281"
   sodipodi:ry="1.63281" />

		</g>

		<path
   clip-rule="evenodd"
   d="M 255.5239,3.40723 C 252.29148,3.40723 249.55515,4.53516 247.31589,6.79102 C 245.01804,9.12452 243.8696,11.88672 243.8696,15.07569 C 243.8696,18.26466 245.01804,21.00733 247.31589,23.30225 C 249.61374,25.59668 252.35007,26.74414 255.5239,26.74414 C 258.73679,26.74414 261.52195,25.58789 263.87742,23.27295 C 266.09715,21.07568 267.2075,18.34326 267.2075,15.07568 C 267.2075,11.8081 266.07762,9.04687 263.8198,6.79101 C 261.56003,4.53516 258.79538,3.40723 255.5239,3.40723 z M 255.55319,5.50684 C 258.20163,5.50684 260.45065,6.44092 262.30026,8.30811 C 264.1694,10.15528 265.10397,12.41114 265.10397,15.07569 C 265.10397,17.75928 264.18893,19.98633 262.35885,21.75587 C 260.43014,23.66212 258.16256,24.61476 255.55319,24.61476 C 252.94284,24.61476 250.69381,23.67189 248.80612,21.78517 C 246.91647,19.89845 245.97311,17.66212 245.97311,15.0757 C 245.97311,12.48879 246.92721,10.23341 248.83541,8.30812 C 250.6655,6.44092 252.90475,5.50684 255.55319,5.50684 z"
   id="path285"
   style="fill-rule:evenodd" />

	</g>

</g>
  </g>
</svg>

      </g>
  </g>
</svg>
