<svg
    xmlns="http://www.w3.org/2000/svg" width="600" height="642">
<script type="text/javascript"><![CDATA[
function mo(elem) {    
    var  line =document.getElementsByTagName("line")
 
  elem.setAttribute("class","circle-active");
    for(i = 0; i < line.length; i++) {                                          
                                                                                
        if(line[i].getAttributeNode("targetId").value === elem.id) {            
            line[i].setAttribute("class","link-activeIncoming");
            document.getElementById(line[i].getAttributeNode("sourceId").value).setAttribute("class","circle-active");

        } 
        if(line[i].getAttributeNode("sourceId").value === elem.id) {            
            line[i].setAttribute("class","link-activeOutgoung");
            document.getElementById(line[i].getAttributeNode("targetId").value).setAttribute("class","circle-active");

        }
        if((line[i].getAttributeNode("targetId").value === elem.id)&&(line[i].getAttributeNode("sourceId").value === elem.id)) {            
            line[i].setAttribute("class","link-activeBoth");
             document.getElementById(line[i].getAttributeNode("targetId").value).setAttribute("class","circle-active");
             document.getElementById(line[i].getAttributeNode("sourceId").value).setAttribute("class","circle-active");
        }                                                                              
    }                                                                           
}

function mleave(elem) {                   
    elem.setAttribute("class","circle-pasive");                                      
    var line = document.getElementsByTagName("line");                           
    for(i = 0; i < line.length; i++) {                                          
                                                                                
        if(line[i].getAttributeNode("targetId").value === elem.id) {     
        document.getElementById(line[i].getAttributeNode("sourceId").value).setAttribute("class","circle-pasive");       
            line[i].setAttribute("class","link");       
        }
        if(line[i].getAttributeNode("sourceId").value === elem.id) {            
            document.getElementById(line[i].getAttributeNode("targetId").value).setAttribute("class","circle-pasive");
            line[i].setAttribute("class","link");       
        }                                                                          
    }                                                                           
}
]]></script>
  <style>
    circle { 
        stroke: #333;
        stroke-width: 1.5px;
        fill-opacity: 0.8; 
    } 
    .bubble text {
        text-anchor: middle;
        font-size: .5em;
    }
    .circle-active circle { 
        stroke: #e80000;  
        stroke-width: 3px; 
    } 
    .link { 
        stroke: #e0270b;  
        stroke: #555;  
        stroke-opacity: 0.7;  
        stroke-width: 1px;  
        stroke-dasharray:none;
    } 
    .link-activeIncoming {  
        stroke-opacity: 1; 
        stroke-width: 10;  
        stroke: #be1b38; 
    } 
    .link-activeOutgoung {  
        stroke-opacity: 1;  
        stroke-width: 10; 
        stroke: #1AC21D;  
    } 
    .link-activeBoth {  
        stroke-opacity: 1;  
        stroke: #1AC21D;  
        stroke-width: 10;  
        stroke-dasharray:5,10,5;}
  </style>
  <g transform="scale(0.5)">
    <g id="legend">
      <text transform="translate(30,30)" style="font-family:Verdana, Arial, DejaVu Sans;font-size:200%;text-decoration:underline;">Legend</text>
      <rect width="310" height="35" style="fill:#3182BD" transform="translate(30,45)"/>
      <text transform="translate(35,72)" style="font-family:Verdana, Arial;font-size:200%">Geography</text>
    </g>
  </g>
  <g class="links">
    <line class="link" targetId="0" sourceId="1" x1="321.8875559905926" y1="77.89325210894427" x2="336.79462900861773" y2="230.22747506428385"/>
    <line class="link" targetId="2" sourceId="3" x1="141.1388488090367" y1="160.7143468864993" x2="268.21419052509896" y2="324.1893397481233"/>
    <line class="link" targetId="4" sourceId="3" x1="311.97392849263133" y1="178.40605922231413" x2="268.21419052509896" y2="324.1893397481233"/>
    <line class="link" targetId="5" sourceId="6" x1="254.91407054694326" y1="173.2776394254853" x2="198.61351838426765" y2="168.8169382798103"/>
    <line class="link" targetId="5" sourceId="3" x1="254.91407054694326" y1="173.2776394254853" x2="268.21419052509896" y2="324.1893397481233"/>
    <line class="link" targetId="3" sourceId="1" x1="268.21419052509896" y1="324.1893397481233" x2="336.79462900861773" y2="230.22747506428385"/>
    <line class="link" targetId="3" sourceId="7" x1="268.21419052509896" y1="324.1893397481233" x2="292.70406202627026" y2="375.22230336968016"/>
    <line class="link" targetId="9" sourceId="3" x1="405.5199165682957" y1="388.5779268877104" x2="268.21419052509896" y2="324.1893397481233"/>
    <line class="link" targetId="9" sourceId="10" x1="405.5199165682957" y1="388.5779268877104" x2="374.6132683665178" y2="436.40422385065176"/>
    <line class="link" targetId="9" sourceId="7" x1="405.5199165682957" y1="388.5779268877104" x2="292.70406202627026" y2="375.22230336968016"/>
    <line class="link" targetId="11" sourceId="3" x1="417.69056832566366" y1="287.34355444101595" x2="268.21419052509896" y2="324.1893397481233"/>
    <line class="link" targetId="11" sourceId="12" x1="417.69056832566366" y1="287.34355444101595" x2="475.39896492045835" y2="291.8872433991157"/>
    <line class="link" targetId="13" sourceId="7" x1="463.9621317053351" y1="392.98404644224286" x2="292.70406202627026" y2="375.22230336968016"/>
    <line class="link" targetId="14" sourceId="3" x1="325.93864707725436" y1="328.8603626238527" x2="268.21419052509896" y2="324.1893397481233"/>
    <line class="link" targetId="7" sourceId="3" x1="292.70406202627026" y1="375.22230336968016" x2="268.21419052509896" y2="324.1893397481233"/>
    <line class="link" targetId="15" sourceId="1" x1="230.3458803853061" y1="119.79291471185059" x2="336.79462900861773" y2="230.22747506428385"/>
    <line class="link" targetId="16" sourceId="1" x1="345.04024586030926" y1="130.9266618125609" x2="336.79462900861773" y2="230.22747506428385"/>
    <line class="link" targetId="17" sourceId="1" x1="369.20439473189083" y1="183.01194807010324" x2="336.79462900861773" y2="230.22747506428385"/>
    <line class="link" targetId="18" sourceId="3" x1="285.5659710699008" y1="476.26012730827324" x2="268.21419052509896" y2="324.1893397481233"/>
    <line class="link" targetId="19" sourceId="3" x1="349.3386320239278" y1="380.55953060866483" x2="268.21419052509896" y2="324.1893397481233"/>
    <line class="link" targetId="19" sourceId="1" x1="349.3386320239278" y1="380.55953060866483" x2="336.79462900861773" y2="230.22747506428385"/>
    <line class="link" targetId="20" sourceId="3" x1="260.090681459911" y1="423.02521056029207" x2="268.21419052509896" y2="324.1893397481233"/>
    <line class="link" targetId="21" sourceId="3" x1="317.2825129567956" y1="428.01781433067" x2="268.21419052509896" y2="324.1893397481233"/>
    <line class="link" targetId="22" sourceId="3" x1="227.485745182329" y1="471.06716686261785" x2="268.21419052509896" y2="324.1893397481233"/>
    <line class="link" targetId="23" sourceId="24" x1="106.14426713538901" y1="207.81967568202901" x2="163.7767112261359" y2="214.51463296859396"/>
    <line class="link" targetId="25" sourceId="3" x1="236.16705164907418" y1="370.8791457679063" x2="268.21419052509896" y2="324.1893397481233"/>
    <line class="link" targetId="25" sourceId="7" x1="236.16705164907418" y1="370.8791457679063" x2="292.70406202627026" y2="375.22230336968016"/>
    <line class="link" targetId="26" sourceId="3" x1="169.21326549218622" y1="465.0399903893491" x2="268.21419052509896" y2="324.1893397481233"/>
    <line class="link" targetId="27" sourceId="1" x1="402.2393125573606" y1="134.5656935340557" x2="336.79462900861773" y2="230.22747506428385"/>
    <line class="link" targetId="28" sourceId="1" x1="459.9714536677609" y1="139.49317170651656" x2="336.79462900861773" y2="230.22747506428385"/>
    <line class="link" targetId="29" sourceId="1" x1="426.42740217310643" y1="187.3821894106971" x2="336.79462900861773" y2="230.22747506428385"/>
    <line class="link" targetId="30" sourceId="1" x1="484.6995844946225" y1="192.70333871629657" x2="336.79462900861773" y2="230.22747506428385"/>
    <line class="link" targetId="31" sourceId="3" x1="211.83454134378343" y1="318.3159109566962" x2="268.21419052509896" y2="324.1893397481233"/>
    <line class="link" targetId="31" sourceId="24" x1="211.83454134378343" y1="318.3159109566962" x2="163.7767112261359" y2="214.51463296859396"/>
    <line class="link" targetId="31" sourceId="32" x1="211.83454134378343" y1="318.3159109566962" x2="188.7041235480193" y2="266.57012302177725"/>
    <line class="link" targetId="33" sourceId="3" x1="203.2907454645354" y1="418.01196676840306" x2="268.21419052509896" y2="324.1893397481233"/>
    <line class="link" targetId="33" sourceId="20" x1="203.2907454645354" y1="418.01196676840306" x2="260.090681459911" y2="423.02521056029207"/>
    <line class="link" targetId="34" sourceId="1" x1="393.5478054473026" y1="235.04145147353444" x2="336.79462900861773" y2="230.22747506428385"/>
    <line class="link" targetId="35" sourceId="3" x1="179.48648455757652" y1="365.5101684036862" x2="268.21419052509896" y2="324.1893397481233"/>
    <line class="link" targetId="35" sourceId="7" x1="179.48648455757652" y1="365.5101684036862" x2="292.70406202627026" y2="375.22230336968016"/>
    <line class="link" targetId="36" sourceId="4" x1="287.84528241520485" y1="125.61822325588585" x2="311.97392849263133" y2="178.40605922231413"/>
    <line class="link" targetId="37" sourceId="3" x1="144.8593440319637" y1="411.80069198234503" x2="268.21419052509896" y2="324.1893397481233"/>
    <line class="link" targetId="37" sourceId="38" x1="144.8593440319637" y1="411.80069198234503" x2="121.21857044832419" y2="360.21309498907095"/>
    <line class="link" targetId="38" sourceId="3" x1="121.21857044832419" y1="360.21309498907095" x2="268.21419052509896" y2="324.1893397481233"/>
    <line class="link" targetId="38" sourceId="37" x1="121.21857044832419" y1="360.21309498907095" x2="144.8593440319637" y2="411.80069198234503"/>
    <line class="link" targetId="39" sourceId="3" x1="155.0510172686945" y1="313.20248446346284" x2="268.21419052509896" y2="324.1893397481233"/>
    <line class="link" targetId="39" sourceId="1" x1="155.0510172686945" y1="313.20248446346284" x2="336.79462900861773" y2="230.22747506428385"/>
    <line class="link" targetId="40" sourceId="1" x1="450.8645864091965" y1="239.70827313357125" x2="336.79462900861773" y2="230.22747506428385"/>
    <line class="link" targetId="41" sourceId="1" x1="440.8741034235312" y1="339.8063142088652" x2="336.79462900861773" y2="230.22747506428385"/>
    <line class="link" targetId="42" sourceId="4" x1="360.06123791299456" y1="282.0025607626596" x2="311.97392849263133" y2="178.40605922231413"/>
    <line class="link" targetId="43" sourceId="1" x1="499.05642320521406" y1="344.78537404510956" x2="336.79462900861773" y2="230.22747506428385"/>
    <line class="link" targetId="10" sourceId="9" x1="374.6132683665178" y1="436.40422385065176" x2="405.5199165682957" y2="388.5779268877104"/>
    <line class="link" targetId="44" sourceId="1" x1="383.5506761974957" y1="334.1258665332659" x2="336.79462900861773" y2="230.22747506428385"/>
    <line class="link" targetId="45" sourceId="1" x1="432.28000578609317" y1="441.36662414004945" x2="336.79462900861773" y2="230.22747506428385"/>
    <line class="link" targetId="32" sourceId="3" x1="188.7041235480193" y1="266.57012302177725" x2="268.21419052509896" y2="324.1893397481233"/>
    <line class="link" targetId="32" sourceId="1" x1="188.7041235480193" y1="266.57012302177725" x2="336.79462900861773" y2="230.22747506428385"/>
    <line class="link" targetId="46" sourceId="3" x1="245.597672148826" y1="272.32614378666636" x2="268.21419052509896" y2="324.1893397481233"/>
    <line class="link" targetId="46" sourceId="8" x1="245.597672148826" y1="272.32614378666636" x2="129.879695446496" y2="261.48120907745096"/>
    <line class="link" targetId="47" sourceId="3" x1="222.62451336146214" y1="220.55976826268056" x2="268.21419052509896" y2="324.1893397481233"/>
    <line class="link" targetId="47" sourceId="1" x1="222.62451336146214" y1="220.55976826268056" x2="336.79462900861773" y2="230.22747506428385"/>
    <line class="link" targetId="6" sourceId="5" x1="198.61351838426765" y1="168.8169382798103" x2="254.91407054694326" y2="173.2776394254853"/>
    <line class="link" targetId="6" sourceId="3" x1="198.61351838426765" y1="168.8169382798103" x2="268.21419052509896" y2="324.1893397481233"/>
    <line class="link" targetId="6" sourceId="1" x1="198.61351838426765" y1="168.8169382798103" x2="336.79462900861773" y2="230.22747506428385"/>
    <line class="link" targetId="6" sourceId="24" x1="198.61351838426765" y1="168.8169382798103" x2="163.7767112261359" y2="214.51463296859396"/>
    <line class="link" targetId="48" sourceId="3" x1="279.6534983908927" y1="225.67097941463692" x2="268.21419052509896" y2="324.1893397481233"/>
    <line class="link" targetId="48" sourceId="1" x1="279.6534983908927" y1="225.67097941463692" x2="336.79462900861773" y2="230.22747506428385"/>
    <line class="link" targetId="49" sourceId="1" x1="302.627560066578" y1="277.52595668864967" x2="336.79462900861773" y2="230.22747506428385"/>
    <line class="link" targetId="49" sourceId="3" x1="302.627560066578" y1="277.52595668864967" x2="268.21419052509896" y2="324.1893397481233"/>
    <line class="link" targetId="49" sourceId="7" x1="302.627560066578" y1="277.52595668864967" x2="292.70406202627026" y2="375.22230336968016"/>
  </g>
  <g class="nodes">
    <g id="0"
        onmouseover="mo(this)" onmouseout="mleave(this)">
      <circle class="node" r="15.0" cx="321.8875559905926" cy="77.89325210894427" fill="#3182BD"><title>knoesis-linked-sensor-data</title></circle>
      <a class="bubble" href="https://lod-cloud.net/dataset/knoesis-linked-sensor-data" target="_blank">
          <text x="321.8875559905926" y="77.89325210894427">Linked...</text>
      </a>
    </g>
    <g id="1"
        onmouseover="mo(this)" onmouseout="mleave(this)">
      <circle class="node" r="23.0" cx="336.79462900861773" cy="230.22747506428385" fill="#3182BD"><title>geonames-semantic-web</title></circle>
      <a class="bubble" href="https://lod-cloud.net/dataset/geonames-semantic-web" target="_blank">
          <text x="336.79462900861773" y="230.22747506428385">GeoNam...</text>
      </a>
    </g>
    <g id="2"
        onmouseover="mo(this)" onmouseout="mleave(this)">
      <circle class="node" r="19.6" cx="141.1388488090367" cy="160.7143468864993" fill="#3182BD"><title>geological-survey-of-austria-thesaurus</title></circle>
      <a class="bubble" href="https://lod-cloud.net/dataset/geological-survey-of-austria-thesaurus" target="_blank">
          <text x="141.1388488090367" y="160.7143468864993">Geolog...</text>
      </a>
    </g>
    <g id="3"
        onmouseover="mo(this)" onmouseout="mleave(this)">
      <circle class="node" r="25.0" cx="268.21419052509896" cy="324.1893397481233" fill="#3182BD"><title>dbpedia</title></circle>
      <a class="bubble" href="https://lod-cloud.net/dataset/dbpedia" target="_blank">
          <text x="268.21419052509896" y="324.1893397481233">DBpedia</text>
      </a>
    </g>
    <g id="4"
        onmouseover="mo(this)" onmouseout="mleave(this)">
      <circle class="node" r="22.4" cx="311.97392849263133" cy="178.40605922231413" fill="#3182BD"><title>oceandrilling-codices</title></circle>
      <a class="bubble" href="https://lod-cloud.net/dataset/oceandrilling-codices" target="_blank">
          <text x="311.97392849263133" y="178.40605922231413">Ocean ...</text>
      </a>
    </g>
    <g id="5"
        onmouseover="mo(this)" onmouseout="mleave(this)">
      <circle class="node" r="20.2" cx="254.91407054694326" cy="173.2776394254853" fill="#3182BD"><title>data-incubator-climb</title></circle>
      <a class="bubble" href="https://lod-cloud.net/dataset/data-incubator-climb" target="_blank">
          <text x="254.91407054694326" y="173.2776394254853">Climb ...</text>
      </a>
    </g>
    <g id="6"
        onmouseover="mo(this)" onmouseout="mleave(this)">
      <circle class="node" r="19.2" cx="198.61351838426765" cy="168.8169382798103" fill="#3182BD"><title>data-incubator-smcjournals</title></circle>
      <a class="bubble" href="https://lod-cloud.net/dataset/data-incubator-smcjournals" target="_blank">
          <text x="198.61351838426765" y="168.8169382798103">Scotti...</text>
      </a>
    </g>
    <g id="7"
        onmouseover="mo(this)" onmouseout="mleave(this)">
      <circle class="node" r="24.5" cx="292.70406202627026" cy="375.22230336968016" fill="#3182BD"><title>linkedgeodata</title></circle>
      <a class="bubble" href="https://lod-cloud.net/dataset/linkedgeodata" target="_blank">
          <text x="292.70406202627026" y="375.22230336968016">Linked...</text>
      </a>
    </g>
    <g id="8"
        onmouseover="mo(this)" onmouseout="mleave(this)">
      <circle class="node" r="18.5" cx="129.879695446496" cy="261.48120907745096" fill="#3182BD"><title>Earthquake</title></circle>
      <a class="bubble" href="https://lod-cloud.net/dataset/Earthquake" target="_blank">
          <text x="129.879695446496" y="261.48120907745096">Emerge...</text>
      </a>
    </g>
    <g id="9"
        onmouseover="mo(this)" onmouseout="mleave(this)">
      <circle class="node" r="22.3" cx="405.5199165682957" cy="388.5779268877104" fill="#3182BD"><title>openmobilenetwork</title></circle>
      <a class="bubble" href="https://lod-cloud.net/dataset/openmobilenetwork" target="_blank">
          <text x="405.5199165682957" y="388.5779268877104">OpenMo...</text>
      </a>
    </g>
    <g id="10"
        onmouseover="mo(this)" onmouseout="mleave(this)">
      <circle class="node" r="19.2" cx="374.6132683665178" cy="436.40422385065176" fill="#3182BD"><title>linkedcrowdsourceddata</title></circle>
      <a class="bubble" href="https://lod-cloud.net/dataset/linkedcrowdsourceddata" target="_blank">
          <text x="374.6132683665178" y="436.40422385065176">Linked...</text>
      </a>
    </g>
    <g id="11"
        onmouseover="mo(this)" onmouseout="mleave(this)">
      <circle class="node" r="19.2" cx="417.69056832566366" cy="287.34355444101595" fill="#3182BD"><title>GTS</title></circle>
      <a class="bubble" href="https://lod-cloud.net/dataset/GTS" target="_blank">
          <text x="417.69056832566366" y="287.34355444101595">Geolog...</text>
      </a>
    </g>
    <g id="12"
        onmouseover="mo(this)" onmouseout="mleave(this)">
      <circle class="node" r="17.9" cx="475.39896492045835" cy="291.8872433991157" fill="#3182BD"><title>GTS-ont</title></circle>
      <a class="bubble" href="https://lod-cloud.net/dataset/GTS-ont" target="_blank">
          <text x="475.39896492045835" y="291.8872433991157">Geolog...</text>
      </a>
    </g>
    <g id="13"
        onmouseover="mo(this)" onmouseout="mleave(this)">
      <circle class="node" r="20.1" cx="463.9621317053351" cy="392.98404644224286" fill="#3182BD"><title>osm-semantic-network</title></circle>
      <a class="bubble" href="https://lod-cloud.net/dataset/osm-semantic-network" target="_blank">
          <text x="463.9621317053351" y="392.98404644224286">OSM Se...</text>
      </a>
    </g>
    <g id="14"
        onmouseover="mo(this)" onmouseout="mleave(this)">
      <circle class="node" r="21.4" cx="325.93864707725436" cy="328.8603626238527" fill="#3182BD"><title>pleiades</title></circle>
      <a class="bubble" href="https://lod-cloud.net/dataset/pleiades" target="_blank">
          <text x="325.93864707725436" y="328.8603626238527">Pleiades</text>
      </a>
    </g>
    <g id="15"
        onmouseover="mo(this)" onmouseout="mleave(this)">
      <circle class="node" r="15.0" cx="230.3458803853061" cy="119.79291471185059" fill="#3182BD"><title>statusnet-progval-net</title></circle>
      <a class="bubble" href="https://lod-cloud.net/dataset/statusnet-progval-net" target="_blank">
          <text x="230.3458803853061" y="119.79291471185059">status...</text>
      </a>
    </g>
    <g id="16"
        onmouseover="mo(this)" onmouseout="mleave(this)">
      <circle class="node" r="20.2" cx="345.04024586030926" cy="130.9266618125609" fill="#3182BD"><title>grrp</title></circle>
      <a class="bubble" href="https://lod-cloud.net/dataset/grrp" target="_blank">
          <text x="345.04024586030926" y="130.9266618125609">Accomm...</text>
      </a>
    </g>
    <g id="17"
        onmouseover="mo(this)" onmouseout="mleave(this)">
      <circle class="node" r="15.0" cx="369.20439473189083" cy="183.01194807010324" fill="#3182BD"><title>statusnet-hii-co-il</title></circle>
      <a class="bubble" href="https://lod-cloud.net/dataset/statusnet-hii-co-il" target="_blank">
          <text x="369.20439473189083" y="183.01194807010324">status...</text>
      </a>
    </g>
    <g id="18"
        onmouseover="mo(this)" onmouseout="mleave(this)">
      <circle class="node" r="20.5" cx="285.5659710699008" cy="476.26012730827324" fill="#3182BD"><title>nuts-geovocab</title></circle>
      <a class="bubble" href="https://lod-cloud.net/dataset/nuts-geovocab" target="_blank">
          <text x="285.5659710699008" y="476.26012730827324">NUTS (...</text>
      </a>
    </g>
    <g id="19"
        onmouseover="mo(this)" onmouseout="mleave(this)">
      <circle class="node" r="20.9" cx="349.3386320239278" cy="380.55953060866483" fill="#3182BD"><title>lobid-organisations</title></circle>
      <a class="bubble" href="https://lod-cloud.net/dataset/lobid-organisations" target="_blank">
          <text x="349.3386320239278" y="380.55953060866483">lobid-...</text>
      </a>
    </g>
    <g id="20"
        onmouseover="mo(this)" onmouseout="mleave(this)">
      <circle class="node" r="19.4" cx="260.090681459911" cy="423.02521056029207" fill="#3182BD"><title>fao-geopolitical-ontology</title></circle>
      <a class="bubble" href="https://lod-cloud.net/dataset/fao-geopolitical-ontology" target="_blank">
          <text x="260.090681459911" y="423.02521056029207">FAO ge...</text>
      </a>
    </g>
    <g id="21"
        onmouseover="mo(this)" onmouseout="mleave(this)">
      <circle class="node" r="20.6" cx="317.2825129567956" cy="428.01781433067" fill="#3182BD"><title>grrt</title></circle>
      <a class="bubble" href="https://lod-cloud.net/dataset/grrt" target="_blank">
          <text x="317.2825129567956" y="428.01781433067">Accomm...</text>
      </a>
    </g>
    <g id="22"
        onmouseover="mo(this)" onmouseout="mleave(this)">
      <circle class="node" r="20.7" cx="227.485745182329" cy="471.06716686261785" fill="#3182BD"><title>fishes-of-texas</title></circle>
      <a class="bubble" href="https://lod-cloud.net/dataset/fishes-of-texas" target="_blank">
          <text x="227.485745182329" y="471.06716686261785">Fishes...</text>
      </a>
    </g>
    <g id="23"
        onmouseover="mo(this)" onmouseout="mleave(this)">
      <circle class="node" r="22.4" cx="106.14426713538901" cy="207.81967568202901" fill="#3182BD"><title>uk-postcodes</title></circle>
      <a class="bubble" href="https://lod-cloud.net/dataset/uk-postcodes" target="_blank">
          <text x="106.14426713538901" y="207.81967568202901">UK Pos...</text>
      </a>
    </g>
    <g id="24"
        onmouseover="mo(this)" onmouseout="mleave(this)">
      <circle class="node" r="21.4" cx="163.7767112261359" cy="214.51463296859396" fill="#3182BD"><title>ordnance-survey-linked-data</title></circle>
      <a class="bubble" href="https://lod-cloud.net/dataset/ordnance-survey-linked-data" target="_blank">
          <text x="163.7767112261359" y="214.51463296859396">Ordnan...</text>
      </a>
    </g>
    <g id="25"
        onmouseover="mo(this)" onmouseout="mleave(this)">
      <circle class="node" r="15.0" cx="236.16705164907418" cy="370.8791457679063" fill="#3182BD"><title>linked-logainm</title></circle>
      <a class="bubble" href="https://lod-cloud.net/dataset/linked-logainm" target="_blank">
          <text x="236.16705164907418" y="370.8791457679063">Linked...</text>
      </a>
    </g>
    <g id="26"
        onmouseover="mo(this)" onmouseout="mleave(this)">
      <circle class="node" r="17.6" cx="169.21326549218622" cy="465.0399903893491" fill="#3182BD"><title>the-view-from</title></circle>
      <a class="bubble" href="https://lod-cloud.net/dataset/the-view-from" target="_blank">
          <text x="169.21326549218622" y="465.0399903893491">The Vi...</text>
      </a>
    </g>
    <g id="27"
        onmouseover="mo(this)" onmouseout="mleave(this)">
      <circle class="node" r="18.9" cx="402.2393125573606" cy="134.5656935340557" fill="#3182BD"><title>norwegian-geo-divisions</title></circle>
      <a class="bubble" href="https://lod-cloud.net/dataset/norwegian-geo-divisions" target="_blank">
          <text x="402.2393125573606" y="134.5656935340557">Norweg...</text>
      </a>
    </g>
    <g id="28"
        onmouseover="mo(this)" onmouseout="mleave(this)">
      <circle class="node" r="15.0" cx="459.9714536677609" cy="139.49317170651656" fill="#3182BD"><title>statusnet-ldn-fai-net</title></circle>
      <a class="bubble" href="https://lod-cloud.net/dataset/statusnet-ldn-fai-net" target="_blank">
          <text x="459.9714536677609" y="139.49317170651656">status...</text>
      </a>
    </g>
    <g id="29"
        onmouseover="mo(this)" onmouseout="mleave(this)">
      <circle class="node" r="15.0" cx="426.42740217310643" cy="187.3821894106971" fill="#3182BD"><title>taiwan-geographic-names</title></circle>
      <a class="bubble" href="https://lod-cloud.net/dataset/taiwan-geographic-names" target="_blank">
          <text x="426.42740217310643" y="187.3821894106971">Taiwan...</text>
      </a>
    </g>
    <g id="30"
        onmouseover="mo(this)" onmouseout="mleave(this)">
      <circle class="node" r="15.0" cx="484.6995844946225" cy="192.70333871629657" fill="#3182BD"><title>statusnet-spraci-org</title></circle>
      <a class="bubble" href="https://lod-cloud.net/dataset/statusnet-spraci-org" target="_blank">
          <text x="484.6995844946225" y="192.70333871629657">status...</text>
      </a>
    </g>
    <g id="31"
        onmouseover="mo(this)" onmouseout="mleave(this)">
      <circle class="node" r="22.7" cx="211.83454134378343" cy="318.3159109566962" fill="#3182BD"><title>yahoo_geoplanet</title></circle>
      <a class="bubble" href="https://lod-cloud.net/dataset/yahoo_geoplanet" target="_blank">
          <text x="211.83454134378343" y="318.3159109566962">Yahoo ...</text>
      </a>
    </g>
    <g id="32"
        onmouseover="mo(this)" onmouseout="mleave(this)">
      <circle class="node" r="19.2" cx="188.7041235480193" cy="266.57012302177725" fill="#3182BD"><title>telegraphis</title></circle>
      <a class="bubble" href="https://lod-cloud.net/dataset/telegraphis" target="_blank">
          <text x="188.7041235480193" y="266.57012302177725">Telegr...</text>
      </a>
    </g>
    <g id="33"
        onmouseover="mo(this)" onmouseout="mleave(this)">
      <circle class="node" r="15.0" cx="203.2907454645354" cy="418.01196676840306" fill="#3182BD"><title>eea-vocabularies</title></circle>
      <a class="bubble" href="https://lod-cloud.net/dataset/eea-vocabularies" target="_blank">
          <text x="203.2907454645354" y="418.01196676840306">EEA Vo...</text>
      </a>
    </g>
    <g id="34"
        onmouseover="mo(this)" onmouseout="mleave(this)">
      <circle class="node" r="15.0" cx="393.5478054473026" cy="235.04145147353444" fill="#3182BD"><title>eventseer</title></circle>
      <a class="bubble" href="https://lod-cloud.net/dataset/eventseer" target="_blank">
          <text x="393.5478054473026" y="235.04145147353444">Eventseer</text>
      </a>
    </g>
    <g id="35"
        onmouseover="mo(this)" onmouseout="mleave(this)">
      <circle class="node" r="15.0" cx="179.48648455757652" cy="365.5101684036862" fill="#3182BD"><title>linked-uspto-patent-data</title></circle>
      <a class="bubble" href="https://lod-cloud.net/dataset/linked-uspto-patent-data" target="_blank">
          <text x="179.48648455757652" y="365.5101684036862">USPTO ...</text>
      </a>
    </g>
    <g id="36"
        onmouseover="mo(this)" onmouseout="mleave(this)">
      <circle class="node" r="22.4" cx="287.84528241520485" cy="125.61822325588585" fill="#3182BD"><title>oceandrilling-forams</title></circle>
      <a class="bubble" href="https://lod-cloud.net/dataset/oceandrilling-forams" target="_blank">
          <text x="287.84528241520485" y="125.61822325588585">Ocean ...</text>
      </a>
    </g>
    <g id="37"
        onmouseover="mo(this)" onmouseout="mleave(this)">
      <circle class="node" r="20.1" cx="144.8593440319637" cy="411.80069198234503" fill="#3182BD"><title>environmental-applications-reference-thesaurus</title></circle>
      <a class="bubble" href="https://lod-cloud.net/dataset/environmental-applications-reference-thesaurus" target="_blank">
          <text x="144.8593440319637" y="411.80069198234503">EARTh</text>
      </a>
    </g>
    <g id="38"
        onmouseover="mo(this)" onmouseout="mleave(this)">
      <circle class="node" r="20.6" cx="121.21857044832419" cy="360.21309498907095" fill="#3182BD"><title>thist</title></circle>
      <a class="bubble" href="https://lod-cloud.net/dataset/thist" target="_blank">
          <text x="121.21857044832419" y="360.21309498907095">ThIST</text>
      </a>
    </g>
    <g id="39"
        onmouseover="mo(this)" onmouseout="mleave(this)">
      <circle class="node" r="22.3" cx="155.0510172686945" cy="313.20248446346284" fill="#3182BD"><title>geolinkeddata</title></circle>
      <a class="bubble" href="https://lod-cloud.net/dataset/geolinkeddata" target="_blank">
          <text x="155.0510172686945" y="313.20248446346284">GeoLin...</text>
      </a>
    </g>
    <g id="40"
        onmouseover="mo(this)" onmouseout="mleave(this)">
      <circle class="node" r="21.7" cx="450.8645864091965" cy="239.70827313357125" fill="#3182BD"><title>riese</title></circle>
      <a class="bubble" href="https://lod-cloud.net/dataset/riese" target="_blank">
          <text x="450.8645864091965" y="239.70827313357125">RDFizi...</text>
      </a>
    </g>
    <g id="41"
        onmouseover="mo(this)" onmouseout="mleave(this)">
      <circle class="node" r="22.7" cx="440.8741034235312" cy="339.8063142088652" fill="#3182BD"><title>geowordnet</title></circle>
      <a class="bubble" href="https://lod-cloud.net/dataset/geowordnet" target="_blank">
          <text x="440.8741034235312" y="339.8063142088652">GeoWor...</text>
      </a>
    </g>
    <g id="42"
        onmouseover="mo(this)" onmouseout="mleave(this)">
      <circle class="node" r="22.4" cx="360.06123791299456" cy="282.0025607626596" fill="#3182BD"><title>oceandrilling-janusamp</title></circle>
      <a class="bubble" href="https://lod-cloud.net/dataset/oceandrilling-janusamp" target="_blank">
          <text x="360.06123791299456" y="282.0025607626596">Ocean ...</text>
      </a>
    </g>
    <g id="43"
        onmouseover="mo(this)" onmouseout="mleave(this)">
      <circle class="node" r="20.2" cx="499.05642320521406" cy="344.78537404510956" fill="#3182BD"><title>Uganda-Disasters-rdf-data_</title></circle>
      <a class="bubble" href="https://lod-cloud.net/dataset/Uganda-Disasters-rdf-data_" target="_blank">
          <text x="499.05642320521406" y="344.78537404510956">Uganda...</text>
      </a>
    </g>
    <g id="44"
        onmouseover="mo(this)" onmouseout="mleave(this)">
      <circle class="node" r="15.0" cx="383.5506761974957" cy="334.1258665332659" fill="#3182BD"><title>greek-administrative-geography</title></circle>
      <a class="bubble" href="https://lod-cloud.net/dataset/greek-administrative-geography" target="_blank">
          <text x="383.5506761974957" y="334.1258665332659">greek-...</text>
      </a>
    </g>
    <g id="45"
        onmouseover="mo(this)" onmouseout="mleave(this)">
      <circle class="node" r="15.0" cx="432.28000578609317" cy="441.36662414004945" fill="#3182BD"><title>statusnet-coreyavis-com</title></circle>
      <a class="bubble" href="https://lod-cloud.net/dataset/statusnet-coreyavis-com" target="_blank">
          <text x="432.28000578609317" y="441.36662414004945">status...</text>
      </a>
    </g>
    <g id="46"
        onmouseover="mo(this)" onmouseout="mleave(this)">
      <circle class="node" r="16.3" cx="245.597672148826" cy="272.32614378666636" fill="#3182BD"><title>Earthquake_case</title></circle>
      <a class="bubble" href="https://lod-cloud.net/dataset/Earthquake_case" target="_blank">
          <text x="245.597672148826" y="272.32614378666636">ESO</text>
      </a>
    </g>
    <g id="47"
        onmouseover="mo(this)" onmouseout="mleave(this)">
      <circle class="node" r="23.5" cx="222.62451336146214" cy="220.55976826268056" fill="#3182BD"><title>near</title></circle>
      <a class="bubble" href="https://lod-cloud.net/dataset/near" target="_blank">
          <text x="222.62451336146214" y="220.55976826268056">Near</text>
      </a>
    </g>
    <g id="48"
        onmouseover="mo(this)" onmouseout="mleave(this)">
      <circle class="node" r="19.9" cx="279.6534983908927" cy="225.67097941463692" fill="#3182BD"><title>los_metar</title></circle>
      <a class="bubble" href="https://lod-cloud.net/dataset/los_metar" target="_blank">
          <text x="279.6534983908927" y="225.67097941463692">Weathe...</text>
      </a>
    </g>
    <g id="49"
        onmouseover="mo(this)" onmouseout="mleave(this)">
      <circle class="node" r="23.6" cx="302.627560066578" cy="277.52595668864967" fill="#3182BD"><title>Smart_POI_dataset</title></circle>
      <a class="bubble" href="https://lod-cloud.net/dataset/Smart_POI_dataset" target="_blank">
          <text x="302.627560066578" y="277.52595668864967">Smart ...</text>
      </a>
    </g>
    <g transform="translate(20,617) scale(0.9453781512605043)">
      <text style="font-family: Verdana, Arial;">The Geography Linked Open Data Cloud from lod-cloud.net</text>
    </g>
      <g transform="translate(480, 600)">
<svg
   xmlns:dc="http://purl.org/dc/elements/1.1/"
   xmlns:cc="http://web.resource.org/cc/"
   xmlns:rdf="http://www.w3.org/1999/02/22-rdf-syntax-ns#"
   xmlns:svg="http://www.w3.org/2000/svg"
   xmlns="http://www.w3.org/2000/svg"
   xmlns:sodipodi="http://sodipodi.sourceforge.net/DTD/sodipodi-0.dtd"
   xmlns:inkscape="http://www.inkscape.org/namespaces/inkscape"
   width="120"
   height="42"
   id="svg2759"
   sodipodi:version="0.32"
   inkscape:version="0.45+devel"
   version="1.0"
   sodipodi:docname="by.svg"
   inkscape:output_extension="org.inkscape.output.svg.inkscape">
  <defs
     id="defs2761" />
  <sodipodi:namedview
     id="base"
     pagecolor="#ffffff"
     bordercolor="#8b8b8b"
     borderopacity="1"
     gridtolerance="10000"
     guidetolerance="10"
     objecttolerance="10"
     inkscape:pageopacity="0.0"
     inkscape:pageshadow="2"
     inkscape:zoom="1"
     inkscape:cx="179"
     inkscape:cy="89.569904"
     inkscape:document-units="px"
     inkscape:current-layer="layer1"
     width="120px"
     height="42px"
     inkscape:showpageshadow="false"
     inkscape:window-width="1198"
     inkscape:window-height="624"
     inkscape:window-x="396"
     inkscape:window-y="242" />
  <metadata
     id="metadata2764">
    <rdf:RDF>
      <cc:Work
         rdf:about="">
        <dc:format>image/svg+xml</dc:format>
        <dc:type
           rdf:resource="http://purl.org/dc/dcmitype/StillImage" />
      </cc:Work>
    </rdf:RDF>
  </metadata>
  <g
     inkscape:label="Layer 1"
     inkscape:groupmode="layer"
     id="layer1">
    <g
       transform="matrix(0.9937728,0,0,0.9936696,-177.69267,6.25128e-7)"
       id="g260"
       inkscape:export-filename="/mnt/hgfs/Bov/Documents/Work/2007/cc/identity/srr buttons/big/by.png"
       inkscape:export-xdpi="300.23013"
       inkscape:export-ydpi="300.23013">
	<path
   id="path3817_1_"
   nodetypes="ccccccc"
   d="M 181.96579,0.51074 L 296.02975,0.71338 C 297.6235,0.71338 299.04733,0.47705 299.04733,3.89404 L 298.90768,41.46093 L 179.08737,41.46093 L 179.08737,3.75439 C 179.08737,2.06934 179.25046,0.51074 181.96579,0.51074 z"
   style="fill:#aab2ab" />

	<path
   d="M 297.29636,0 L 181.06736,0 C 179.82078,0 178.80613,1.01416 178.80613,2.26074 L 178.80613,41.75732 C 178.80613,42.03906 179.03513,42.26757 179.31687,42.26757 L 299.04734,42.26757 C 299.32908,42.26757 299.55808,42.03905 299.55808,41.75732 L 299.55808,2.26074 C 299.55807,1.01416 298.54343,0 297.29636,0 z M 181.06735,1.02148 L 297.29635,1.02148 C 297.98043,1.02148 298.53658,1.57714 298.53658,2.26074 C 298.53658,2.26074 298.53658,18.20898 298.53658,29.71045 L 215.19234,29.71045 C 212.14742,35.21631 206.28121,38.95459 199.54879,38.95459 C 192.81344,38.95459 186.94869,35.21973 183.90524,29.71045 L 179.8276,29.71045 C 179.8276,18.20899 179.8276,2.26074 179.8276,2.26074 C 179.82761,1.57715 180.38376,1.02148 181.06735,1.02148 z"
   id="path263" />

	<g
   enable-background="new    "
   id="g265">
		<path
   d="M 253.07761,32.95605 C 253.39499,32.95605 253.68503,32.98437 253.94773,33.04003 C 254.20945,33.09569 254.43308,33.18749 254.62058,33.31542 C 254.8071,33.44237 254.95261,33.6123 255.05515,33.82323 C 255.15769,34.03514 255.20945,34.29589 255.20945,34.60741 C 255.20945,34.94335 255.13328,35.22264 254.97996,35.44628 C 254.82762,35.67089 254.60105,35.85351 254.30223,35.99706 C 254.71434,36.11522 255.02196,36.32226 255.22508,36.61815 C 255.4282,36.91404 255.52977,37.27049 255.52977,37.68749 C 255.52977,38.02343 255.46434,38.31444 255.33348,38.56054 C 255.20262,38.80566 255.02586,39.00683 254.80516,39.1621 C 254.58348,39.31835 254.33055,39.43358 254.04735,39.5078 C 253.76317,39.583 253.47215,39.6201 253.17235,39.6201 L 249.936,39.6201 L 249.936,32.95604 L 253.07761,32.95604 L 253.07761,32.95605 z M 252.89011,35.65137 C 253.15183,35.65137 253.36667,35.58887 253.53562,35.46485 C 253.70359,35.34083 253.78757,35.13965 253.78757,34.86036 C 253.78757,34.70509 253.75925,34.57716 253.70359,34.47852 C 253.64695,34.37891 253.57273,34.30176 253.47898,34.24512 C 253.38523,34.18946 253.27781,34.15039 253.15671,34.12891 C 253.03561,34.10743 252.90866,34.09668 252.77878,34.09668 L 251.40476,34.09668 L 251.40476,35.65137 L 252.89011,35.65137 z M 252.97604,38.47949 C 253.11959,38.47949 253.25631,38.46582 253.38717,38.4375 C 253.51803,38.40918 253.63326,38.3623 253.73385,38.29785 C 253.83346,38.23242 253.91256,38.14355 253.97213,38.03125 C 254.0317,37.91992 254.061,37.77637 254.061,37.60254 C 254.061,37.26074 253.96432,37.0166 253.77096,36.87012 C 253.5776,36.72461 253.32174,36.65137 253.00436,36.65137 L 251.40475,36.65137 L 251.40475,38.47949 L 252.97604,38.47949 z"
   id="path267"
   style="fill:#ffffff" />

		<path
   d="M 255.78854,32.95605 L 257.43209,32.95605 L 258.99264,35.58789 L 260.54342,32.95605 L 262.17721,32.95605 L 259.70358,37.0625 L 259.70358,39.62012 L 258.23483,39.62012 L 258.23483,37.02539 L 255.78854,32.95605 z"
   id="path269"
   style="fill:#ffffff" />

	</g>

	<g
   id="g5908_1_"
   transform="matrix(0.872921,0,0,0.872921,50.12536,143.2144)">
		
			<path
   id="path5906_1_"
   cx="296.35416"
   ry="22.939548"
   cy="264.3577"
   type="arc"
   rx="22.939548"
   d="M 186.90065,-141.46002 C 186.90623,-132.77923 179.87279,-125.73852 171.19257,-125.73291 C 162.51235,-125.72736 155.47051,-132.76025 155.46547,-141.44098 C 155.46547,-141.44714 155.46547,-141.45331 155.46547,-141.46002 C 155.46043,-150.14081 162.49333,-157.18152 171.17355,-157.18658 C 179.8549,-157.19213 186.89561,-150.15924 186.90065,-141.47845 C 186.90065,-141.4729 186.90065,-141.46619 186.90065,-141.46002 z"
   style="fill:#ffffff" />

		<g
   id="g5706_1_"
   transform="translate(-289.6157,99.0653)">
			<path
   id="path5708_1_"
   d="M 473.57574,-253.32751 C 477.06115,-249.8421 478.80413,-245.5736 478.80413,-240.52532 C 478.80413,-235.47594 477.09136,-231.25329 473.66582,-227.85741 C 470.03051,-224.28081 465.734,-222.49309 460.77635,-222.49309 C 455.87858,-222.49309 451.65648,-224.26628 448.11122,-227.81261 C 444.56541,-231.35845 442.79277,-235.59563 442.79277,-240.52532 C 442.79277,-245.45391 444.56541,-249.7213 448.11122,-253.32751 C 451.56642,-256.81402 455.7885,-258.557 460.77635,-258.557 C 465.82465,-258.55701 470.09039,-256.81403 473.57574,-253.32751 z M 450.45776,-250.98267 C 447.51104,-248.00629 446.03823,-244.51978 446.03823,-240.52033 C 446.03823,-236.52198 447.49651,-233.06507 450.41247,-230.14966 C 453.32897,-227.23316 456.80096,-225.77545 460.82952,-225.77545 C 464.85808,-225.77545 468.35967,-227.24768 471.33605,-230.19385 C 474.16198,-232.9303 475.57549,-236.37091 475.57549,-240.52033 C 475.57549,-244.63837 474.13903,-248.13379 471.26781,-251.00501 C 468.39714,-253.87568 464.9179,-255.31159 460.82952,-255.31159 C 456.74112,-255.31158 453.28314,-253.86841 450.45776,-250.98267 z M 458.21225,-242.27948 C 457.76196,-243.26117 457.08795,-243.75232 456.18903,-243.75232 C 454.59986,-243.75232 453.80558,-242.68225 453.80558,-240.54321 C 453.80558,-238.40368 454.59986,-237.33471 456.18903,-237.33471 C 457.23841,-237.33471 457.98795,-237.85546 458.43769,-238.89922 L 460.64045,-237.72625 C 459.59052,-235.86077 458.01536,-234.92779 455.91496,-234.92779 C 454.29506,-234.92779 452.99733,-235.42449 452.0229,-236.4168 C 451.0468,-237.41021 450.56016,-238.77953 450.56016,-240.52532 C 450.56016,-242.24035 451.06245,-243.60186 452.06764,-244.61034 C 453.07283,-245.61888 454.32466,-246.12291 455.82545,-246.12291 C 458.04557,-246.12291 459.63526,-245.24803 460.59626,-243.50005 L 458.21225,-242.27948 z M 468.57562,-242.27948 C 468.12475,-243.26117 467.46417,-243.75232 466.5932,-243.75232 C 464.97217,-243.75232 464.16107,-242.68225 464.16107,-240.54321 C 464.16107,-238.40368 464.97217,-237.33471 466.5932,-237.33471 C 467.64429,-237.33471 468.38037,-237.85546 468.80048,-238.89922 L 471.05249,-237.72625 C 470.00421,-235.86077 468.43127,-234.92779 466.33478,-234.92779 C 464.7171,-234.92779 463.42218,-235.42449 462.44831,-236.4168 C 461.47614,-237.41021 460.98896,-238.77953 460.98896,-240.52532 C 460.98896,-242.24035 461.48341,-243.60186 462.47181,-244.61034 C 463.45966,-245.61888 464.71711,-246.12291 466.24531,-246.12291 C 468.4615,-246.12291 470.04896,-245.24803 471.0066,-243.50005 L 468.57562,-242.27948 z" />

		</g>

	</g>

	<g
   id="g275">
		<circle
   cx="255.55124"
   cy="15.31348"
   r="10.80664"
   id="circle277"
   sodipodi:cx="255.55124"
   sodipodi:cy="15.31348"
   sodipodi:rx="10.80664"
   sodipodi:ry="10.80664"
   style="fill:#ffffff" />

		<g
   id="g279">
			<path
   d="M 258.67819,12.18701 C 258.67819,11.77051 258.3403,11.4331 257.92526,11.4331 L 253.15182,11.4331 C 252.73678,11.4331 252.39889,11.7705 252.39889,12.18701 L 252.39889,16.95996 L 253.72994,16.95996 L 253.72994,22.61182 L 257.34713,22.61182 L 257.34713,16.95996 L 258.67818,16.95996 L 258.67818,12.18701 L 258.67819,12.18701 z"
   id="path281" />

			<circle
   cx="255.53854"
   cy="9.1723604"
   r="1.63281"
   id="circle283"
   sodipodi:cx="255.53854"
   sodipodi:cy="9.1723604"
   sodipodi:rx="1.63281"
   sodipodi:ry="1.63281" />

		</g>

		<path
   clip-rule="evenodd"
   d="M 255.5239,3.40723 C 252.29148,3.40723 249.55515,4.53516 247.31589,6.79102 C 245.01804,9.12452 243.8696,11.88672 243.8696,15.07569 C 243.8696,18.26466 245.01804,21.00733 247.31589,23.30225 C 249.61374,25.59668 252.35007,26.74414 255.5239,26.74414 C 258.73679,26.74414 261.52195,25.58789 263.87742,23.27295 C 266.09715,21.07568 267.2075,18.34326 267.2075,15.07568 C 267.2075,11.8081 266.07762,9.04687 263.8198,6.79101 C 261.56003,4.53516 258.79538,3.40723 255.5239,3.40723 z M 255.55319,5.50684 C 258.20163,5.50684 260.45065,6.44092 262.30026,8.30811 C 264.1694,10.15528 265.10397,12.41114 265.10397,15.07569 C 265.10397,17.75928 264.18893,19.98633 262.35885,21.75587 C 260.43014,23.66212 258.16256,24.61476 255.55319,24.61476 C 252.94284,24.61476 250.69381,23.67189 248.80612,21.78517 C 246.91647,19.89845 245.97311,17.66212 245.97311,15.0757 C 245.97311,12.48879 246.92721,10.23341 248.83541,8.30812 C 250.6655,6.44092 252.90475,5.50684 255.55319,5.50684 z"
   id="path285"
   style="fill-rule:evenodd" />

	</g>

</g>
  </g>
</svg>

      </g>
  </g>
</svg>
